


<svg version="1.1" xmlns="http://www.w3.org/2000/svg" xmlns:xlink="http://www.w3.org/1999/xlink" x="0px" y="0px"
   viewBox="0 0 612 792" style="enable-background:new 0 0 612 792;" xml:space="preserve">
<style type="text/css">
  .Arched_x0020_Green{fill:url(#SVGID_1_);stroke:#FFFFFF;stroke-width:0.25;stroke-miterlimit:1;}
  .st0{fill:#FFFFFF;}
  .st1{fill:#F7F8DC;}
  .st2{fill:#FBF49B;}
  .st3{fill:#EDEDED;}
  .st4{fill:#5C8929;stroke:#000000;stroke-width:3;stroke-linecap:round;stroke-linejoin:round;}
  .st5{fill:#006E30;stroke:#000000;stroke-width:3;stroke-linecap:round;stroke-linejoin:round;}
  .st6{fill:#1C7E32;stroke:#000000;stroke-width:3;stroke-linecap:round;stroke-linejoin:round;}
  .st7{fill:#1A779E;stroke:#000000;stroke-width:3;stroke-linecap:round;stroke-linejoin:round;}
  .st8{fill:#00562D;stroke:#000000;stroke-width:3;stroke-linecap:round;stroke-linejoin:round;}
  .st9{fill:#FBB040;stroke:#000000;stroke-width:2;}
  .st10{fill:#BE1E2D;stroke:#000000;stroke-width:2;}
  .st11{fill:#EF4036;stroke:#000000;stroke-width:2;}
  .st12{fill:#F9ED31;stroke:#000000;stroke-width:2;}
</style>
<linearGradient id="SVGID_1_" gradientUnits="userSpaceOnUse" x1="0" y1="792" x2="0.7071" y2="791.2929">
  <stop  offset="0" style="stop-color:#20AC4B"/>
  <stop  offset="0.9831" style="stop-color:#19361A"/>
</linearGradient>



<g id="CLOUDS">
  <g>
    <g>
      <path d="M286.6,317.5c-0.3-1.1-0.7-2.2-1.1-3.3c-0.4-1.1-0.9-2.2-1.4-3.2c-0.5-1.1-1.1-2.1-1.7-3.1c-0.6-1-1.3-2-2-2.9
        c0.5-0.7,1-1.5,1.3-2.4c0.3-0.9,0.5-1.9,0.6-3c0.1-1.1,0-2.3-0.1-3.5c-0.2-1.2-0.4-2.5-0.8-3.9c-0.7-2.2-1.6-4.4-2.7-6.5
        c-1.1-2.1-2.5-4-3.9-5.7c-1.5-1.7-3-3.2-4.7-4.4c-1.6-1.2-3.3-2.1-5-2.5c-1.4-0.4-2.7-0.4-3.8-0.2c-0.8,0.2-1.5,0.5-2.1,1
        c0,0,0.1-0.1,0.1-0.1l-7.3,5.2c-0.7-0.6-1.4-1.1-2.1-1.6c-1.1-0.7-2.3-1.4-3.4-1.9c-1.1-0.5-2.3-1-3.4-1.3
        c-0.7-2.1-1.7-4.2-2.9-6.1c-1.2-1.9-2.6-3.7-4.1-5.4c-1.5-1.6-3.2-3.1-4.9-4.2c-1.8-1.2-3.6-2.1-5.4-2.6
        c-1.8-0.5-3.4-0.7-4.9-0.5c-1.5,0.2-2.8,0.8-3.9,1.6c-0.3,0.2-0.5,0.4-0.7,0.7c0,0,0,0,0,0l-6.2,6.5c-0.6-0.2-1.2-0.5-1.8-0.7
        c-0.6-0.2-1.2-0.4-1.8-0.5c-3.4-0.9-6.6-1-9.4-0.4c-2.9,0.6-5.4,1.9-7.4,3.9c-0.4,0.4-0.8,0.9-1.2,1.3c0,0,0-0.1,0.1-0.1
        l-17.7,21.7c-0.4-0.4-0.8-0.7-1.2-1.1c-2.1-1.8-4.3-3.4-6.6-4.7c-2.3-1.3-4.6-2.3-7-2.9c-1.4-0.4-2.7-0.6-4-0.7
        c-1.3-0.1-2.6-0.1-3.8,0.1c-1.2,0.2-2.4,0.4-3.5,0.9c-1.1,0.4-2.2,1-3.1,1.7c-1.1-1.6-2.3-3.1-3.6-4.4c-1.3-1.4-2.7-2.6-4.2-3.8
        c-1.5-1.1-3-2.1-4.6-2.9c-1.6-0.8-3.2-1.5-4.8-1.9c-2.7-0.8-5.2-0.9-7.4-0.5c-2.3,0.4-4.2,1.3-5.8,2.7c-0.7,0.6-1.3,1.4-1.9,2.2
        c0.1-0.1,0.2-0.3,0.3-0.4l-73,101.4c-0.1,0.1-0.2,0.3-0.3,0.4c-0.1,0.2-0.2,0.3-0.3,0.5c0,0,0,0,0,0.1c0,0,0,0,0,0c0,0,0,0,0,0
        c-0.1,0.1-0.1,0.3-0.2,0.4c-0.1,0.2-0.1,0.3-0.2,0.5c0,0,0,0.1,0,0.1c0,0,0,0,0,0c0,0,0,0,0,0.1c0,0.1-0.1,0.3-0.1,0.4
        c0,0.2-0.1,0.4-0.1,0.6c0,0,0,0,0,0c0,0,0,0,0,0c0,0,0,0,0,0.1c0,0.2,0,0.3,0,0.5c0,0.2,0,0.4,0,0.7c0,0.1,0,0.3,0,0.4
        c0,0.1,0,0.3,0.1,0.4c0,0.1,0.1,0.3,0.1,0.4c0,0,0,0,0,0l-1.8,2.2c-0.2,0.2-0.4,0.5-0.6,0.8c0,0,0,0,0,0
        c-0.1,0.1-0.2,0.3-0.3,0.4c-0.1,0.1-0.1,0.2-0.2,0.4c0,0,0,0,0,0c0,0,0,0,0,0c-0.1,0.1-0.1,0.3-0.2,0.4c-0.1,0.2-0.2,0.3-0.2,0.5
        c0,0,0,0,0,0c0,0.1-0.1,0.2-0.1,0.3c-0.1,0.2-0.1,0.3-0.2,0.5c0,0,0,0,0,0c0,0,0,0,0,0c-0.1,0.2-0.1,0.4-0.2,0.6
        c0,0.1-0.1,0.2-0.1,0.3c0,0,0,0,0,0c0,0.2-0.1,0.3-0.1,0.5c0,0.1-0.1,0.3-0.1,0.4c0,0,0,0,0,0c0,0,0,0,0,0c0,0.1,0,0.3,0,0.4
        c0,0.2,0,0.3,0,0.5c0,0,0,0,0,0c0,0.3,0,0.6,0,1c0.1,1.5,0.5,2.9,1.1,4.2c0.6,1.3,1.5,2.4,2.6,3.3c1.1,0.9,2.3,1.6,3.7,2.1
        c1.4,0.4,2.8,0.6,4.3,0.5c0.3,0,0.6-0.1,0.9-0.1c0.3-0.1,0.6-0.1,0.9-0.2c0.3-0.1,0.6-0.2,0.9-0.3c0.3-0.1,0.6-0.2,0.8-0.3
        l10.4-4.7c0.1,0,0.2,0,0.2,0c0.2,0,0.3,0,0.5-0.1c0.2,0,0.3-0.1,0.5-0.1c0.2,0,0.3-0.1,0.5-0.1c0.3,0.9,0.8,1.7,1.4,2.4
        c0.6,0.7,1.2,1.3,2,1.8c0.7,0.5,1.6,0.8,2.4,1.1c0.9,0.2,1.7,0.3,2.6,0.2c0.1,0,0.2,0,0.4,0c0.1,0,0.2,0,0.4-0.1
        c0.1,0,0.2,0,0.4-0.1c0.1,0,0.2-0.1,0.3-0.1l56.8-16.3c0.3,0,0.6,0,0.8,0c0.2,0,0.4,0,0.6-0.1c0.2,0,0.4-0.1,0.6-0.1
        c0.2,0,0.4-0.1,0.5-0.1c0.2-0.1,0.4-0.1,0.5-0.2l3.6-1.4l2-0.6c0.1,0.8,0.3,1.5,0.7,2.2c0.4,0.7,0.9,1.4,1.5,1.9
        c0.6,0.5,1.3,0.9,2,1.2c0.7,0.2,1.5,0.4,2.4,0.3c0.1,0,0.1,0,0.2,0c0.1,0,0.1,0,0.2,0c0.1,0,0.1,0,0.2,0c0.1,0,0.1,0,0.2,0
        L273.3,353c-0.1,0-0.3,0.1-0.4,0.1c0,0-0.1,0-0.1,0c1.1-0.2,2-0.6,2.9-1.2c1.1-0.8,2-2,2.7-3.4c0.6-1.4,1-3.1,1.2-5
        c0.1-1.7,0-3.6-0.3-5.6l2.5-0.8c-0.2,0.1-0.4,0.1-0.6,0.2c-0.2,0-0.4,0.1-0.6,0.1c1.3-0.2,2.5-0.7,3.5-1.5c1.3-1,2.3-2.5,2.9-4.4
        c0.6-1.8,0.9-4,0.9-6.3C287.8,322.8,287.4,320.2,286.6,317.5z M286.8,324.8c0-0.2,0-0.4,0-0.6c0,0.1,0,0.3,0,0.4
        C286.8,324.7,286.8,324.8,286.8,324.8z M284.8,332.8C284.7,332.8,284.7,332.9,284.8,332.8C284.7,332.9,284.7,332.8,284.8,332.8z
         M285.5,331.6c0,0.1-0.1,0.2-0.1,0.2C285.4,331.8,285.4,331.7,285.5,331.6z M286.3,329.5c0-0.1,0.1-0.2,0.1-0.3
        C286.3,329.2,286.3,329.4,286.3,329.5C286.3,329.5,286.3,329.5,286.3,329.5z M286.6,327.8c0-0.1,0-0.2,0-0.3
        C286.6,327.6,286.6,327.7,286.6,327.8C286.6,327.8,286.6,327.8,286.6,327.8z M286.8,326.1C286.8,326,286.8,326,286.8,326.1
        c0,0.1,0,0.2,0,0.3C286.8,326.3,286.8,326.2,286.8,326.1z M282.1,335.1C282,335.1,282,335.2,282.1,335.1
        C282,335.2,282,335.2,282.1,335.1C282,335.2,282.1,335.1,282.1,335.1z M278.4,341.3c0-0.2,0-0.3,0-0.5c0,0,0,0,0,0
        C278.4,340.9,278.4,341.1,278.4,341.3z M107.4,277c0.1-0.3,0.2-0.5,0.3-0.8c0.1-0.2,0.1-0.4,0.2-0.5c0,0,0,0,0,0
        c-0.2,0.5-0.4,0.9-0.5,1.4C107.4,277.1,107.4,277,107.4,277z M214.4,259.7c-0.1,0.1-0.1,0.3-0.2,0.4c0-0.1,0-0.1,0.1-0.2
        C214.3,259.9,214.3,259.9,214.4,259.7C214.3,259.8,214.4,259.8,214.4,259.7z M257,276.3C257,276.3,257,276.4,257,276.3
        C256.9,276.4,257,276.3,257,276.3C257,276.3,257,276.3,257,276.3z M256.6,277.3C256.6,277.3,256.6,277.3,256.6,277.3
        C256.6,277.3,256.6,277.3,256.6,277.3L256.6,277.3z M274.2,350.7C274.2,350.7,274.2,350.7,274.2,350.7
        C274.2,350.7,274.2,350.7,274.2,350.7z M273.3,351.1c-0.1,0-0.2,0.1-0.2,0.1C273.2,351.2,273.3,351.1,273.3,351.1z M278.3,339.4
        C278.3,339.4,278.3,339.4,278.3,339.4c0,0,0,0.1,0,0.2C278.4,339.5,278.3,339.5,278.3,339.4z M286.1,319.2c0,0.2,0.1,0.4,0.1,0.6
        C286.2,319.5,286.2,319.4,286.1,319.2z M286.5,320.9c0,0.2,0.1,0.4,0.1,0.6C286.5,321.3,286.5,321.1,286.5,320.9z M286.7,322.6
        c0,0.2,0,0.4,0.1,0.6C286.7,323,286.7,322.8,286.7,322.6C286.7,322.6,286.7,322.6,286.7,322.6z M264.4,274.1c-0.1,0-0.2,0-0.3,0
        C264.2,274.1,264.3,274.1,264.4,274.1z M263.5,274c-0.1,0-0.2,0-0.3,0C263.3,274,263.4,274,263.5,274z M262.5,274
        c0,0-0.1,0-0.1,0C262.4,274.1,262.5,274.1,262.5,274z M261.6,274.2c-0.1,0-0.1,0-0.2,0.1C261.5,274.2,261.5,274.2,261.6,274.2
        C261.6,274.2,261.6,274.2,261.6,274.2z M260,274.9c0.1,0,0.1-0.1,0.2-0.1C260.1,274.9,260.1,274.9,260,274.9z M260.7,274.6
        c0.1,0,0.1-0.1,0.2-0.1C260.8,274.5,260.8,274.5,260.7,274.6z M258.3,274.4C258.3,274.4,258.3,274.3,258.3,274.4
        c0.1-0.1,0.1-0.1,0.2-0.2C258.4,274.3,258.3,274.3,258.3,274.4z M257.7,275.1C257.7,275.1,257.7,275.1,257.7,275.1
        C257.7,275.1,257.7,275.1,257.7,275.1C257.7,275.1,257.7,275.1,257.7,275.1z M225.7,257.2c-0.4-0.1-0.9-0.2-1.3-0.3
        C224.8,257,225.3,257.1,225.7,257.2z M224,256.8c-0.3,0-0.6-0.1-0.8-0.1C223.5,256.8,223.8,256.8,224,256.8z M222.8,256.7
        c-0.2,0-0.5,0-0.7,0C222.3,256.7,222.5,256.7,222.8,256.7z M221.6,256.8c-0.2,0-0.4,0-0.6,0.1c0,0,0.1,0,0.1,0
        C221.2,256.8,221.4,256.8,221.6,256.8z M220.5,256.9c-0.2,0-0.4,0.1-0.6,0.2C220.1,257,220.3,257,220.5,256.9z M219.5,257.3
        c-0.2,0.1-0.4,0.1-0.5,0.2C219.1,257.4,219.3,257.3,219.5,257.3z M217.7,258.3c-0.1,0.1-0.3,0.2-0.4,0.4c0.1-0.1,0.1-0.1,0.2-0.2
        C217.5,258.4,217.6,258.4,217.7,258.3z M218.5,257.7c-0.2,0.1-0.3,0.2-0.5,0.3C218.2,257.9,218.4,257.8,218.5,257.7z
         M213.8,261.4c0,0,0-0.1,0-0.1c0,0,0-0.1,0-0.1C213.8,261.2,213.8,261.3,213.8,261.4z M214.8,258.9
        C214.9,258.9,214.9,258.8,214.8,258.9c0.1-0.1,0.1-0.1,0.1-0.2C214.9,258.8,214.9,258.8,214.8,258.9z M206.3,264.5
        c-0.4-0.1-0.8-0.2-1.2-0.3C205.5,264.3,205.9,264.4,206.3,264.5z M204.7,264.1c-0.3,0-0.5-0.1-0.8-0.1
        C204.2,264,204.4,264.1,204.7,264.1z M203.4,263.9c-0.2,0-0.5-0.1-0.7-0.1C202.9,263.9,203.2,263.9,203.4,263.9z M202.2,263.8
        c-0.2,0-0.4,0-0.7,0C201.8,263.8,202,263.8,202.2,263.8z M201.1,263.8c-0.2,0-0.4,0-0.7,0C200.6,263.8,200.8,263.8,201.1,263.8z
         M197.8,264.1c-0.2,0-0.4,0.1-0.6,0.1c0.1,0,0.2-0.1,0.3-0.1C197.6,264.1,197.7,264.1,197.8,264.1z M199.9,263.8
        c-0.2,0-0.4,0-0.6,0.1C199.5,263.9,199.7,263.8,199.9,263.8z M198.8,263.9c-0.2,0-0.4,0.1-0.6,0.1
        C198.4,264,198.6,264,198.8,263.9z M196.7,264.4c-0.2,0.1-0.4,0.1-0.6,0.2C196.3,264.5,196.5,264.4,196.7,264.4z M195.7,264.7
        c-0.2,0.1-0.4,0.1-0.6,0.2C195.3,264.8,195.5,264.7,195.7,264.7z M194.8,265.1c-0.2,0.1-0.4,0.2-0.6,0.3
        C194.4,265.2,194.6,265.2,194.8,265.1z M193.8,265.5c-0.2,0.1-0.5,0.3-0.7,0.4C193.4,265.8,193.6,265.6,193.8,265.5z M191,267.5
        c-0.2,0.1-0.3,0.3-0.5,0.4c0,0,0,0,0.1-0.1C190.7,267.8,190.9,267.6,191,267.5z M193,266c-0.3,0.2-0.6,0.4-0.9,0.6
        C192.4,266.4,192.7,266.2,193,266z M192,266.7c-0.2,0.2-0.4,0.3-0.6,0.5C191.5,267.1,191.7,266.9,192,266.7z M189.8,268.7
        c0.1-0.1,0.3-0.3,0.4-0.4C190.1,268.4,190,268.6,189.8,268.7z M186.9,269.4c0,0,0-0.1,0.1-0.1c0,0,0,0,0-0.1
        C187,269.3,186.9,269.3,186.9,269.4z M185.9,271.1C185.9,271.1,185.9,271.1,185.9,271.1C185.9,271.1,185.9,271.1,185.9,271.1
        C185.9,271.1,185.9,271.1,185.9,271.1z M122.6,270.6c-0.1,0-0.2,0-0.2,0C122.5,270.6,122.6,270.6,122.6,270.6z M120.9,270.4
        c-0.1,0-0.2,0-0.3,0C120.7,270.4,120.8,270.4,120.9,270.4z M119.1,270.4c0,0-0.1,0-0.1,0C119,270.4,119.1,270.4,119.1,270.4z
         M117.6,270.5c0,0-0.1,0-0.1,0c0,0,0,0,0,0C117.5,270.6,117.6,270.6,117.6,270.5z M116.1,270.9c-0.1,0-0.2,0-0.2,0.1
        C116,270.9,116,270.9,116.1,270.9z M114.7,271.4c-0.1,0-0.1,0.1-0.2,0.1C114.6,271.5,114.6,271.5,114.7,271.4z M113.4,272.2
        C113.4,272.2,113.3,272.2,113.4,272.2C113.3,272.2,113.4,272.2,113.4,272.2z M112.3,273c-0.1,0.1-0.1,0.1-0.2,0.2
        c0,0,0,0,0.1-0.1C112.2,273.1,112.3,273,112.3,273z M111.1,274.3c0.1-0.1,0.1-0.1,0.2-0.2C111.2,274.1,111.1,274.2,111.1,274.3z
         M108.1,275.3c0.1-0.2,0.1-0.3,0.2-0.5c0.1-0.1,0.1-0.3,0.2-0.4c0-0.1,0.1-0.1,0.1-0.2C108.4,274.6,108.3,275,108.1,275.3z
         M272.5,353.1c-0.1,0-0.3,0-0.4,0c-0.1,0-0.3,0-0.4,0c0.4,0,0.7,0,1.1-0.1C272.7,353.1,272.6,353.1,272.5,353.1z M274.9,350.3
        c0,0,0.1-0.1,0.1-0.1c0,0,0,0,0,0C275,350.2,275,350.2,274.9,350.3C274.9,350.2,274.9,350.3,274.9,350.3z M278.3,343.3
        c0,0.2,0,0.4-0.1,0.6C278.3,343.6,278.3,343.5,278.3,343.3z M278.1,344.6c0,0.1-0.1,0.3-0.1,0.4
        C278.1,344.9,278.1,344.8,278.1,344.6C278.1,344.6,278.1,344.6,278.1,344.6z M277.9,345.6c0,0.1-0.1,0.3-0.1,0.4c0,0,0,0,0,0
        C277.8,345.9,277.8,345.7,277.9,345.6z M277,347.8c0,0,0,0.1-0.1,0.1C276.9,347.9,277,347.9,277,347.8
        C277,347.8,277,347.8,277,347.8z M276.4,348.8C276.4,348.8,276.3,348.8,276.4,348.8C276.3,348.8,276.3,348.8,276.4,348.8
        C276.4,348.8,276.4,348.8,276.4,348.8z M275.6,349.7c0.1-0.1,0.1-0.1,0.2-0.2C275.7,349.6,275.6,349.6,275.6,349.7z M277.4,347
        c0-0.1,0.1-0.2,0.1-0.3C277.5,346.8,277.5,346.9,277.4,347C277.4,347,277.4,347,277.4,347z M278.4,342.5
        C278.4,342.5,278.4,342.4,278.4,342.5c0-0.2,0-0.3,0-0.5c0,0.1,0,0.2,0,0.2C278.4,342.3,278.4,342.4,278.4,342.5z M278.2,338.2
        C278.2,338.2,278.2,338.2,278.2,338.2L278.2,338.2C278.2,338.2,278.2,338.2,278.2,338.2z M280.5,337.4c-0.2,0-0.4,0.1-0.7,0.1
        c-0.2,0-0.5,0-0.7,0C279.6,337.5,280,337.4,280.5,337.4C280.5,337.4,280.5,337.4,280.5,337.4z M283,334.6
        C283,334.5,283,334.5,283,334.6C283.1,334.5,283.1,334.5,283,334.6C283.1,334.5,283.1,334.5,283,334.6
        C283.1,334.5,283,334.5,283,334.6z M283.9,333.8c0.1-0.1,0.1-0.1,0.2-0.2C284,333.7,283.9,333.8,283.9,333.8z M285.8,330.8
        c0.1-0.1,0.1-0.3,0.2-0.4c0,0,0,0.1,0,0.1C285.9,330.6,285.8,330.7,285.8,330.8z"/>
      <path class="st3" d="M124.3,271c1.5,0.4,3.1,1.1,4.6,1.9c1.5,0.8,3,1.8,4.4,2.9c1.4,1.1,2.8,2.3,4,3.7c1.2,1.4,2.4,2.8,3.4,4.4
        l0.6,0.9l0.5-0.4c0.9-0.8,1.9-1.4,3-1.8c1.1-0.5,2.2-0.8,3.4-1c1.2-0.2,2.4-0.2,3.7-0.1c1.3,0.1,2.6,0.3,3.9,0.7
        c2.3,0.6,4.6,1.6,6.9,2.9c2.2,1.3,4.4,2.9,6.5,4.7c2.1,1.8,4,3.9,5.8,6.2c1.8,2.3,3.5,4.8,4.9,7.4l0.8,1.4l0.2-1.1
        c0.3-1.2,0.7-2.2,1.2-3.1c0.5-0.8,1.2-1.5,1.9-2c0.8-0.5,1.6-0.8,2.5-0.9c0.9-0.1,2,0,3,0.2c0.8,0.2,1.6,0.5,2.4,0.9
        c0.8,0.4,1.6,0.8,2.4,1.4c0.8,0.6,1.6,1.2,2.4,1.9c0.8,0.7,1.6,1.5,2.3,2.3l0.5,0.6l0.2-0.4c0.2-0.5,0.5-1,0.8-1.4
        c0.3-0.4,0.7-0.7,1.1-0.9c0.4-0.2,0.9-0.3,1.4-0.4c0.5,0,1,0,1.6,0.1c1.1,0.3,2.3,0.8,3.4,1.6c1.1,0.8,2.2,1.8,3.2,3
        c1,1.2,1.9,2.6,2.7,4c0.8,1.5,1.5,3,2,4.6c0.5,1.6,0.7,3.1,0.8,4.4c0,1.3-0.1,2.5-0.5,3.5c-0.4,1-1,1.7-1.7,2.2
        c-0.8,0.5-1.7,0.7-2.8,0.5c-0.3,0-0.7-0.1-1-0.2c-0.4-0.1-0.7-0.3-1.1-0.4c-0.4-0.2-0.7-0.4-1.1-0.6c-0.4-0.2-0.7-0.5-1.1-0.8
        l-0.5-0.4l0,0.6c0,1-0.2,1.9-0.4,2.8c-0.2,0.9-0.5,1.6-0.9,2.3c-0.4,0.7-0.9,1.3-1.4,1.8c-0.5,0.5-1.2,0.9-1.9,1.1l-0.4,0.2
        l0.3,0.7c0.2,0.5,0.4,1,0.6,1.5c0.2,0.5,0.4,1,0.6,1.5c0.2,0.5,0.4,1,0.5,1.5c0.2,0.5,0.3,1,0.5,1.5c0.8,2.9,1.2,5.7,1.2,8.2
        c0,2.5-0.4,4.8-1.2,6.8c-0.8,2-1.9,3.6-3.4,4.7c-1.5,1.1-3.3,1.8-5.5,1.7c-1.8,0-3.7-0.5-5.6-1.4c-1.9-0.9-3.8-2.2-5.7-3.8
        c-1.8-1.6-3.6-3.6-5.2-5.9c-1.6-2.3-3-4.8-4.1-7.4l-0.3-0.8l-0.6,0.1c-0.4,0.1-0.8,0.2-1.2,0.2c-0.4,0.1-0.8,0.1-1.2,0.1
        c-0.4,0-0.8,0-1.2,0c-0.4,0-0.8,0-1.3-0.1c-0.9-0.1-1.9-0.2-2.9-0.4c-1-0.2-2-0.5-3-0.9c-1-0.4-2-0.8-3-1.3c-1-0.5-2-1.1-3.1-1.7
        l-0.7-0.4l-0.2,0.8c-0.5,2.5-1.3,4.7-2.4,6.7c-1.1,2-2.5,3.7-4.2,5.2c-1.7,1.4-3.6,2.6-5.8,3.3c-2.2,0.8-4.7,1.1-7.3,1
        c-4-0.1-8-1.2-11.9-3.1c-4-2-7.8-4.7-11.1-8.1c-3.4-3.4-6.4-7.4-8.7-11.8c-2.3-4.4-3.9-9.1-4.6-13.8c-0.4-2.8-0.5-5.5-0.2-8
        c0.2-2.5,0.8-4.8,1.6-6.9c0.8-2.1,1.9-3.9,3.3-5.6c1.3-1.6,2.9-2.9,4.7-4l0.4-0.3l-0.3-0.6c-0.2-0.5-0.4-0.9-0.5-1.4
        c-0.2-0.5-0.3-0.9-0.4-1.4c-0.1-0.5-0.2-0.9-0.4-1.4c-0.1-0.5-0.2-0.9-0.3-1.4c-0.5-2.8-0.3-5.4,0.3-7.5c0.6-2.1,1.7-3.9,3.1-5.2
        c1.4-1.3,3.2-2.2,5.3-2.5C119.5,270.2,121.8,270.3,124.3,271z"/>
    </g>
    <path class="st3" d="M225.7,257.2c1.7,0.5,3.4,1.4,5.1,2.5c1.6,1.1,3.2,2.5,4.6,4c1.4,1.5,2.7,3.3,3.8,5.1c1.1,1.8,2,3.8,2.6,5.8
      l0.2,0.7l0.6,0.1c1.2,0.3,2.4,0.7,3.6,1.3c1.2,0.6,2.4,1.2,3.6,2c1.2,0.8,2.3,1.7,3.4,2.7c1.1,1,2.2,2.1,3.3,3.3l1,1.2l-0.2-1.4
      c-0.3-1.9-0.3-3.6,0-5.1c0.3-1.4,0.8-2.6,1.5-3.5c0.7-0.9,1.6-1.5,2.7-1.8c1.1-0.3,2.3-0.3,3.7,0.1c1.5,0.4,3.1,1.2,4.6,2.3
      c1.5,1.1,3,2.5,4.3,4.1c1.3,1.6,2.6,3.4,3.6,5.3c1,1.9,1.9,3.9,2.5,6c0.4,1.3,0.6,2.5,0.8,3.7c0.1,1.2,0.2,2.3,0.1,3.3
      c-0.1,1-0.3,2-0.6,2.8c-0.3,0.8-0.8,1.6-1.3,2.2l-0.3,0.3l0.5,0.7c0.7,0.9,1.4,1.8,2,2.8c0.6,1,1.2,2,1.7,3c0.5,1,1,2.1,1.4,3.2
      c0.4,1.1,0.8,2.2,1.1,3.3c0.7,2.6,1.1,5,1.2,7.2c0,2.2-0.3,4.2-0.9,5.9c-0.6,1.7-1.6,3.1-2.8,4c-1.3,0.9-2.8,1.4-4.7,1.3l-0.7-0.1
      l0.2,0.7c0.5,2,0.6,4,0.5,5.7c-0.1,1.8-0.4,3.4-1,4.7c-0.6,1.4-1.4,2.5-2.4,3.2c-1,0.8-2.3,1.2-3.7,1.3c-1.5,0-3.2-0.4-4.8-1.3
      c-1.6-0.9-3.2-2.1-4.7-3.7c-1.5-1.6-2.8-3.5-3.9-5.5c-1.1-2.1-2-4.3-2.6-6.7c-0.2-0.9-0.4-1.8-0.5-2.7c-0.1-0.9-0.2-1.7-0.2-2.6
      c0-0.8,0-1.6,0.1-2.4c0.1-0.8,0.3-1.5,0.5-2.2l0.4-1.3l-1.2-0.1c-0.3,0-0.7-0.1-1.1-0.1c-0.4-0.1-0.7-0.1-1.1-0.2
      c-0.4-0.1-0.7-0.2-1.1-0.3c-0.4-0.1-0.7-0.2-1.1-0.4l-0.6-0.2l0,0.7c0,2.3-0.3,4.4-0.8,6.2c-0.6,1.9-1.4,3.5-2.5,4.9
      c-1.1,1.4-2.5,2.4-4.1,3.2c-1.6,0.7-3.4,1.1-5.5,1c-2.1-0.1-4.3-0.6-6.5-1.6c-2.2-1-4.4-2.4-6.4-4.1c-2.1-1.7-4-3.8-5.7-6.2
      c-1.7-2.4-3.2-5-4.3-7.8l-0.2-0.6l-0.5-0.1c-3.1-0.9-6.2-2.4-9-4.3c-2.9-2-5.7-4.5-8.1-7.3c-2.4-2.9-4.5-6-6.2-9.4
      c-1.6-3.4-2.8-6.9-3.4-10.4c-0.7-3.9-0.5-7.5,0.3-10.6c0.8-3,2.2-5.5,4.1-7.4c1.9-1.9,4.2-3.1,6.9-3.7c2.6-0.6,5.6-0.5,8.8,0.3
      c0.6,0.2,1.3,0.4,1.9,0.6c0.6,0.2,1.3,0.5,1.9,0.7c0.6,0.3,1.3,0.6,1.9,0.9c0.6,0.3,1.3,0.7,1.9,1l0.9,0.5l-0.1-0.9
      c-0.2-2,0-3.8,0.4-5.3c0.5-1.5,1.2-2.7,2.2-3.6c1-0.9,2.2-1.5,3.6-1.7C222.5,256.6,224,256.7,225.7,257.2z"/>
  </g>
</g>
<g id="earth">
  <path d="M375,595.7c-1.4-12.7-4.3-25.2-8.6-37c-4.3-11.9-10.1-23.1-17.1-33.1c-7.1-10.2-15.6-19.3-25.4-26.7
    c-1.3-0.6-2.7-1.2-4-1.8c-1.3-0.6-2.7-1.1-4-1.6c-1.3-0.5-2.7-1-4-1.4c-1.4-0.4-2.7-0.8-4.1-1.2l-3.4-0.9l-9.3,4.4
    c-0.2-0.2-0.4-0.5-0.6-0.7c-0.7-0.8-6.8-5.7-6.8-5.7l-17.1,3.2c-0.7-0.4-4.5-2-5.3-2.4c-0.7-0.4-1.5-0.8-2.3-1.1
    c-0.8-0.4-1.5-0.7-2.3-1c-0.8-0.3-1.6-0.6-2.3-0.9c-0.8-0.8-1.6-1.5-2.3-2.2c-0.8-0.7-1.5-1.4-2.3-2c-0.8-0.6-1.5-1.2-2.3-1.8
    c-0.8-0.6-1.5-1.1-2.3-1.6c-0.8-0.5-1.6-1-2.4-1.5c-0.8-0.5-1.6-0.9-2.5-1.3c-0.8-0.4-1.7-0.7-2.5-1.1c-0.8-0.3-1.7-0.6-2.6-0.9
    l-0.2-0.1c-0.6-0.7-1.3-1.4-1.9-2.1c-0.6-0.6-1.3-1.2-1.9-1.8c-0.6-0.6-1.3-1.1-1.9-1.6c-0.6-0.5-1.3-0.9-1.9-1.4
    c-0.9-0.6-1.8-1.1-2.7-1.5c-0.9-0.4-1.8-0.8-2.7-1.1c-0.9-0.3-1.8-0.6-2.8-0.8c-0.9-0.2-1.9-0.3-2.8-0.4l-0.5,0l-0.3-0.6
    c-0.4-0.8-0.9-1.5-1.3-2.2c-0.5-0.7-1-1.3-1.5-1.9c-0.5-0.6-1-1.1-1.6-1.6c-0.6-0.5-1.1-0.9-1.7-1.3c-0.7-0.5-1.4-0.8-2.2-1.1
    c-0.7-0.2-1.5-0.4-2.2-0.4c-0.7,0-1.5,0-2.2,0.2c-0.8,0.2-1.5,0.4-2.2,0.8c-2.4,1.2-0.3-1.5-0.2-1.6c0.2-0.2-90.3,46.2-135,69.9
    c0,0-0.1,0-0.1,0.1c0,0-0.1,0-0.1,0.1c0,0-0.1,0-0.1,0.1c0,0-0.1,0-0.1,0.1c-0.3,0.2-0.6,0.4-0.9,0.6c0,0,0,0-0.1,0
    c-0.1,0.1-0.1,0.1-0.2,0.2c-0.1,0.1-0.3,0.2-0.4,0.3c-0.1,0-0.1,0.1-0.2,0.2c0,0-0.1,0.1-0.1,0.1c-0.1,0.1-0.1,0.1-0.2,0.2
    c-0.2,0.2-0.3,0.3-0.5,0.5c0,0.1-0.1,0.1-0.2,0.2c0,0.1-0.1,0.1-0.1,0.2c0,0.1-0.1,0.1-0.2,0.2c-0.1,0.1-0.2,0.3-0.2,0.4
    c-0.1,0.1-0.1,0.2-0.2,0.2c0,0,0,0.1-0.1,0.1c0,0.1-0.1,0.2-0.1,0.2c-0.1,0.1-0.1,0.2-0.2,0.3c0,0.1-0.1,0.2-0.1,0.2
    c0,0.1-0.1,0.1-0.1,0.2c0,0,0,0.1-0.1,0.1c0,0.1-0.1,0.1-0.1,0.2c-0.1,0.1-0.1,0.3-0.2,0.4c0,0.1-0.1,0.2-0.1,0.2c0,0,0,0.1,0,0.1
    c-0.1,0.3-0.2,0.5-0.2,0.8c-0.2,0.9-0.4,1.7-0.5,2.4c-0.1,0.7-0.1,1.3-0.1,1.8c0,0.5,0,0.9,0.1,1.3c0,0.4,0.1,0.6,0.2,0.8
    c-0.3,0.6-0.7,1.1-1,1.7c-0.3,0.6-0.6,1.2-0.8,1.8c-0.2,0.6-0.5,1.2-0.7,1.9c-0.2,0.7-0.4,1.4-0.6,2.1c-0.1,0.5-0.2,1.1-0.3,1.6
    c-0.1,0.5-0.2,1.1-0.3,1.7c-0.1,0.6-0.1,1.1-0.2,1.7c0,0.6-0.1,1.2-0.1,1.7c-0.3,0.6-0.6,1.3-0.8,1.9c-0.3,0.7-0.5,1.3-0.7,2
    c-0.2,0.7-0.4,1.4-0.7,2c-0.2,0.7-0.4,1.4-0.6,2.1c-0.2,0.7-0.3,1.4-0.5,2.1c-0.1,0.7-0.3,1.4-0.4,2.1c-0.1,0.7-0.2,1.4-0.3,2.1
    c-0.1,0.7-0.1,1.4-0.2,2.2c-0.3,0.8-0.6,1.6-0.9,2.4c-0.3,0.8-0.6,1.6-0.8,2.4c-0.2,0.5-0.3,1.1-0.5,1.6c0,0-3.4,10.9-2.9,18.7
    c0.5,7.4,1.7,15.3,3.6,19.5c-1.5,16.6-4.1,65.6,16.5,88.4c24.9,27.6,55.7,30.4,56,30.4l118.7,43.5c-12.3-4.5-23.7-13.4-33.8-25.9
    c-10.1-12.4,86.4,22.1,79.7,4c31,5.6-43-39-12-33.4c-0.6-0.1-1.2-0.2-1.8-0.3c-0.1,0-0.3-0.1-0.4-0.1c11.3,2.4,22.2,2,32.4-0.7
    c11.3-3,21.7-8.7,30.6-16.8c8.7-7.8,16.2-17.7,21.9-29.2c5.6-11.3,9.7-24.2,11.8-38.4C376.2,621.6,376.4,608.4,375,595.7z
     M274.4,718.9c-0.6-0.2-1.2-0.3-1.8-0.5c0.8,0.2,1.5,0.4,2.3,0.6C274.7,718.9,274.5,718.9,274.4,718.9z M276.2,719.3
    c-0.3-0.1-0.6-0.1-0.9-0.2c0.6,0.2,1.2,0.3,1.9,0.4C276.8,719.5,276.5,719.4,276.2,719.3z M284.8,717.7c0.1,0,0.3,0,0.4,0
    c0,0,0,0,0.1,0C285.1,717.7,284.9,717.7,284.8,717.7z M286.9,717.9c0.1,0,0.3,0,0.4,0c0,0,0.1,0,0.1,0
    C287.3,717.9,287.1,717.9,286.9,717.9z M291.7,718.1C291.7,718.1,291.7,718.1,291.7,718.1c0.2,0,0.2,0,0.3,0
    C291.9,718.2,291.8,718.1,291.7,718.1z M298.6,717.9c0.1,0,0.2,0,0.2,0c0,0,0.1,0,0.1,0C298.8,717.9,298.7,717.9,298.6,717.9z
     M300.7,717.7C300.8,717.7,300.8,717.7,300.7,717.7c0.1,0,0.2,0,0.2,0C300.9,717.7,300.8,717.7,300.7,717.7z M305,717.1
    C305,717.1,305,717.1,305,717.1c0.2,0,0.3-0.1,0.5-0.1C305.4,717,305.2,717,305,717.1z M307.7,716.5c0.1,0,0.1,0,0.2-0.1
    c0,0,0.1,0,0.1,0C308,716.4,307.9,716.5,307.7,716.5z M309.6,716c-0.1,0-0.3,0.1-0.4,0.1c0.3-0.1,0.7-0.2,1-0.3
    C310,715.9,309.8,716,309.6,716z M313.2,715C313.3,715,313.3,715,313.2,715c0.1,0,0.2-0.1,0.2-0.1C313.4,715,313.3,715,313.2,715z
     M313.6,714.9c0.1,0,0.2-0.1,0.3-0.1c0.1,0,0.2-0.1,0.3-0.1C314,714.7,313.8,714.8,313.6,714.9z M319.1,712.8
    C319.1,712.8,319.2,712.8,319.1,712.8C319.2,712.8,319.2,712.8,319.1,712.8C319.2,712.8,319.2,712.8,319.1,712.8z M319.5,712.6
    c0.1,0,0.1-0.1,0.2-0.1c0.1,0,0.2-0.1,0.3-0.1C319.9,712.5,319.7,712.6,319.5,712.6z M325.2,709.9c0,0,0.1,0,0.1-0.1
    c0.1,0,0.2-0.1,0.3-0.1C325.5,709.8,325.4,709.8,325.2,709.9z M330.7,706.6C330.7,706.6,330.7,706.6,330.7,706.6
    c0.1-0.1,0.2-0.1,0.2-0.2C330.9,706.5,330.8,706.6,330.7,706.6z M332.7,705.3c0.1-0.1,0.2-0.1,0.2-0.2c0,0,0,0,0,0
    C332.9,705.1,332.8,705.2,332.7,705.3z M337.7,701.4c0,0,0.1-0.1,0.1-0.1c0,0,0.1-0.1,0.1-0.1C337.9,701.2,337.8,701.3,337.7,701.4
    z M338.3,700.9C338.3,700.9,338.4,700.8,338.3,700.9c0.1-0.1,0.1-0.1,0.1-0.1C338.4,700.8,338.4,700.8,338.3,700.9z M339.6,699.8
    c-0.1,0.1-0.1,0.1-0.2,0.2c0.2-0.2,0.5-0.4,0.7-0.7C339.9,699.5,339.7,699.7,339.6,699.8z M342.4,697.1
    C342.5,697.1,342.5,697.1,342.4,697.1c0.2-0.2,0.2-0.2,0.3-0.3C342.6,697,342.5,697,342.4,697.1z M342.9,696.7
    c0.1-0.1,0.1-0.1,0.2-0.2c0,0,0.1-0.1,0.1-0.1C343.1,696.5,343,696.6,342.9,696.7z M346.8,692.5
    C346.8,692.5,346.9,692.5,346.8,692.5c0.1-0.2,0.2-0.2,0.3-0.3C347,692.3,346.9,692.4,346.8,692.5z M347.3,692
    c0.1-0.1,0.1-0.1,0.2-0.2c0,0,0.1-0.1,0.1-0.1C347.4,691.8,347.3,691.9,347.3,692z M350.9,687.5C351,687.5,351,687.5,350.9,687.5
    c0.1-0.1,0.1-0.1,0.1-0.2C351,687.4,351,687.5,350.9,687.5z M351.3,687c0-0.1,0.1-0.1,0.1-0.2c0,0,0.1-0.1,0.1-0.1
    C351.5,686.8,351.4,686.9,351.3,687z M354.8,682.1C354.8,682.1,354.8,682.1,354.8,682.1C354.8,682.1,354.8,682.1,354.8,682.1
    C354.8,682.1,354.8,682.1,354.8,682.1z M355.1,681.6C355.1,681.6,355.2,681.6,355.1,681.6c0.1-0.2,0.2-0.2,0.2-0.3
    C355.3,681.4,355.2,681.5,355.1,681.6z M359.9,673.5c0-0.1,0.1-0.2,0.1-0.3c0,0,0,0,0,0C360,673.3,360,673.4,359.9,673.5z
     M361,671.4C361,671.4,361,671.4,361,671.4c0.1-0.1,0.2-0.4,0.3-0.6C361.2,671,361.1,671.2,361,671.4z M362.9,667.4
    c0-0.1,0.1-0.2,0.1-0.2c0,0,0-0.1,0.1-0.1C363,667.1,363,667.2,362.9,667.4z M364.8,662.9c0-0.1,0.1-0.2,0.1-0.3
    c0.1-0.2,0.1-0.3,0.2-0.5C365,662.4,364.9,662.7,364.8,662.9z M367.1,656.6c0.1-0.4,0.2-0.7,0.4-1.1c0,0,0,0,0,0
    C367.4,655.9,367.3,656.2,367.1,656.6z M368.6,652.1c0.1-0.2,0.1-0.4,0.2-0.6c0-0.1,0.1-0.2,0.1-0.3
    C368.8,651.5,368.7,651.8,368.6,652.1z M369.9,647.4c0-0.1,0-0.1,0-0.2c0,0,0-0.1,0-0.1C369.9,647.3,369.9,647.4,369.9,647.4z
     M370,646.8c0-0.1,0-0.1,0-0.2c0-0.2,0.1-0.3,0.1-0.5C370.1,646.4,370.1,646.6,370,646.8z M371.1,642.3
    C371.1,642.3,371.1,642.3,371.1,642.3c0.1-0.4,0.2-0.7,0.2-1C371.2,641.6,371.1,642,371.1,642.3z"/>
  <path class="st4" d="M356.8,576c5.7,14.4,9.8,29.9,11.8,45.7c2,15.9,2.1,32.3-0.2,48.6c-2.3,16.7-6.9,31.9-13.4,45.3
    c-6.6,13.8-15.2,25.7-25.3,35.2c-10.5,9.9-22.7,17.2-36.1,21.1c-13.9,4.2-29.1,4.7-44.9,0.8c-16.4-4.1-31.8-12.6-45.4-24.7
    c-14-12.4-26-28.5-35.1-46.9c-9.3-18.7-15.5-39.7-18-61.4c-2.5-21.7-1.2-43.7,4.2-64.7c-0.8,15.7,0.9,31.5,4.8,46.6
    c3.9,15,9.9,29.3,17.6,42c7.6,12.5,16.9,23.5,27.3,32.2c10.2,8.6,21.5,15,33.5,18.8c13.5,4.3,26.6,4.8,38.7,2.3
    c11.7-2.5,22.4-7.8,31.7-15.4c9-7.4,16.7-17,22.7-28.3c5.8-11,10.1-23.8,12.3-37.9c1.9-12,2.2-24.2,1.2-36.1
    c-1-11.9-3.5-23.6-7.1-34.9L356.8,576z"/>
  <path class="st5" d="M287.4,492.5c0.6,0.7,5.8,4.6,6.4,5.3c0.6,0.7,1.2,1.5,1.8,2.2c0.6,0.8,1.2,1.6,1.8,2.4
    c0.6,0.8,1.2,1.6,1.7,2.5c3.5,5.2,6.5,10.8,9,16.7c2.5,5.8,4.4,12,5.7,18.2c1.4,6.2,2.2,12.6,2.4,19c0.2,6.4-0.2,12.8-1.2,19.1
    c-1.6,9.7-4.5,18.4-8.6,26c-4.1,7.6-9.3,14.1-15.4,19c-6.2,5-13.3,8.4-20.9,9.9c-7.8,1.5-16.1,1-24.6-1.9
    c-5.6-1.9-11.1-4.9-16.2-8.6c-5.1-3.8-9.9-8.5-14.2-14c-4.3-5.5-8.1-11.7-11.2-18.4c-3.1-6.8-5.6-14.1-7.2-21.8
    c-0.3-1.2-0.5-2.5-0.7-3.7c-0.2-1.2-0.4-2.5-0.6-3.7c-0.2-1.2-0.3-2.4-0.5-3.6c-0.1-1.2-0.2-2.4-0.3-3.6c0.8-1.6,1.7-3.3,2.6-4.9
    c0.9-1.6,1.8-3.2,2.7-4.8c0.9-1.6,1.9-3.1,2.9-4.6c1-1.5,2-3,3-4.4c0.9,1.9,1.8,3.7,2.8,5.5c1,1.8,2.1,3.5,3.2,5.1
    c1.1,1.6,2.3,3.2,3.6,4.7c1.3,1.5,2.6,2.9,3.9,4.2c1,1,2.1,1.9,3.2,2.8c1.1,0.9,2.2,1.7,3.3,2.4c1.1,0.7,2.3,1.4,3.4,2.1
    c1.2,0.6,2.3,1.2,3.5,1.7c5.6,2.4,11.2,3.2,16.5,2.7c5.2-0.5,10-2.3,14.3-5.2c4.2-2.9,7.9-6.8,10.9-11.6c2.9-4.8,5-10.4,6.2-16.8
    c0.2-1.3,0.4-2.7,0.6-4c0.2-1.3,0.3-2.7,0.3-4.1c0.1-1.4,0.1-2.8,0.1-4.1c0-1.4-0.1-2.8-0.2-4.2c-0.1-1.8-0.4-3.7-0.7-5.5
    c-0.3-1.8-0.7-3.7-1.1-5.5c-0.5-1.8-1-3.6-1.6-5.4c-0.6-1.8-1.3-3.5-2-5.2C277.8,494.3,286.2,492.3,287.4,492.5z"/>
  <path class="st6" d="M323.9,501.9c9.5,7.2,17.8,16,24.7,26c6.8,9.8,12.4,20.8,16.6,32.4c4.2,11.5,7,23.8,8.4,36.3
    c1.3,12.5,1.2,25.4-0.7,38.2c-2.1,13.9-6.1,26.6-11.6,37.6c-5.6,11.3-12.9,20.9-21.5,28.5c-8.8,7.8-18.9,13.4-29.9,16.3
    c-11.4,2.9-23.7,2.9-36.5-0.7c-12.2-3.5-23.7-10-33.9-19c-10.5-9.2-19.6-20.8-26.8-34.1c-7.3-13.5-12.7-28.7-15.5-44.7
    c-2.9-16-3.3-32.6-0.9-49c0.5-1.5,1.1-3,1.6-4.5c0.6-1.5,1.1-3,1.7-4.4c0.6-1.4,1.2-2.9,1.9-4.3c0.6-1.4,1.3-2.8,2-4.1
    c0.1,0.9,0.2,1.8,0.3,2.7c0.1,0.9,0.3,1.8,0.4,2.7c0.1,0.9,0.3,1.8,0.5,2.7c0.2,0.9,0.4,1.8,0.5,2.7c1.7,8.2,4.4,16.1,7.8,23.4
    c3.4,7.3,7.5,14.1,12.1,20.1c4.6,6,9.8,11.2,15.4,15.6c5.5,4.3,11.4,7.7,17.6,10.1c9.2,3.6,18.3,4.6,26.7,3.5
    c8.2-1.1,15.9-4.2,22.6-9.1c6.6-4.7,12.3-11.1,16.7-18.8c4.4-7.6,7.6-16.5,9.3-26.5c1.1-6.5,1.6-13.1,1.4-19.8
    c-0.2-6.7-1-13.4-2.5-19.9c-1.4-6.6-3.5-13.1-6.1-19.4c-2.6-6.3-5.8-12.3-9.6-18c-0.4-0.6-0.9-1.3-1.3-1.9
    c-0.4-0.6-0.9-1.2-1.3-1.8c-0.4-0.6-0.9-1.2-1.3-1.8c-0.4-0.6-0.9-1.2-1.3-1.7c1,0.3,2.1,0.7,3.1,1c1,0.4,2.1,0.8,3.1,1.2
    c1,0.4,2.1,0.8,3.1,1.3C321.8,501,322.9,501.4,323.9,501.9z"/>
  <path class="st7" d="M213.5,457.1c0.6,0.4,1.2,0.8,1.7,1.3c0.6,0.5,1.1,1,1.6,1.6c0.5,0.6,1,1.2,1.5,1.9c0.5,0.7,0.9,1.4,1.3,2.2
    l0.3,0.6l0.5,0c0.9,0.1,1.9,0.2,2.8,0.4c0.9,0.2,1.9,0.5,2.8,0.8c0.9,0.3,1.8,0.7,2.7,1.1c0.9,0.4,1.8,0.9,2.7,1.5
    c0.6,0.4,1.3,0.9,1.9,1.3c0.6,0.5,1.3,1,1.9,1.5c0.6,0.5,1.2,1.1,1.8,1.7c0.6,0.6,1.2,1.3,1.8,1.9l0.4,0.3c0.9,0.3,1.7,0.5,2.6,0.9
    c0.8,0.3,1.7,0.7,2.5,1.1c0.8,0.4,1.7,0.8,2.5,1.3c0.8,0.5,1.6,0.9,2.4,1.5c0.8,0.5,1.6,1,2.3,1.6c0.8,0.6,1.5,1.2,2.3,1.8
    c0.7,0.6,1.5,1.3,2.2,1.9c0.7,0.7,1.4,1.4,2.2,2.1c0.9,0.3,1.7,0.7,2.5,1c0.8,0.3,1.6,0.7,2.4,1.1c0.8,0.4,1.5,0.8,2.3,1.2
    c0.7,0.4,4.3,2.5,5,2.9c-0.3-0.1-3.5-1.9-3.8-2c-0.3-0.1-0.7-0.2-1-0.3c-0.3-0.1-0.7-0.2-1-0.3c-0.3-0.1-0.7-0.2-1-0.2
    c-1.2-0.2-2.3-0.5-3.5-0.6c-1.2-0.2-2.4-0.3-3.6-0.4c-1.2-0.1-2.4-0.1-3.6-0.1c-1.2,0-2.4,0.1-3.7,0.1c-5,0.4-10,1.5-14.8,3.4
    c-5,1.9-9.8,4.6-14.5,8c-4.8,3.5-9.4,7.7-13.8,12.8c-4.5,5.1-8.6,10.9-12.5,17.5c-1,1.6-1.9,3.3-2.8,5.1c-0.9,1.7-1.8,3.5-2.7,5.3
    c-0.9,1.8-1.7,3.6-2.5,5.5c-0.8,1.9-1.6,3.7-2.3,5.7c-0.2,0.6-0.4,1.1-0.7,1.7c-0.2,0.6-0.4,1.1-0.6,1.7c-0.2,0.6-0.4,1.2-0.6,1.7
    c-0.2,0.6-0.4,1.2-0.6,1.8c0.3-1.4,0.6-2.8,0.9-4.2c0.3-1.4,0.7-2.8,1-4.2c0.4-1.4,0.7-2.8,1.1-4.1c0.4-1.4,0.8-2.7,1.2-4
    c0.1-1.6,0.2-3.2,0.3-4.8c0.1-1.6,0.3-3.1,0.4-4.6c0.2-1.5,0.3-2.9,0.5-4.4c0.2-1.4,0.4-2.8,0.7-4.2c0.3-1.4,0.5-2.8,0.9-4.2
    c0.3-1.4,0.6-2.8,1-4.1c0.4-1.4,0.8-2.7,1.2-4c0.4-1.3,0.8-2.6,1.3-3.9c0-1.4,0.1-2.7,0.1-3.9c0.1-1.3,0.1-2.5,0.2-3.6
    c0.1-1.2,0.2-2.3,0.4-3.4c0.1-1.1,0.3-2.2,0.5-3.2c0.3-1.5,0.6-2.9,0.9-4.2c0.3-1.3,0.7-2.6,1.1-3.8c0.4-1.2,0.8-2.4,1.3-3.5
    c0.5-1.1,1-2.2,1.6-3.3l0.4-0.8l-0.4-1c0,0-0.1-0.2-0.2-0.6c-0.1-0.4-0.2-1-0.3-1.9c-0.1-0.9-0.1-2.1,0-3.5
    c0.1-1.5,0.3-3.2,0.7-5.3c0.2-1.1,0.5-2.2,0.9-3.2c0.4-1,0.9-2,1.4-2.8c0.5-0.9,1.2-1.7,1.9-2.4c0.7-0.7,1.4-1.3,2.2-1.8
    c0.8-0.5,1.6-0.9,2.4-1.1c0.8-0.2,1.6-0.4,2.4-0.4c0.8,0,1.6,0.1,2.4,0.4C211.9,456.2,212.7,456.6,213.5,457.1z"/>
  <path class="st8" d="M286.1,493.1c0.7,1.7,1.4,3.3,2,5.1c0.6,1.7,1.1,3.5,1.6,5.3c0.5,1.8,0.8,3.6,1.1,5.4c0.3,1.8,0.5,3.6,0.7,5.4
    c0.1,1.3,0.2,2.6,0.2,4c0,1.3,0,2.6,0,3.9c-0.1,1.3-0.1,2.6-0.3,3.9c-0.1,1.3-0.3,2.5-0.5,3.8c-1.1,6.1-3,11.5-5.7,16.1
    c-2.7,4.7-6.1,8.5-9.9,11.4c-3.9,2.9-8.4,4.8-13.1,5.4c-4.8,0.7-9.9,0.1-15-1.9c-1.1-0.4-2.1-0.9-3.2-1.4c-1-0.5-2.1-1.1-3.1-1.8
    c-1-0.7-2-1.4-3-2.1c-1-0.8-2-1.6-2.9-2.5c-1.3-1.2-2.6-2.5-3.8-3.9c-1.2-1.4-2.4-2.9-3.4-4.5c-1.1-1.6-2.1-3.2-3-5
    c-0.9-1.7-1.8-3.5-2.6-5.4c4.5-6.3,9.3-12,14.4-16.9c5-4.9,10.3-9,15.8-12.5c5.4-3.4,11-6.1,16.7-8.1
    C274.7,494.9,280.4,493.6,286.1,493.1z"/>
</g>
<g id="Sun">
  <path class="st9" d="M366.9,134.9c-2.1,6-3.2,12.5-3.4,19.3c-0.2,6.6,0.4,13.5,1.8,20.4c1.3,6.8,3.4,13.6,6.2,20.2
    c2.8,6.6,6.2,13,10.4,19c4.3,6.1,8.9,11.2,13.8,15.3c5,4.2,10.3,7.4,15.6,9.4c5.5,2,11.1,2.8,16.3,1.9c5.5-0.9,10.7-3.5,15.2-8.1
    c4.7-4.8,8-11.4,10-19.1c2-8,2.5-17.2,1.3-26.9c-1.1-9.9-3.9-20-8.1-29.7c-4.2-9.6-9.8-18.5-16.6-26c-6.6-7.2-13.5-12.3-20.3-15.2
    c-6.5-2.8-12.8-3.7-18.5-2.7c-5.4,0.9-10.3,3.4-14.4,7.3C372.2,123.7,369.1,128.7,366.9,134.9z"/>
  <path d="M456.2,259.2c0.2-1.4,0.2-2.9-0.1-4.5c-0.3-1.6-0.8-3.3-1.6-5c-0.8-1.7-1.8-3.4-3-4.9c-0.1-0.1-0.2-0.3-0.3-0.4
    c-0.1-0.1-0.2-0.2-0.3-0.4c-0.1-0.1-0.2-0.2-0.3-0.4c-0.1-0.1-0.2-0.2-0.3-0.4l28.1-30.5c-0.4-0.6-0.9-1.1-1.3-1.6
    c-0.2-0.2-0.4-0.4-0.5-0.6l-51.1,53c0.6-0.6,1-1.3,1.3-2.2c0.3-0.9,0.5-1.9,0.6-3c0.1-1.1,0-2.3-0.2-3.6c-0.2-1.3-0.6-2.6-1-4
    l46.3-44c0,0,0,0,0,0c-9.7,9.3-19.5,18.5-29.2,27.8c0.1-0.1,0.1-0.1,0.2-0.2c0.1-0.1,0.1-0.1,0.2-0.2c0.1-0.1,0.1-0.1,0.2-0.2
    c0.1-0.1,0.1-0.1,0.2-0.2c4.8-4.9,8.3-11.6,10.3-19.6c0.3-1.2,0.6-2.4,0.8-3.6c-6.8,5.7-13.6,11.4-20.4,17.1
    c0.2-0.2,0.5-0.4,0.7-0.6c0.2-0.2,0.4-0.4,0.7-0.6c0.2-0.2,0.4-0.4,0.7-0.7c0.2-0.2,0.4-0.5,0.6-0.7c3.9-4.3,6.7-10.1,8.2-16.8
    c1.6-7,1.9-14.8,0.9-23.1c-0.1-0.8-0.2-1.5-0.3-2.3c-11.2,6.1-23.1,11.9-34.3,18c0.3-0.2-0.2-1-0.2-1c0.3-0.2,0.6-0.4,1-0.6
    c0.3-0.2,0.6-0.5,0.9-0.7c0.3-0.3,0.6-0.6,0.8-0.9c0.3-0.3,0.5-0.7,0.8-1c0.9-1.4,1.6-3,2.1-4.9c0.5-1.8,0.7-3.9,0.7-6
    c0-2.1-0.3-4.4-0.8-6.6c-0.5-2.3-1.2-4.5-2.2-6.7c0.4-0.1,0.7-0.3,1.1-0.4l0,0c-0.4,0.1-0.7,0.3-1.1,0.4c-0.2-0.4-0.3-0.7-0.5-1.1
    c-0.2-0.4-0.3-0.7-0.5-1.1c-0.2-0.3-0.4-0.7-0.5-1c-0.2-0.3-0.4-0.7-0.6-1c-0.1-0.1-0.2-0.3-0.2-0.4c-0.1-0.1-0.2-0.3-0.2-0.4
    c-0.1-0.1-0.2-0.3-0.2-0.4c-0.1-0.1-0.2-0.3-0.2-0.4c-0.1-0.2-0.3-0.4-0.4-0.6c-0.1-0.2-0.3-0.4-0.4-0.6c-0.1-0.2-0.3-0.4-0.4-0.6
    c-0.2-0.2-0.3-0.4-0.5-0.6c0,0,0,0,0,0c0,0,0,0,0,0c0,0,0,0,0,0c0,0,0,0,0,0c-0.5-0.6-1-1.1-1.5-1.7c-0.5-0.5-1-1-1.5-1.4
    c-0.5-0.4-1-0.8-1.5-1.2c-0.5-0.4-1-0.7-1.5-1c-0.8-0.4-1.5-0.8-2.2-1.1c-0.7-0.3-1.5-0.5-2.2-0.6c-0.7-0.1-1.4-0.2-2.1-0.2
    c-0.7,0-1.4,0.1-2,0.2c0,0,0.8-1.2-0.4-0.9l37.5-9.2c-2.2-3.4-4.6-6.6-7.2-9.5c-2.6-2.9-5.3-5.4-8-7.6c-2.7-2.1-5.3-3.8-8-5.2
    c-2.6-1.3-5.2-2.3-7.8-2.9c-2.5-0.6-4.9-0.9-7.3-0.8c8.9-0.2,17.8-0.5,26.7-0.7c-2.7-2.1-5.5-3.9-8.2-5.3c-2.6-1.4-5.1-2.4-7.7-3.2
    l-30.3-0.8c-0.2-0.8-0.5-1.5-0.8-2.2c-0.3-0.7-0.6-1.4-1-2c-0.3-0.6-0.7-1.3-1.1-1.8c-0.4-0.6-0.8-1.1-1.2-1.6
    c-0.5-0.6-1-1.1-1.5-1.5c-0.5-0.4-1-0.8-1.5-1.1c-0.5-0.3-1-0.5-1.5-0.7c-0.5-0.2-1-0.3-1.4-0.3c14.1,1.2,28.2,2.3,42.3,3.5
    c0.5-2.1,0.8-4.3,0.8-6.5c0-2.3-0.2-4.7-0.7-7c-0.5-2.3-1.2-4.5-2.2-6.5c-1-2-2.1-3.7-3.5-5.2c-0.4-0.5-0.9-0.9-1.3-1.2
    c-0.5-0.4-0.9-0.7-1.4-1c-0.5-0.3-0.9-0.5-1.4-0.7c-0.5-0.2-0.9-0.4-1.4-0.5c40.5,9.8,80.9,19.7,121.4,29.5c0.2,0,0.4,0.1,0.6,0.2
    c0.2,0.1,0.4,0.2,0.6,0.2c0.2,0.1,0.4,0.2,0.5,0.3c0.2,0.1,0.3,0.2,0.5,0.4c0.5,0.4,0.9,1,1.2,1.5c0.3,0.6,0.5,1.2,0.6,1.8
    c0.1,0.4,0.1,0.8,0.1,1.2c3.9,0.6,7.9,1.1,11.8,1.7c0.3,0,0.5,0.1,0.8,0.2c0.2,0.1,0.5,0.2,0.7,0.3c0.2,0.1,0.5,0.2,0.7,0.4
    c0.2,0.1,0.4,0.3,0.7,0.5c0.6,0.5,1.1,1.1,1.4,1.8c0.3,0.7,0.5,1.4,0.5,2.2c0,0.8-0.1,1.5-0.4,2.2c-0.3,0.7-0.7,1.4-1.2,2
    c-0.1,0.1-0.2,0.2-0.3,0.3c-0.1,0.1-0.2,0.2-0.3,0.3c-0.1,0.1-0.2,0.2-0.3,0.2c-0.1,0.1-0.2,0.1-0.3,0.2l-3.6,0.6
    c0.5,0.7,1.1,1.4,1.5,2.2c2.6-0.7,5.3-1.3,7.9-2c0.5-0.1,1.1-0.2,1.6-0.2c0.6,0,1.1,0,1.7,0.2c0.5,0.1,1.1,0.3,1.6,0.5
    c0.5,0.2,1,0.6,1.4,0.9c0.7,0.6,1.3,1.3,1.6,2.1c0.4,0.8,0.6,1.7,0.6,2.5c0,0.9-0.1,1.7-0.5,2.6c-0.3,0.8-0.8,1.6-1.5,2.3
    c0,0-0.1,0.1-0.1,0.1c0,0-0.1,0.1-0.1,0.1c0,0-0.1,0.1-0.1,0.1c0,0-0.1,0-0.1,0.1c-2.4,2.1-4.7,4.2-7.1,6.2c0.2,0,0.3,0.1,0.5,0.1
    c0.3,0.1,0.6,0.2,0.9,0.3c0.3,0.1,0.6,0.3,0.8,0.5c0.3,0.2,0.5,0.4,0.8,0.6c0.6,0.5,1,1.1,1.3,1.7c0.3,0.6,0.5,1.3,0.6,1.9
    c0.1,0.7,0,1.3-0.1,2c-0.2,0.6-0.4,1.3-0.8,1.8c-20.7,29.2-41.5,58.4-62.2,87.6c1.1-1.6,1.8-3.4,2.2-5.5c0.4-2.1,0.3-4.3-0.1-6.7
    c0,0,0,0,0-0.1c-9.7,12.6-19.4,25.1-29,37.7C455.5,261.7,456,260.5,456.2,259.2z"/>
  <path class="st10" d="M388.8,163.1c-1,2-1.5,4.3-1.7,6.8c-0.2,2.4-0.1,5.1,0.4,7.7c0.5,2.6,1.3,5.3,2.3,7.8c1.1,2.6,2.5,5,4.1,7.2
    c1.7,2.2,3.5,4.1,5.4,5.4c1.9,1.4,3.8,2.3,5.7,2.7c1.9,0.4,3.8,0.3,5.5-0.3c1.7-0.7,3.3-1.9,4.5-3.7c1.3-1.9,2.1-4.2,2.5-6.8
    c0.4-2.6,0.4-5.5-0.1-8.5c-0.4-3-1.3-6-2.6-8.9c-1.3-2.9-2.9-5.7-4.8-8.1c-1.9-2.4-4-4.2-6.1-5.4c-2.1-1.2-4.1-1.8-6.1-1.9
    c-1.9-0.1-3.7,0.4-5.2,1.4C391.1,159.6,389.8,161.1,388.8,163.1z"/>
  <path class="st11" d="M431.3,229.8c-2.2,1.3-4.5,2.2-7,2.7c-4.5,0.9-9.3,0.5-14.3-1.1c-4.7-1.6-9.3-4.2-13.7-7.9
    c-4.4-3.6-8.5-8.1-12.2-13.3c-3.6-5.1-6.7-10.7-9.2-16.7c-2.4-5.8-4.2-11.7-5.4-17.8c-1.2-6.1-1.7-12.2-1.5-17.9
    c0.3-6.2,1.3-11.8,3.2-16.8c2-5.3,4.9-9.6,8.4-12.8c1.2-1,2.4-1.9,3.7-2.7c2.8-1.7,5.9-2.7,9.2-3.1c5.1-0.6,10.5,0.4,16.1,3
    c6,2.8,11.7,7.3,17,13.3c5.5,6.2,10.1,13.5,13.7,21.8c3.4,7.9,5.8,16.4,6.8,24.7c1,8.2,0.7,15.8-0.8,22.7
    c-1.5,6.8-4.3,12.5-8.1,16.8C435.5,226.8,433.5,228.5,431.3,229.8L431.3,229.8z M390.5,149.5c-0.3,0.2-0.6,0.4-0.9,0.6
    c-2.1,1.5-3.8,3.7-5,6.5c-1.2,2.7-2,6-2.2,9.5c-0.2,3.4,0,7,0.7,10.7c0.7,3.7,1.8,7.4,3.3,10.9c1.5,3.7,3.5,7.1,5.7,10.1
    c2.3,3.1,4.8,5.7,7.4,7.7c2.6,2,5.3,3.3,7.9,4c2.7,0.7,5.2,0.7,7.5-0.1c0.8-0.3,1.6-0.6,2.4-1.1c1.5-0.9,2.8-2.1,4-3.7
    c1.8-2.5,3.1-5.7,3.8-9.4c0.7-3.8,0.7-7.9,0.1-12.3c-0.6-4.5-1.9-8.9-3.8-13.2c-1.9-4.4-4.3-8.4-7.2-11.9c-2.8-3.3-5.8-5.9-9-7.7
    c-2.9-1.6-5.8-2.4-8.5-2.4C394.4,147.9,392.4,148.5,390.5,149.5L390.5,149.5z"/>
  <path class="st12" d="M452.8,263.9c-0.9,0.5-1.8,0.8-2.9,0.8c-1.3,0.1-2.7-0.2-4.1-0.8c-1.4-0.6-2.7-1.4-4-2.5
    c-1.3-1.1-2.6-2.4-3.7-3.9c-0.4-0.5-0.8-1.1-1.1-1.7c-0.4-0.6-0.7-1.2-1-1.7c-0.3-0.6-0.6-1.2-0.8-1.8c-0.2-0.6-0.4-1.2-0.6-1.8
    l0-0.2c-0.7,0.1-1.5,0.2-2.2,0.3c-0.8,0.1-1.6,0.1-2.4,0.2c-0.8,0-1.6,0-2.4,0c-0.5,0-1,0-1.5-0.1c0.4,1.2,0.7,2.3,1,3.4
    c0.2,1.3,0.4,2.6,0.3,3.7c0,1.2-0.2,2.3-0.6,3.2c-0.4,1-0.9,1.8-1.6,2.5c-0.3,0.3-0.6,0.5-1,0.8c-0.8,0.5-1.6,0.7-2.6,0.8
    c-1.3,0.1-2.6-0.2-4.1-0.9c-1.4-0.6-2.7-1.5-4-2.7c-1.3-1.2-2.6-2.6-3.7-4.2c-0.8-1.1-1.4-2.2-2-3.4c-0.6-1.2-1.1-2.3-1.5-3.5
    c-0.4-1.2-0.7-2.4-0.9-3.5c-0.2-1.2-0.3-2.3-0.2-3.3l0-0.1l-0.1,0c-0.6-0.4-1.2-0.8-1.8-1.2c-0.6-0.4-1.2-0.8-1.8-1.2
    c-0.6-0.4-1.2-0.9-1.8-1.3c-0.2-0.2-0.5-0.4-0.7-0.5c0,0.2,0,0.5,0,0.7c0,0.7-0.1,1.3-0.2,1.8c-0.1,0.6-0.3,1.1-0.5,1.6
    c-0.2,0.5-0.5,1-0.8,1.4c-0.4,0.6-0.9,1-1.5,1.3l0,0c-0.5,0.3-1.1,0.5-1.7,0.6c-1.2,0.2-2.4,0-3.7-0.6c-1.2-0.5-2.5-1.4-3.7-2.5
    c-1.2-1.1-2.4-2.5-3.5-4.1c-1.1-1.6-2-3.3-2.7-5c-0.7-1.7-1.2-3.4-1.6-5.1c-0.3-1.7-0.5-3.3-0.3-4.8c0.1-1.6,0.5-2.9,1.1-4
    c0.1-0.1,0.1-0.2,0.2-0.4c0.1-0.1,0.2-0.2,0.2-0.3c0.1-0.1,0.2-0.2,0.3-0.3c0,0,0,0,0,0l-0.1-0.2c-0.7-1-1.5-2.1-2.1-3.2
    c-0.7-1.1-1.4-2.2-2-3.3c-0.7-1.1-1.3-2.2-1.9-3.4c-0.5-0.9-1-1.9-1.5-2.9c-0.2,0.2-0.4,0.3-0.6,0.4c-0.4,0.2-0.8,0.4-1.2,0.5
    c-0.9,0.2-1.9,0.1-2.9-0.3c-1-0.4-1.9-1-2.9-1.8c-0.9-0.8-1.8-1.9-2.7-3.1c-0.9-1.3-1.7-2.8-2.3-4.3c-0.6-1.5-1.1-3.1-1.4-4.6
    c-0.3-1.6-0.5-3.1-0.4-4.5c0-1.5,0.3-2.8,0.7-3.9c0.2-0.6,0.5-1.1,0.9-1.6c0.4-0.5,0.8-0.8,1.2-1.1l0.1-0.1
    c0.4-0.3,0.9-0.4,1.4-0.5c0.2,0,0.4-0.1,0.7-0.1c-0.3-1.1-0.6-2.2-0.8-3.4c-0.3-1.3-0.6-2.7-0.8-4c-0.3-1.3-0.5-2.7-0.7-4
    c-0.2-1.3-0.4-2.6-0.5-3.9c-0.5,0-1,0-1.5-0.1c-0.6-0.2-1.3-0.4-1.9-0.8c-0.6-0.4-1.2-0.9-1.8-1.4c-0.6-0.6-1.1-1.2-1.7-2
    c-0.9-1.3-1.7-2.7-2.4-4.3c-0.6-1.5-1.2-3.2-1.5-4.8c-0.4-1.7-0.5-3.3-0.5-4.9c0-1.7,0.2-3.2,0.6-4.5c0.4-1.4,1.1-2.5,1.9-3.3
    c0.3-0.3,0.6-0.5,1-0.7c0.6-0.4,1.3-0.6,2-0.6c1.1-0.1,2.2,0.3,3.4,1c1,0.6,1.9,1.4,2.8,2.5c0.1-0.6,0.2-1.2,0.3-1.8
    c0.2-1.1,0.4-2.2,0.7-3.2c0.2-1.1,0.5-2.1,0.8-3.1c0.3-1,0.6-2.1,1-3.1l0.1-0.3l-0.1,0c-0.1-0.1-0.3-0.3-0.4-0.4
    c-0.1-0.1-0.3-0.3-0.4-0.4c-0.1-0.1-0.3-0.3-0.4-0.4c-0.1-0.2-0.3-0.3-0.4-0.5c-1-1.3-2-2.9-2.7-4.7c-0.7-1.7-1.3-3.6-1.7-5.5
    c-0.4-1.9-0.6-3.8-0.5-5.7c0-2,0.3-3.8,0.8-5.4c0.5-1.7,1.2-3.1,2.1-4.2c0.5-0.6,1.1-1.1,1.7-1.5c0.5-0.3,1-0.5,1.6-0.6
    c1.3-0.3,2.6-0.1,3.9,0.4c1.3,0.6,2.6,1.6,3.8,3c0.4,0.5,0.9,1.1,1.3,1.7c0.4,0.6,0.8,1.3,1.1,2c0.3,0.7,0.7,1.4,1,2.2
    c0.2,0.6,0.4,1.2,0.6,1.8c0.6-0.6,1.3-1.1,1.9-1.7c0.9-0.7,1.9-1.4,2.8-2c0.3-0.2,0.6-0.4,0.9-0.6c0.7-0.4,1.4-0.8,2.1-1.1
    c1-0.5,2-0.9,3-1.3l-0.1-0.1c-0.7-1.5-1.3-3.2-1.8-5c-0.4-1.7-0.7-3.5-0.8-5.3c-0.1-1.8-0.1-3.6,0.1-5.4c0.2-1.8,0.6-3.5,1.2-5.1
    c0.7-2.1,1.8-3.9,3-5.3c0.8-0.9,1.6-1.6,2.5-2.1c0.6-0.3,1.2-0.6,1.8-0.8c1.6-0.5,3.3-0.5,5,0c1.7,0.5,3.4,1.6,4.9,3.2
    c1.3,1.4,2.5,3.1,3.4,5.2c0.9,1.9,1.6,4.1,2.1,6.4c0.4,2.3,0.6,4.6,0.6,6.8c-0.1,2.3-0.4,4.5-1,6.5l-0.1,0.2
    c1.4,0.4,2.9,0.8,4.3,1.3c1.5,0.5,3,1.2,4.4,1.8c1.5,0.7,3,1.5,4.5,2.4c1.4,0.8,2.7,1.7,4.1,2.6c0.1-0.3,0.2-0.7,0.3-1
    c0.1-0.5,0.3-0.9,0.4-1.3c0.2-0.4,0.3-0.9,0.5-1.3c0.2-0.4,0.4-0.8,0.6-1.2c1.1-2.1,2.5-3.9,4.2-5.2c0.5-0.4,1-0.7,1.5-1
    c1.3-0.8,2.6-1.3,4-1.5c2.1-0.4,4.1-0.2,6.2,0.5c2.1,0.7,4.1,2,5.9,3.8c1.8,1.8,3.3,4,4.4,6.5c1.1,2.4,1.8,5,2.1,7.8
    c0.3,2.7,0.2,5.4-0.3,7.9c-0.5,2.6-1.5,5-2.8,7c-0.2,0.4-0.5,0.8-0.8,1.1c-0.3,0.4-0.6,0.7-0.9,1c-0.3,0.3-0.6,0.6-0.9,0.9
    c-0.3,0.3-0.6,0.6-1,0.8l0,0l0.1,0.2c0.7,1.1,1.4,2.3,2.1,3.4c0.7,1.1,1.4,2.3,2,3.5c0.7,1.2,1.3,2.4,1.9,3.6
    c0.6,1.2,1.2,2.4,1.7,3.6c0.1-0.1,0.1-0.2,0.2-0.3c0.1-0.2,0.2-0.4,0.3-0.6c0.1-0.2,0.2-0.4,0.4-0.6c0.1-0.2,0.2-0.4,0.4-0.5
    c1.4-2,3.2-3.6,5.2-4.8c0.3-0.1,0.5-0.3,0.8-0.4c2.3-1.2,4.9-1.8,7.6-1.9c2.8,0,5.5,0.5,8.2,1.7c2.8,1.2,5.5,3.1,7.8,5.4
    c2.4,2.4,4.3,5.2,5.7,8.3c1.4,3,2.2,6.2,2.4,9.4c0.2,3.2-0.1,6.3-1,9.1c-0.9,2.9-2.4,5.4-4.4,7.5c-1.1,1.1-2.3,2.1-3.6,2.9
    c-0.6,0.3-1.1,0.6-1.7,0.9c-1.9,0.8-4,1.3-6.1,1.4c-2.1,0.1-4.2-0.2-6.3-0.8c-2-0.6-3.9-1.5-5.7-2.7c0.2,1.5,0.4,2.9,0.5,4.4
    c0.1,1.6,0.2,3.2,0.3,4.7c0.1,1.5,0.1,3.1,0.1,4.6c0,1.5-0.1,3-0.1,4.5l0,0.2l0.2,0.1c1,0.3,1.9,0.7,2.9,1.2c0.9,0.5,1.9,1,2.8,1.6
    c0.9,0.6,1.8,1.3,2.6,2.1c0.8,0.8,1.7,1.6,2.4,2.5c1.9,2.2,3.4,4.6,4.5,7.1c1.1,2.5,1.8,5,2,7.5c0.2,2.5,0,4.8-0.7,6.8
    c-0.7,2.1-1.9,3.9-3.5,5.2c-0.4,0.4-0.9,0.7-1.4,1c-1.1,0.7-2.4,1.1-3.7,1.3c-1.8,0.3-3.7,0.2-5.7-0.3c-1.9-0.5-3.9-1.3-5.8-2.4
    c-1.8-1.1-3.6-2.5-5.2-4.2c-0.4,0.6-0.8,1.3-1.2,1.9c-0.5,0.7-1.1,1.4-1.6,2.1c-0.5,0.7-1.1,1.3-1.7,2c-0.6,0.6-1.2,1.2-1.8,1.8
    c-0.1,0.1-0.3,0.2-0.4,0.4c-0.1,0.1-0.3,0.2-0.4,0.4c-0.1,0.1-0.6,0.5-0.7,0.6l0.1,0.1c0.2,0.2,0.3,0.3,0.5,0.5
    c0.2,0.2,0.3,0.3,0.5,0.5c0.2,0.2,0.3,0.4,0.5,0.5c0.1,0.2,0.3,0.4,0.4,0.5c1.2,1.6,2.2,3.2,2.9,5c0.7,1.7,1.2,3.4,1.4,5
    c0.2,1.7,0.1,3.2-0.3,4.5c-0.4,1.4-1.1,2.6-2.1,3.4C453.2,263.6,453,263.8,452.8,263.9L452.8,263.9z M381.9,117.4
    c-1.8,1-3.4,2.3-5,3.8c-3.8,3.7-6.9,8.6-9,14.6c-2,5.7-3.1,12.1-3.4,19c-0.2,6.5,0.4,13.2,1.8,20.1c1.4,6.8,3.4,13.5,6.1,20
    c2.8,6.7,6.3,13.1,10.3,18.8c4.1,5.9,8.7,11,13.6,15.2c5,4.2,10.1,7.3,15.3,9.2c5.5,2,10.9,2.7,15.9,1.9c3.1-0.5,6.1-1.6,8.9-3.2
    c2.1-1.2,4-2.8,5.8-4.6c4.5-4.7,7.8-11,9.7-18.7c2-7.9,2.4-17.1,1.3-26.6c-1.1-9.8-3.9-20-8-29.4c-4.3-9.8-9.8-18.5-16.4-25.7
    c-6.3-6.9-13-12-20-15c-6.2-2.7-12.3-3.6-18-2.7C387.7,114.7,384.7,115.8,381.9,117.4L381.9,117.4z"/>
</g>
</svg>
