<svg xmlns="http://www.w3.org/2000/svg" viewBox="0 0 964.9 357.2">
  <!-- G Top -->
  <polygon id="ra1" fill="F1F2F2" points="212.8, 52.8, 212.8, 52.8, 176.3, 5.8, 176.3, 5.8"/>

  <!-- G Vert1-->
  <polygon id="ra2" fill="F1F2F2" points="49.5, 5.8, 49.5, 5.8, 2.5, 52.3, 2.5, 52.3"/>

  <!-- G Diagonal -->
  <polygon id="ra4" fill="F1F2F2" points="230.9, 247.3, 230.9, 247.3, 207.4, 277.6, 207.4, 277.6"/>

  <!-- G Vert2 (Tip)-->
  <polygon id="rb1" fill="#F1F2F2" points="137.1, 98.8, 137.1, 98.8, 184.5, 145.3, 184.5, 145.3"/>

  <!-- G to A Middle -->
  <polygon id="ra5" fill="F1F2F2" points="85, 136.1, 85, 136.1, 85, 183.1, 85, 183.1"/>

  <!-- G Horiz Bottom-->
  <polygon id="ra3" fill="F1F2F2" points="2.5, 247.3, 2.5, 247.3, 49.9, 294.3, 49.9, 294.3"/>

  <!-- G to A Bottom -->
  <polygon id="rb2" fill="#F1F2F2" points="137.1, 305.9, 137.1, 305.9, 184.5, 352.9, 184.5, 352.9"/>

  <!-- A Vert1 Top -->
  <polygon id="ra6" fill="2876B5" points="294.2, 137.1, 294.2, 137.1, 247.1, 183.1, 247.1, 183.1"/>

  <!-- A Top -->
  <polygon id="ra7" fill="F1F2F2" points="293.6, 7.8, 293.6, 7.8, 247.1, 54.9, 247.1, 54.9"/>

  <!-- A Vert1 Bottom -->
  <polygon id="rb3" fill="#F1F2F2" points="247.1, 352.9, 247.1, 352.9, 294.2, 305.9, 294.2, 305.9"/>

  <!-- A to M Bottom -->
  <polygon id="ra9" fill="F1F2F2" points="409.6, 352.9, 409.6, 352.9, 362.5, 305.9, 362.5, 305.9"/>

  <!-- M Vert1 -->
  <polygon id="ra10" fill="F1F2F2" points="495.3, 305.9, 495.3, 305.9, 448.3, 352.9, 448.3, 352.9"/>

  <!-- A to M Middle-->
  <polygon id="rb4" fill="#F1F2F2" points="293.6, 159.6, 293.6, 159.6, 247.1, 206.6, 247.1, 206.6"/>

  <!-- A Vert2 -->
  <polygon id="ra8" fill="F1F2F2" points="409.6, 54.4, 409.6, 54.4, 362.5, 7.8, 362.5, 7.8"/>

  <!-- M Vert3 -->
  <polygon id="rb7" fill="#F1F2F2" points="585.8, 285.3, 585.8, 285.3, 632.8, 238.2, 632.8, 238.2"/>

  <!-- E Diagonal -->
  <polygon id="ra14" fill="F1F2F2" points="905.6, 177.1, 905.6, 177.1, 905.6, 129.9, 905.6, 129.9"/>

  <!-- E Vert -->
  <polygon id="rb11" fill="#F1F2F2" points="799.4, 310.2, 799.4, 310.2, 752.4, 357.2, 752.4, 357.2"/>

  <!-- M to E Middle (long)-->
  <polygon id="ra13" fill="F1F2F2" points="572.2, 176.9, 572.2, 176.9, 525.2, 129.9, 525.2, 129.9"/>

  <!-- M Top1 -->
  <polygon id="ra11" fill="F1F2F2" points="448.3, 52.3, 448.3, 52.3, 495.3, 5.3, 495.3, 5.3"/>

  <!-- M Vert2 Top -->
  <polygon id="ra12" fill="F1F2F2" points="572.2, 52.3, 572.2, 52.3, 525.2, 5.3, 525.2, 5.3"/>

  <!-- M Vert4-->
  <polygon id="rb9" fill="#F1F2F2" points="711.9, 51.8, 711.9, 51.8, 664.8, 4.8, 664.8, 4.8"/>

  <!-- M to E Bottom -->
  <polygon id="rb10" fill="#F1F2F2" points="711.9, 357.2, 711.9, 357.2, 664.8, 310.2, 664.8, 310.2"/>

  <!-- M Horiz Bottom -->
  <polygon id="rb6" fill="#F1F2F2" points="572.2, 285.3, 572.2, 285.3, 525.2, 238.2, 525.2, 238.2"/>

  <!-- M Vert2 Bottom -->
  <polygon id="rb5" fill="#F1F2F2" points="572.2, 206.6, 572.2, 206.6, 525.2, 159.6, 525.2, 159.6"/>

  <!-- M Top2 -->
  <polygon id="rb8" fill="#F1F2F2" points="585.8, 51.8, 585.8, 51.8, 632.3, 4.8, 632.3, 4.8"/>

  <!-- E Horiz Bottom-->
  <polygon id="ra15" fill="F1F2F2" points="725.9, 252.6, 725.9, 252.6, 725.9, 299.6, 725.9, 299.6"/>

  <!-- E Horiz Top -->
  <polygon id="rb12" fill="#F1F2F2" points="799.4, 12.3, 799.4, 12.3, 752.4, 59.3, 752.4, 59.3"/>



</svg>