<?xml version="1.0" encoding="utf-8"?>
<!-- Generator: Adobe Illustrator 20.0.0, SVG Export Plug-In . SVG Version: 6.00 Build 0)  -->
<!DOCTYPE svg PUBLIC "-//W3C//DTD SVG 1.1//EN" "http://www.w3.org/Graphics/SVG/1.1/DTD/svg11.dtd">
<svg version="1.1" id="Layer_1" xmlns="http://www.w3.org/2000/svg" xmlns:xlink="http://www.w3.org/1999/xlink" x="0px" y="0px"
	 viewBox="0 0 400 400" style="enable-background:new 0 0 400 400;" xml:space="preserve">
<style type="text/css">
	.st0{fill:#FFFFFF;}
	.st1{fill:#414042;}
</style>
<g>
	<g>
		<g>
			<polygon class="st0" points="127.6,307.2 200.3,198.8 272.9,307.2 272.9,405.7 234.2,352.3 200.3,399.1 166.3,352.3 127.6,405.7 
							"/>
			<path class="st1" d="M200.3,207.3l68,101.3v0.3v82.2l-34-46.8l-34,46.8l-34-46.8l-34,46.8v-82.2v-0.3L200.3,207.3 M200.3,190.4
				l-7.8,11.7l-68,101.3l-1.6,2.4v2.9v0.3v82.2v29.1l17.1-23.5l26.3-36.3l26.3,36.3l7.6,10.5l7.6-10.5l26.3-36.3l26.3,36.3
				l17.1,23.5v-29.1v-82.2v-0.3v-2.9l-1.6-2.4l-68-101.3L200.3,190.4L200.3,190.4z"/>
		</g>
		<g>
			<g>
				<path class="st0" d="M200.3,317.3c-21.9,0-43.1-6.4-61.3-18.6l-3.9-2.6l45.3-67.6l3.9,2.6c4.7,3.2,10.2,4.8,15.9,4.8
					s11.2-1.7,15.9-4.8l3.9-2.6l45.3,67.6l-3.9,2.6C243.4,310.8,222.2,317.3,200.3,317.3z"/>
				<path class="st1" d="M218.8,235l40.1,59.7c-16.8,11.3-36.9,17.8-58.6,17.8c-21.7,0-41.9-6.6-58.6-17.8l40.1-59.7
					c5.3,3.6,11.7,5.7,18.6,5.7S213.5,238.6,218.8,235 M179.1,221.9l-5.3,7.8l-40.1,59.7l-5.3,7.8l7.8,5.3
					c18.9,12.7,41,19.5,63.9,19.5s45-6.7,63.9-19.5l7.8-5.3l-5.3-7.8l-40.1-59.7l-5.3-7.8l-7.8,5.3c-3.9,2.6-8.5,4-13.3,4
					c-4.8,0-9.4-1.4-13.3-4L179.1,221.9L179.1,221.9z"/>
			</g>
		</g>
	</g>
	<g>
		<polygon class="st0" points="194.4,199.6 194.4,199.6 194.4,199.6 		"/>
		<polyline class="st1" points="194.4,199.6 194.4,199.6 194.4,199.6 		"/>
	</g>
	<g>
		<g>
			<polygon class="st0" points="127.6,92.1 127.6,-6.4 166.3,46.9 200.3,0.1 234.2,46.9 272.9,-6.4 272.9,92.1 200.3,200.4 			"/>
			<path class="st1" d="M268.2,8.1v82.2v0.3l-68,101.3l-68-101.3v-0.3V8.1l34,46.8l34-46.8l34,46.8L268.2,8.1 M277.7-21L260.6,2.6
				l-26.3,36.3L207.9,2.6l-7.6-10.5l-7.6,10.5l-26.3,36.3L139.9,2.6L122.9-21V8.1v82.2v0.3v2.9l1.6,2.4l68,101.3l7.8,11.7l7.8-11.7
				l68-101.3l1.6-2.4v-2.9v-0.3V8.1V-21L277.7-21z"/>
		</g>
		<g>
			<g>
				<path class="st0" d="M216.2,168.2c-4.7-3.2-10.2-4.8-15.9-4.8c-5.7,0-11.2,1.7-15.9,4.8l-3.9,2.6l-45.3-67.6l3.9-2.6
					C157.1,88.4,178.3,82,200.3,82c21.9,0,43.1,6.4,61.3,18.6l3.9,2.6l-45.3,67.6L216.2,168.2z"/>
				<path class="st1" d="M200.3,86.7c21.7,0,41.9,6.6,58.6,17.8l-40.1,59.7c-5.3-3.6-11.7-5.7-18.6-5.7s-13.3,2.1-18.6,5.7
					l-40.1-59.7C158.4,93.3,178.6,86.7,200.3,86.7 M200.3,77.3c-22.9,0-45,6.7-63.9,19.5l-7.8,5.3l5.3,7.8l40.1,59.7l5.3,7.8
					l7.8-5.3c3.9-2.6,8.5-4,13.3-4c4.8,0,9.4,1.4,13.3,4l7.8,5.3l5.3-7.8l40.1-59.7l5.3-7.8l-7.8-5.3
					C245.2,84,223.1,77.3,200.3,77.3L200.3,77.3z"/>
			</g>
		</g>
	</g>
	<g>
		<rect x="194.4" y="199.6" class="st0" width="0" height="0"/>
		<polyline class="st1" points="194.4,199.6 194.4,199.6 194.4,199.6 		"/>
	</g>
	<g>
		<g>
			<polygon class="st0" points="-5.8,272.3 47.6,233.6 0.7,199.6 47.6,165.6 -5.8,126.9 92.7,126.9 201,199.6 92.7,272.3 			"/>
			<path class="st1" d="M91.3,131.7l101.3,68l-101.3,68H91H8.8l46.8-34l-46.8-34l46.8-34l-46.8-34H91H91.3 M94.1,122.2h-2.9H91H8.8
				h-29.1l23.5,17.1l36.3,26.3L3.2,192l-10.5,7.6l10.5,7.6l36.3,26.3L3.2,259.9L-20.3,277H8.8H91h0.3h2.9l2.4-1.6l101.3-68l11.7-7.8
				l-11.7-7.8l-101.3-68L94.1,122.2L94.1,122.2z"/>
		</g>
		<g>
			<g>
				<path class="st0" d="M101.3,260.9c-12.2-18.1-18.6-39.3-18.6-61.3c0-21.9,6.4-43.1,18.6-61.3l2.6-3.9l67.6,45.3l-2.6,3.9
					c-3.2,4.7-4.8,10.2-4.8,15.9c0,5.7,1.7,11.2,4.8,15.9l2.6,3.9l-67.6,45.3L101.3,260.9z"/>
				<path class="st1" d="M105.2,141l59.7,40.1c-3.6,5.3-5.7,11.7-5.7,18.6c0,6.9,2.1,13.3,5.7,18.6l-59.7,40.1
					c-11.3-16.8-17.8-36.9-17.8-58.6C87.3,177.9,93.9,157.7,105.2,141 M102.6,127.9l-5.3,7.8c-12.7,18.9-19.4,41-19.4,63.9
					c0,22.9,6.7,45,19.5,63.9l5.3,7.8l7.8-5.3l59.7-40.1l7.8-5.3l-5.3-7.8c-2.6-3.9-4-8.5-4-13.3c0-4.8,1.4-9.4,4-13.3l5.3-7.8
					l-7.8-5.3l-59.7-40.1L102.6,127.9L102.6,127.9z"/>
			</g>
		</g>
	</g>
	<g>
		<polygon class="st0" points="194.4,199.6 194.4,199.6 194.4,199.6 		"/>
		<polyline class="st1" points="194.4,199.6 194.4,199.6 194.4,199.6 		"/>
	</g>
	<g>
		<g>
			<polygon class="st0" points="307.8,272.3 199.5,199.6 307.8,126.9 406.3,126.9 353,165.6 399.8,199.6 353,233.6 406.3,272.3 			
				"/>
			<path class="st1" d="M391.8,131.7l-46.8,34l46.8,34l-46.8,34l46.8,34h-82.2h-0.3l-101.3-68l101.3-68h0.3H391.8 M420.8,122.2
				h-29.1h-82.2h-0.3h-2.9l-2.4,1.6l-101.3,68l-11.7,7.8l11.7,7.8l101.3,68l2.4,1.6h2.9h0.3h82.2h29.1l-23.5-17.1L361,233.6
				l36.3-26.3l10.5-7.6l-10.5-7.6L361,165.6l36.3-26.3L420.8,122.2L420.8,122.2z"/>
		</g>
		<g>
			<g>
				<path class="st0" d="M229.1,219.5l2.6-3.9c3.2-4.7,4.8-10.2,4.8-15.9c0-5.7-1.7-11.2-4.8-15.9l-2.6-3.9l67.6-45.3l2.6,3.9
					c12.2,18.1,18.6,39.3,18.6,61.3c0,21.9-6.4,43.1-18.6,61.3l-2.6,3.9L229.1,219.5z"/>
				<path class="st1" d="M295.3,141c11.3,16.8,17.8,36.9,17.8,58.6c0,21.7-6.6,41.9-17.8,58.6l-59.7-40.1c3.6-5.3,5.7-11.7,5.7-18.6
					s-2.1-13.3-5.7-18.6L295.3,141 M297.9,127.9l-7.8,5.3l-59.7,40.1l-7.8,5.3l5.3,7.8c2.6,3.9,4,8.5,4,13.3c0,4.8-1.4,9.4-4,13.3
					l-5.3,7.8l7.8,5.3l59.7,40.1l7.8,5.3l5.3-7.8c12.7-18.9,19.5-41,19.5-63.9s-6.7-45-19.5-63.9L297.9,127.9L297.9,127.9z"/>
			</g>
		</g>
	</g>
	<g>
		<polygon class="st0" points="194.4,199.6 194.4,199.6 194.4,199.6 		"/>
		<polyline class="st1" points="194.4,199.6 194.4,199.6 194.4,199.6 		"/>
	</g>
</g>
</svg>
