<svg version="1.1" xmlns="http://www.w3.org/2000/svg" viewBox="0 0 1000 1000">
	<style type="text/css">
		.logo-stroke{
			fill:none;
			stroke:#58595B;
			stroke-width:16;
			stroke-miterlimit:10;
		}
	</style>

	<g id="logo-section-one">
		<polygon class="logo-stroke" points="500,529.2 338.1,770.5 338.1,771.1 338.1,967 419.1,855.5 500,967 580.9,855.5 661.9,967 661.9,771.1 
			661.9,770.5 	"/>
		<g>
			<path class="logo-stroke" d="M500,608.6c-16.4,0-31.6-5-44.2-13.5l-95.4,142.2c39.9,26.8,87.9,42.5,139.6,42.5
				c51.7,0,99.7-15.7,139.6-42.5l-95.4-142.2C531.6,603.6,516.4,608.6,500,608.6z"/>
		</g>
	</g>
	<g id="logo-section-two">
		<polygon class="logo-stroke" points="500,470.8 661.9,229.5 661.9,228.9 661.9,33 580.9,144.5 500,33 419.1,144.5 338.1,33 338.1,228.9 
			338.1,229.5 	"/>
		<g>
			<path class="logo-stroke" d="M500,391.4c16.4,0,31.6,5,44.2,13.5l95.4-142.2c-39.9-26.8-87.9-42.5-139.6-42.5
				c-51.7,0-99.7,15.7-139.6,42.5l95.4,142.2C468.4,396.4,483.6,391.4,500,391.4z"/>
		</g>
	</g>
	<g id="logo-section-three">
		<polygon class="logo-stroke" points="470.8,500 229.5,338.1 228.9,338.1 33,338.1 144.5,419.1 33,500 144.5,580.9 33,661.9 228.9,661.9 
			229.5,661.9 	"/>
		<g>
			<path class="logo-stroke" d="M391.4,500c0-16.4,5-31.6,13.5-44.2l-142.2-95.4c-26.8,39.9-42.5,87.9-42.5,139.6
				c0,51.7,15.7,99.7,42.5,139.6l142.2-95.4C396.4,531.6,391.4,516.4,391.4,500z"/>
		</g>
	</g>
	<g id="logo-section-four">
		<polygon class="logo-stroke" points="529.2,500 770.5,661.9 771.1,661.9 967,661.9 855.5,580.9 967,500 855.5,419.1 967,338.1 771.1,338.1 
			770.5,338.1 	"/>
		<g>
			<path class="logo-stroke" d="M737.4,360.4l-142.2,95.4c8.5,12.6,13.5,27.8,13.5,44.2s-5,31.6-13.5,44.2l142.2,95.4
				c26.8-39.9,42.5-87.9,42.5-139.6C779.9,448.3,764.2,400.3,737.4,360.4z"/>
		</g>
	</g>
</svg>
