<?xml version="1.0" encoding="utf-8"?>
<!-- Generator: Adobe Illustrator 18.0.0, SVG Export Plug-In . SVG Version: 6.00 Build 0)  -->
<!DOCTYPE svg PUBLIC "-//W3C//DTD SVG 1.1//EN" "http://www.w3.org/Graphics/SVG/1.1/DTD/svg11.dtd">
<svg version="1.1" id="Layer_1" xmlns="http://www.w3.org/2000/svg" xmlns:xlink="http://www.w3.org/1999/xlink" x="0px" y="0px"
   viewBox="0 0 600 600" style="enable-background:new 0 0 600 600;" xml:space="preserve">
<style type="text/css">
  .st0{fill:#FFFFFF;}
  .st1{fill:#F7F8DC;}
  .st2{fill:#FBF49B;}
</style>
<path d="M596.1,289.7c-0.4-0.9-0.9-1.6-1.5-2.3c-0.6-0.7-1.3-1.2-2-1.6c-0.7-0.4-1.5-0.6-2.3-0.7l-189.4-10.8l70.5-34.1
  c0.2-0.1,0.4-0.2,0.6-0.4c0.2-0.2,0.4-0.3,0.5-0.5c0.1-0.2,0.3-0.4,0.4-0.6c0.1-0.2,0.2-0.5,0.3-0.7c0.1-0.3,0.1-0.5,0.1-0.8
  c0-0.3,0-0.5,0-0.8c0-0.3-0.1-0.6-0.2-0.8c-0.1-0.3-0.2-0.6-0.3-0.8c-0.2-0.4-0.4-0.8-0.7-1.1c-0.3-0.3-0.6-0.6-0.9-0.9
  c-0.3-0.2-0.7-0.4-1.1-0.6c-0.3-0.2-0.7-0.2-1.1-0.3c-0.1,0-0.2,0-0.4,0c-0.1,0-0.2,0-0.3,0c-0.1,0-0.3,0-0.3,0.1
  c-0.1,0-0.3,0.1-0.3,0.1l-74.4,32.6l125.3-142.5c0.3-0.3,0.5-0.6,0.7-0.9c0.2-0.3,0.4-0.7,0.5-1.1c0.1-0.4,0.2-0.8,0.2-1.2
  c0-0.4,0.1-0.9,0-1.4c0-0.4-0.1-0.9-0.3-1.4c-0.1-0.4-0.3-0.9-0.5-1.3c-0.2-0.4-0.4-0.9-0.7-1.2c-0.2-0.4-0.5-0.8-0.8-1.1
  c-0.3-0.4-0.7-0.7-1-0.9c-0.3-0.3-0.7-0.5-1.1-0.7c-0.4-0.2-0.7-0.4-1.1-0.5c-0.4-0.1-0.8-0.2-1.2-0.3c-0.4,0-0.8-0.1-1.1,0
  c-0.4,0-0.7,0.1-1.1,0.2c-0.3,0.1-0.7,0.3-1,0.5c0,0,0,0,0.1-0.1c-35,21.2-70,42.4-105.1,63.7l2.3-7.8c0.1-0.3,0.1-0.5,0.1-0.8
  c0-0.3,0-0.6,0-0.8c0-0.3-0.1-0.6-0.1-0.8c-0.1-0.3-0.2-0.5-0.3-0.8c-0.1-0.3-0.3-0.6-0.4-0.8c-0.2-0.2-0.4-0.5-0.6-0.7
  c-0.2-0.2-0.4-0.4-0.6-0.6c-0.2-0.2-0.5-0.3-0.7-0.4l-1.4-0.4c-0.4,0-0.8,0-1.1,0.1c-0.4,0.1-0.7,0.2-1,0.4c0,0,0,0,0.1,0
  c0,0-0.1,0-0.1,0.1l0,0l0,0c-10.5,6.6-21,13.2-31.5,19.7L359.1,25.8c0-0.9-0.3-1.9-0.7-2.8c-0.4-0.9-0.9-1.7-1.6-2.4
  c-0.6-0.7-1.4-1.3-2.2-1.8c-0.8-0.5-1.7-0.8-2.6-0.9c-0.9-0.1-1.8,0-2.5,0.2c-0.7,0.2-1.4,0.6-1.9,1.2c0-0.1,0.1-0.1,0.1-0.2
  c-39,33.7-78.1,67.4-117.1,101.1l-44.1-47.5c-0.4-0.4-0.8-0.7-1.2-1c-0.4-0.3-0.9-0.6-1.3-0.8c-0.5-0.2-0.9-0.4-1.4-0.6
  c-0.5-0.1-1-0.2-1.5-0.3c-0.5,0-1-0.1-1.4,0c-0.5,0-0.9,0.1-1.4,0.3c-0.5,0.1-0.9,0.3-1.3,0.5c-0.4,0.2-0.8,0.5-1.1,0.8
  c-0.5,0.4-0.7,0.9-1,1.4c0.2-0.4,0.4-0.9,0.7-1.2c-34.6,35.7-69.2,71.5-103.8,107.2c-1.3,1.4-3.1,3.2-4.4,4.6
  c-0.6,0.6-1,1.2-1.2,1.9c-0.3,0.7-0.3,1.5-0.3,2.2c0,0.8,0.2,1.6,0.5,2.3c0.3,0.8,0.8,1.5,1.4,2.1l64.4,66.9l-21.8-1.3
  c-1.1-0.1-2.1,0.1-3.1,0.5c-0.9,0.3-1.6,0.9-2.3,1.5c0.1-0.1,0.2-0.3,0.3-0.3c-18.3,14.6-36.6,29.3-54.9,44
  c-13.3,10.7-26.7,21.4-40,32c-1.2,1-2.8,2.3-4,3.2c-0.3,0.3-0.7,0.6-1,1c-0.3,0.4-0.5,0.8-0.7,1.2c-0.2,0.4-0.4,0.9-0.5,1.3
  c-0.1,0.5-0.2,1-0.1,1.5c0,0.9,0.2,1.8,0.6,2.6c0.3,0.8,0.8,1.5,1.4,2.2c0.6,0.6,1.3,1.1,2.1,1.5c0.8,0.4,1.7,0.6,2.6,0.6l185.5,5.3
  c-20.9,10.7-41.9,21.5-62.8,32.3c-0.2,0.1-0.4,0.2-0.6,0.4c-0.2,0.1-0.3,0.3-0.5,0.5c-0.1,0.2-0.3,0.3-0.4,0.6
  c-0.1,0.2-0.2,0.4-0.3,0.6c-0.1,0.2-0.1,0.5-0.2,0.7c0,0.3,0,0.5,0,0.7c0,0.2,0,0.5,0.1,0.7c0.1,0.3,0.1,0.5,0.2,0.8
  c0.2,0.4,0.4,0.7,0.6,1c0.3,0.3,0.6,0.5,0.9,0.7c0.3,0.2,0.6,0.4,1,0.4c0.3,0.1,0.7,0.2,1.1,0.2l1.4-0.3l70.8-31.5L76.6,504.6
  c-0.3,0.3-0.6,0.7-0.8,1c-0.2,0.4-0.4,0.7-0.6,1.2c-0.1,0.4-0.3,0.8-0.3,1.3c-0.1,0.4-0.1,0.9-0.1,1.4c0,0.5,0.1,0.9,0.2,1.3
  c0.1,0.4,0.2,0.9,0.4,1.3c0.2,0.4,0.4,0.8,0.6,1.2c0.3,0.4,0.5,0.7,0.9,1c0.3,0.3,0.6,0.6,1,0.8c0.3,0.3,0.7,0.4,1.1,0.6
  c0.4,0.2,0.8,0.3,1.2,0.4c0.4,0.1,0.9,0.1,1.3,0.1c0.1,0,0.3,0,0.4,0c0.2,0,0.3,0,0.5,0c0.1,0,0.3,0,0.4-0.1c0.1,0,0.3-0.1,0.4-0.1
  c39.5-11.8,79-23.6,118.6-35.4c-0.2,0-0.3,0.1-0.5,0.1c0.5-0.1,1-0.3,1.4-0.5c0.4-0.2,0.9-0.5,1.3-0.8c0.4-0.3,0.8-0.6,1.1-1.1
  l21.7-24.6l5.6,121.8c0,0.9,0.3,1.7,0.6,2.5c0.3,0.8,0.8,1.5,1.4,2c0.6,0.6,1.2,1,2,1.4c0.7,0.3,1.5,0.4,2.3,0.4c0,0,0.1,0,0.1,0
  c0,0,0.1,0,0.1,0c0,0,0.1,0,0.1,0c0,0,0.1,0,0.1,0c50.1-6,100.2-12.1,150.2-18.1c0,0-0.1,0-0.1,0c0,0-0.1,0-0.1,0c0,0-0.1,0-0.1,0
  c0,0-0.1,0-0.1,0c1,0,1.9-0.3,2.7-0.8c0.8-0.4,1.6-1.1,2.2-1.8c0.6-0.8,1.1-1.7,1.3-2.6c0.3-1,0.4-2.1,0.3-3.2l-3.2-46.9
  c52.3-9.9,104.6-19.9,156.9-29.9c-0.1,0-0.1,0-0.2,0c-0.1,0-0.2,0-0.3,0c-0.1,0-0.2,0-0.2,0c-0.1,0-0.1,0-0.2,0
  c0.4,0,0.8-0.1,1.2-0.1c0.4-0.1,0.8-0.3,1.1-0.4c0.4-0.2,0.7-0.4,1-0.7c0.3-0.3,0.6-0.6,0.9-1c0.3-0.3,0.5-0.7,0.7-1.1
  c0.2-0.4,0.3-0.9,0.4-1.3c0.1-0.4,0.2-0.9,0.2-1.4c0-0.5,0-1,0-1.4c0-0.5-0.1-1-0.3-1.5c-0.1-0.5-0.3-1-0.5-1.4
  c-0.2-0.4-0.4-0.9-0.7-1.3c-0.3-0.4-0.6-0.8-0.9-1.1L446.1,352.5c49.1-17.9,98.2-35.8,147.3-53.6c-0.1,0-0.3,0.1-0.4,0.1
  c-0.2,0-0.3,0.1-0.4,0.1c-0.2,0-0.3,0-0.5,0c-0.1,0-0.3,0-0.5,0c0.8,0,1.6-0.1,2.2-0.4c0.7-0.3,1.3-0.8,1.7-1.4
  c0.5-0.6,0.9-1.3,1.1-2.1c0.2-0.8,0.3-1.7,0.2-2.7C596.8,291.5,596.5,290.6,596.1,289.7z M173.8,76.7
  C173.8,76.7,173.8,76.7,173.8,76.7c0,0.3,0.2,0.8,0.3,1.2c0,0,0,0,0,0C174,77.5,173.8,77.1,173.8,76.7z M513,112.9c0,0-0.1,0-0.2,0
  C512.9,113,512.9,113,513,112.9C513,112.9,513,112.9,513,112.9z M512.3,113.1C512.3,113.1,512.3,113.1,512.3,113.1
  C512.3,113.1,512.2,113.2,512.3,113.1C512.2,113.2,512.2,113.1,512.3,113.1z M509.5,111.5c0.1-0.1,0.1-0.1,0.2-0.2
  c0.1-0.1,0.2-0.1,0.3-0.2c0,0,0.1,0,0.1-0.1c-0.3,0.2-0.6,0.4-0.8,0.7C509.3,111.7,509.4,111.6,509.5,111.5z M401,161.4
  c0.1-0.1,0.2-0.2,0.3-0.2c-0.3,0.2-0.5,0.4-0.7,0.7c0,0,0,0,0,0C400.7,161.7,400.9,161.6,401,161.4z M400.3,162.4
  c0.1-0.2,0.2-0.3,0.3-0.5c-0.2,0.3-0.4,0.7-0.5,1.1C400.1,162.8,400.2,162.6,400.3,162.4z M350.7,20.9
  C350.7,20.9,350.6,20.9,350.7,20.9C350.6,20.9,350.6,20.9,350.7,20.9L350.7,20.9z M346.9,20.1c0.1-0.2,0.3-0.4,0.5-0.6
  c-0.5,0.5-0.9,1.1-1.1,1.8c0,0,0-0.1,0-0.1C346.4,20.8,346.6,20.4,346.9,20.1z M345.9,22.5c0.1-0.3,0.2-0.7,0.3-1
  c-0.2,0.7-0.4,1.6-0.3,2.5C345.8,23.5,345.8,23,345.9,22.5z M174.2,73.9c-0.2,0.5-0.2,1.1-0.3,1.7c0-0.5,0-1.1,0.2-1.6
  C174.2,74,174.2,73.9,174.2,73.9z M108.6,261.1c-0.1,0-0.1,0-0.2,0.1C108.4,261.1,108.5,261.1,108.6,261.1
  C108.5,261.1,108.6,261.1,108.6,261.1z M104,260.4c0.1-0.2,0.3-0.3,0.5-0.5c-0.6,0.6-1.1,1.3-1.4,2.2c0-0.1,0-0.2,0.1-0.3
  C103.4,261.3,103.7,260.8,104,260.4z M102.6,263.5c0.1-0.4,0.2-0.7,0.4-1.1c-0.3,0.9-0.5,1.9-0.5,2.9
  C102.4,264.7,102.5,264.1,102.6,263.5z M200.2,480.8c-0.2,0-0.3,0-0.5,0c0.5,0,1-0.1,1.6-0.2c-0.2,0-0.3,0.1-0.5,0.1
  C200.6,480.7,200.4,480.7,200.2,480.8z M202.1,476.6c0.1,0,0.1-0.1,0.2-0.1C202.3,476.5,202.2,476.5,202.1,476.6
  C202.2,476.5,202.2,476.5,202.1,476.6z M389.7,560.1c0.2-0.1,0.5-0.1,0.7-0.2c0,0,0,0.1-0.1,0.1C390.1,560,389.9,560,389.7,560.1z
   M391.2,559.2c0.2-0.1,0.3-0.3,0.5-0.4c0,0,0,0.1,0,0.1C391.5,559,391.3,559.1,391.2,559.2z M392.2,557.8c0.1-0.2,0.2-0.3,0.3-0.5
  c0,0,0,0,0,0C392.3,557.5,392.3,557.6,392.2,557.8z M548.5,475.5c0.1,0,0.1,0,0.2-0.1C548.7,475.5,548.6,475.5,548.5,475.5
  C548.6,475.5,548.6,475.5,548.5,475.5z M549.1,475.3c0.1,0,0.1-0.1,0.2-0.1c0,0,0,0-0.1,0.1C549.2,475.3,549.2,475.3,549.1,475.3z
   M549.7,474.9c0-0.1,0.1-0.1,0.2-0.1c0,0,0,0,0,0C549.8,474.9,549.8,474.9,549.7,474.9z M592.6,296.1c0.1,0,0.2-0.1,0.3-0.2
  C592.8,296,592.8,296.1,592.6,296.1C592.7,296.1,592.6,296.1,592.6,296.1z M593.6,295.4c0.1-0.1,0.2-0.2,0.3-0.3
  c0,0.1-0.1,0.2-0.1,0.2C593.7,295.3,593.6,295.3,593.6,295.4z M594.3,294.2c0-0.2,0.1-0.3,0.2-0.4c0,0,0,0.1,0,0.1
  C594.4,294.1,594.3,294.1,594.3,294.2z"/>
<polygon id="test1" class="st0" points="373.6,256.9 374.2,265.8 378.1,261.3 377.2,264.5 374.7,273 374.8,274.2 375.2,274.2 384.4,270.3
  387.7,268.8 382.5,274.6 388.5,275 385.5,276.3 378.2,279.6 377.5,280.4 377.8,280.8 387.8,285.5 391.3,287.2 383.3,286.8
  388,291.7 384.8,290.2 376.7,286.4 375.7,286.4 375.7,286.7 380.5,297.6 382.3,301.5 376.2,294.9 376.7,301.6 375.1,298.2
  371.1,289.4 370.3,288.6 370.1,288.8 367,299.4 365.8,303.3 365.2,294.3 361.2,298.9 362.2,295.6 364.8,287 364.7,285.8
  364.3,285.8 354.9,289.8 351.4,291.3 356.8,285.4 350.6,285 353.6,283.7 361.3,280.4 362,279.6 361.7,279.3 351.4,274.4
  347.9,272.7 356,273.1 351.4,268.2 354.6,269.7 362.7,273.5 363.9,273.6 363.8,273.3 358.9,262.4 357.1,258.5 363.3,265.1
  362.8,258.4 364.3,261.7 368.3,270.5 369.1,271.4 369.4,271.2 372.5,260.7 "/>
<g>
  <polygon class="st1" points="385.6,273.4, 388.1, 273.6, 470.1, 237.5, 470.6, 235.8, 469.4, 234.8, 388.3, 270.3"/>
  <polygon class="st1" points="404.5,162.4 404.2,163.7 403.9,163.5 402.5,164.3 375,257.6 375.3,262.3 377.2,260.2 404.9,165.5  "/>
  <polygon class="st1" points="479.3,330.4 390.9,288.5 386.7,288.4 388.9,290.7 479.1,333.1 480.1,332.3  "/>
  <polygon class="st1" points="361.7,261.5 361.5,258.3 315.7,157.8 314.4,156.8 313.3,157.5 358.4,258  "/>
  <polygon class="st1" points="381.1,301.9 377.8,298.5 378.1,301.7 424,402.8 425.8,403.5 427.4,401 426.3,401.6  "/>
  <polygon class="st1" points="352.6,271.5 350.5,269.2 254.5,223.8 254,223.7 252.6,224.5 253.5,226.5 348.4,271.4  "/>
  <polygon class="st1" points="362.3,300 332.1,402.1 333.6,404.2 334.8,403.3 364.5,302.6 364.1,297.8  "/>
  <polygon class="st1" points="353.6,286.6 350.7,286.5 260.4,326.2 259.7,328.3 261.6,329 350.8,290  "/>
</g>
<g>
  <path class="st2" d="M370.7,291.7l-3.5,12.1l17,251.8c0,0.7,0.2,1.3,0.4,1.9c0.3,0.6,0.6,1.1,1,1.5c0.4,0.4,0.9,0.8,1.4,1
    c0.5,0.2,1.1,0.3,1.7,0.3c0.6,0,1.1-0.2,1.6-0.4c0.5-0.3,0.9-0.6,1.3-1.1c0.4-0.5,0.6-1,0.8-1.6c0.2-0.6,0.2-1.2,0.2-1.9
    l-17.3-253.8L370.7,291.7z"/>
  <path class="st2" d="M516.8,120.2c0.3-0.4,0.5-0.8,0.7-1.3c0.1-0.4,0.2-1,0.1-1.5c-0.1-0.5-0.2-1-0.4-1.6c-0.2-0.5-0.5-1-0.9-1.4
    c-0.2-0.2-0.4-0.4-0.6-0.6c-0.2-0.2-0.4-0.3-0.7-0.5c-0.3-0.1-0.5-0.3-0.7-0.3c-0.2-0.1-0.5-0.2-0.7-0.2c-0.2,0-0.5,0-0.7,0
    c-0.2,0-0.4,0.1-0.6,0.2c-0.2,0.1-0.4,0.2-0.6,0.3c-0.2,0.1-0.3,0.3-0.5,0.5l-132,148.5l-2.7,9.6l10.5-4.7L516.8,120.2z"/>
  <path class="st2" d="M594.1,290.7c-0.3-0.5-0.6-1-0.9-1.4c-0.4-0.4-0.8-0.7-1.2-1c-0.5-0.3-0.9-0.4-1.4-0.4l-201.9-11.4l-8.3,3.9
    l11.4,5.5l199.7,10.6c0.5,0,1-0.1,1.3-0.3c0.4-0.2,0.8-0.5,1-0.9c0.3-0.4,0.5-0.8,0.6-1.3c0.1-0.5,0.2-1,0.1-1.6
    C594.4,291.8,594.3,291.2,594.1,290.7z"/>
  <path class="st2" d="M372.3,256.3L356.5,25.5c0-0.6-0.2-1.1-0.4-1.7c-0.2-0.5-0.6-1-1-1.4c-0.4-0.4-0.9-0.8-1.3-1.1
    c-0.5-0.3-1-0.5-1.6-0.5c-0.6-0.1-1.1,0-1.5,0.1c-0.5,0.1-0.9,0.4-1.2,0.7c-0.3,0.3-0.6,0.7-0.7,1.2c-0.2,0.5-0.3,1-0.2,1.6
    l15.7,234.1l4.6,10L372.3,256.3z"/>
  <path class="st2" d="M550.8,469.4c-0.1-0.3-0.3-0.6-0.4-0.8c-0.2-0.3-0.3-0.5-0.6-0.7L387,292.7l-9.1-4.1l5.6,12.3l161.6,173.4
    c0.2,0.2,0.4,0.4,0.6,0.6c0.2,0.2,0.5,0.3,0.7,0.4c0.2,0.1,0.5,0.2,0.7,0.2c0.3,0,0.5,0.1,0.7,0.1c0.3,0,0.5,0,0.7-0.1
    c0.2-0.1,0.5-0.2,0.7-0.3c0.2-0.1,0.4-0.3,0.6-0.4c0.2-0.1,0.3-0.3,0.5-0.6c0.2-0.2,0.3-0.5,0.4-0.7c0.1-0.2,0.2-0.5,0.3-0.8
    c0.1-0.3,0.1-0.5,0.2-0.8c0-0.3,0-0.6,0-0.9c0-0.3-0.1-0.6-0.2-0.9C551,469.9,550.9,469.6,550.8,469.4z"/>
  <path class="st2" d="M178.3,80.3l173.9,186.9l9.4,4.3l-5.7-12.5L184.4,74.6c-0.2-0.3-0.5-0.5-0.7-0.7c-0.2-0.2-0.5-0.3-0.8-0.5
    c-0.3-0.1-0.6-0.3-0.8-0.3c-0.3-0.1-0.6-0.2-0.9-0.2c-0.3,0-0.6,0-0.9,0c-0.3,0-0.6,0.1-0.9,0.1c-0.3,0.1-0.5,0.2-0.8,0.3
    c-0.2,0.1-0.4,0.3-0.7,0.5c-0.4,0.4-0.7,0.9-0.9,1.4c-0.2,0.5-0.3,1.1-0.3,1.7c0,0.6,0.2,1.2,0.4,1.7
    C177.5,79.2,177.9,79.8,178.3,80.3z"/>
  <path class="st2" d="M359,279.6l-11.6-5.5l-237-13.3c-0.7,0-1.3,0.1-1.9,0.3c-0.6,0.2-1.1,0.6-1.5,1c-0.4,0.4-0.8,0.9-1,1.5
    c-0.2,0.6-0.3,1.2-0.3,1.9c0,0.7,0.1,1.3,0.4,1.9c0.3,0.6,0.6,1.2,1.1,1.6c0.4,0.5,1,0.9,1.5,1.1c0.6,0.3,1.2,0.4,1.9,0.5
    l239.5,12.8L359,279.6z"/>
  <path class="st2" d="M195.9,468.9c-0.4,0.5-0.7,1.1-0.9,1.7c-0.2,0.6-0.3,1.2-0.3,1.9c0,0.6,0.2,1.3,0.4,1.9
    c0.2,0.6,0.6,1.2,1.1,1.6c0.3,0.3,0.5,0.5,0.8,0.6c0.3,0.2,0.6,0.3,0.9,0.4c0.3,0.1,0.6,0.2,0.9,0.3c0.3,0,0.6,0.1,0.9,0.1
    c0.3,0,0.6,0,0.9-0.1c0.3-0.1,0.6-0.1,0.9-0.3c0.3-0.1,0.6-0.3,0.8-0.5c0.3-0.2,0.5-0.4,0.7-0.6l157.2-178.1l2.9-9.7l-10.8,4.7
    L195.9,468.9z"/>
</g>
</svg>
