<!-- Generator: Adobe Illustrator 20.1.0, SVG Export Plug-In  -->
<svg version="1.1"
	 xmlns="http://www.w3.org/2000/svg" xmlns:xlink="http://www.w3.org/1999/xlink" xmlns:a="http://ns.adobe.com/AdobeSVGViewerExtensions/3.0/"
	 x="0px" y="0px" width="650px" height="650px" viewBox="0 0 650 650" style="enable-background:new 0 0 650 650;"
	 xml:space="preserve">
<style type="text/css">
	.st0{fill:#FFFFFF;}
	.st1{fill:#F7C516;}
</style>
<defs>
</defs>

<g>
	<path d="M325,126.8c80,0,148.9,47.4,180.2,115.6l10.8,0c-10.3-23.8-25.1-45.6-43.9-64.5C432.8,138.6,380.6,117,325,117
		c-55.6,0-107.8,21.6-147.1,60.9c-18.9,18.9-33.7,40.7-43.9,64.5l10.8,0C176.1,174.2,245,126.8,325,126.8z"/>
	<path d="M509.9,396.5c-23.3,60.3-75.3,106.3-139.3,121.4c-14.6,3.4-29.9,5.3-45.6,5.3c-15.7,0-31-1.8-45.6-5.3
		c-64-15.1-116-61.1-139.3-121.4l-11.5-2.5c10.2,29,26.8,55.7,49.3,78.1c28.3,28.3,63.4,47.5,101.5,55.9c14.8,3.3,30.1,5,45.6,5
		c15.5,0,30.8-1.7,45.6-5c38.2-8.5,73.2-27.6,101.5-55.9c22.4-22.4,39.1-49,49.3-78.1L509.9,396.5z"/>
	<path d="M621.2,256.8l10.6,98.3l-247.3,54L368.1,257L621.2,256.8 M621.2,247.7C621.2,247.7,621.2,247.7,621.2,247.7l-253.2,0.2
		c-2.6,0-5.1,1.1-6.8,3c-1.7,1.9-2.6,4.5-2.3,7.1L375.5,410c0.3,2.6,1.6,4.9,3.7,6.4c1.6,1.1,3.4,1.7,5.3,1.7c0.6,0,1.3-0.1,1.9-0.2
		l247.3-54c4.6-1,7.6-5.3,7.1-9.9l-10.6-98.3C629.8,251.2,625.9,247.7,621.2,247.7L621.2,247.7z"/>
	<path class="st1" d="M385.2,340.6l7.1,59.7l223.5-50.4c4.1-0.9,7.1-5.1,6.7-9.3H385.2z"/>
	<path d="M615.8,332.9c-1.2,0-2.3-0.4-3.2-1.3l-15.7-15.3l-22.4,13.8c-1.7,1-3.9,0.9-5.4-0.4L516.7,284l-64.3,44.6
		c-1.7,1.2-3.9,1.1-5.5-0.2l-66.4-54.7c-1.9-1.6-2.2-4.5-0.6-6.4c1.6-1.9,4.5-2.2,6.4-0.6l63.7,52.5l64.4-44.7
		c1.7-1.2,4-1.1,5.6,0.3l52.5,45.7l22.6-13.9c1.8-1.1,4.1-0.8,5.6,0.6l18.3,17.8c1.8,1.8,1.8,4.7,0.1,6.5
		C618.2,332.5,617,332.9,615.8,332.9z"/>
	<path class="st1" d="M371.4,415.2c-0.7-1.4-1.1-3-1.3-4.6l-7-64.5c-22.5,10-38.2,32.5-38.2,58.7c0-26.2-15.7-48.7-38.2-58.7
		l-7,64.5c-0.2,1.6-0.6,3.1-1.3,4.6c0.6,3.8,0.9,7.5,0.9,11c0,21.8,0,63.2,0,91.7c14.6,3.4,29.9,5.3,45.6,5.3
		c15.7,0,31-1.8,45.6-5.3c0-28.5,0-69.8,0-91.7C370.6,422.6,370.9,418.9,371.4,415.2z"/>
	<path d="M28.8,256.8l253.1,0.2L265.4,409l-247.3-54L28.8,256.8 M28.8,247.7c-4.7,0-8.6,3.5-9.1,8.1L9.1,354.1
		c-0.5,4.6,2.6,8.9,7.1,9.9L263.5,418c0.6,0.1,1.3,0.2,1.9,0.2c1.9,0,3.8-0.6,5.3-1.7c2.1-1.5,3.5-3.8,3.7-6.4L291,258
		c0.3-2.6-0.6-5.1-2.3-7.1c-1.7-1.9-4.2-3-6.8-3L28.8,247.7C28.8,247.7,28.8,247.7,28.8,247.7L28.8,247.7z"/>
	<path class="st1" d="M265.3,340.6l-7.1,59.7L34.7,349.9c-4.1-0.9-7.1-5.1-6.7-9.3H265.3z"/>
	<path d="M34.7,332.9c-1.2,0-2.4-0.5-3.3-1.4c-1.8-1.8-1.7-4.7,0.1-6.5l18.3-17.8c1.5-1.5,3.8-1.7,5.6-0.6L78,320.6l52.5-45.7
		c1.6-1.4,3.9-1.5,5.6-0.3l64.4,44.7l63.6-52.5c1.9-1.6,4.8-1.3,6.4,0.6c1.6,1.9,1.3,4.8-0.6,6.4l-66.3,54.7
		c-1.6,1.3-3.8,1.4-5.5,0.2L133.8,284l-52.4,45.6c-1.5,1.3-3.7,1.5-5.4,0.4l-22.4-13.8l-15.7,15.3C37,332.5,35.9,332.9,34.7,332.9z"
		/>
	<path d="M347.9,245.3c-1.1,0-2.2-0.4-3.1-1.2l-19.8-18.5L305.4,244c-1.8,1.7-4.7,1.6-6.5-0.2c-1.7-1.8-1.6-4.7,0.2-6.4l22.8-21.4
		c1.8-1.6,4.5-1.6,6.2,0l22.9,21.4c1.8,1.7,1.9,4.6,0.2,6.5C350.4,244.8,349.2,245.3,347.9,245.3z"/>
</g>
</svg>
