<!-- Generator: Adobe Illustrator 20.1.0, SVG Export Plug-In  -->
<svg version="1.1"
	 xmlns="http://www.w3.org/2000/svg" xmlns:xlink="http://www.w3.org/1999/xlink" xmlns:a="http://ns.adobe.com/AdobeSVGViewerExtensions/3.0/"
	 x="0px" y="0px" width="650px" height="650px" viewBox="0 0 650 650" style="enable-background:new 0 0 650 650;"
	 xml:space="preserve">
<style type="text/css">
	.st0{fill:#FFFFFF;}
	.st1{fill:#F89A1C;}
</style>
<defs>
</defs>

<g>
	<ellipse class="st1" cx="325" cy="388.7" rx="312.8" ry="81"/>
	<g>
		<polygon points="427.2,425.6 413.6,412.4 412.5,412.4 383.3,384.1 384.5,384.1 400.1,384.1 395.9,379.9 380.2,379.9 375.8,375.6 
			359.9,375.6 344.1,375.6 339.5,371.4 323.6,371.4 307.6,371.4 291.7,371.4 286.7,367.1 270.6,367.1 254.6,367.1 235,351.2 
			218.5,351.2 213.2,346.9 196.5,346.9 179.9,346.9 185.5,351.2 169,351.2 217.2,387.2 201.7,387.2 196.1,383.1 151.8,383.1 
			158,387.4 164.2,391.6 170.3,395.9 185.6,395.9 191.6,400.2 206.8,400.2 212.5,404.3 218.4,408.5 233.3,408.5 239.1,412.8 
			244.9,417.1 259.2,417.1 264.8,421.3 270.5,425.6 285,425.6 298.7,436.1 312.9,436.1 424,436.1 438.1,436.1 		"/>
		<g>
			<rect x="444.7" y="249.7" width="14.1" height="14.1"/>
			<g>
				<polygon class="st0" points="444.7,263.8 444.7,249.7 430.6,249.7 430.6,289.5 416.4,289.5 416.4,235.7 402.3,235.7 
					388.2,235.7 388.2,275.6 374,275.6 374,221.6 359.9,221.6 345.8,221.6 345.8,274.5 331.6,274.5 331.6,154.5 317.5,154.5 
					303.3,154.5 303.3,328.1 289.2,328.1 289.2,288.2 275.1,288.2 275.1,274.5 249.2,274.5 249.2,288.6 249.2,302.8 263.3,302.8 
					263.3,316.4 277.5,316.4 277.5,330.5 277.5,344.6 291.6,344.6 291.6,358.8 291.6,372.9 305.3,372.9 305.3,387 305.3,401.2 
					319.5,401.2 319.5,422 430.6,422 430.6,401.2 444.7,401.2 444.7,357.4 458.8,357.4 458.8,263.8 				"/>
				<g>
					<polygon points="331.6,154.5 331.6,140.3 317.5,140.3 303.3,140.3 303.3,154.5 317.5,154.5 					"/>
					<polygon points="249.2,274.5 275.1,274.5 275.1,288.2 289.2,288.2 289.2,328.1 303.3,328.1 303.3,154.5 289.2,154.5 289.2,274 
						275.1,274 275.1,260.4 235,260.4 235,274.5 235,288.6 235,302.8 249.2,302.8 249.2,288.6 					"/>
					<polygon points="277.5,316.4 263.3,316.4 263.3,302.8 249.2,302.8 249.2,316.9 263.3,316.9 263.3,330.5 263.3,344.6 
						277.5,344.6 277.5,330.5 					"/>
					<polygon points="305.3,372.9 291.6,372.9 291.6,358.8 291.6,344.6 277.5,344.6 277.5,358.8 277.5,372.9 291.2,372.9 291.2,387 
						291.2,401.2 305.3,401.2 305.3,387 					"/>
					<polygon points="388.2,275.6 388.2,235.7 402.3,235.7 416.4,235.7 416.4,289.5 430.6,289.5 430.6,249.7 444.7,249.7 
						444.7,235.5 430.6,235.5 416.4,235.5 416.4,221.6 402.3,221.6 388.2,221.6 374,221.6 374,275.6 					"/>
					<rect x="458.8" y="263.8" width="14.1" height="93.6"/>
					<rect x="444.7" y="357.4" width="14.1" height="43.8"/>
					<polygon points="430.6,422 319.5,422 319.5,401.2 305.3,401.2 305.3,436.1 319.5,436.1 430.6,436.1 444.7,436.1 444.7,401.2 
						430.6,401.2 					"/>
					<polygon points="345.8,274.5 345.8,221.6 359.9,221.6 374,221.6 374,207.4 359.9,207.4 345.8,207.4 345.8,154.5 331.6,154.5 
						331.6,274.5 					"/>
				</g>
			</g>
		</g>
	</g>
</g>
</svg>
