<!-- Generator: Adobe Illustrator 20.1.0, SVG Export Plug-In  -->
<svg version="1.1"
	 xmlns="http://www.w3.org/2000/svg" xmlns:xlink="http://www.w3.org/1999/xlink" xmlns:a="http://ns.adobe.com/AdobeSVGViewerExtensions/3.0/"
	 x="0px" y="0px" width="650px" height="650px" viewBox="0 0 650 650" style="enable-background:new 0 0 650 650;"
	 xml:space="preserve">
<style type="text/css">
	.st0{fill:#FFFFFF;}
	.st1{fill:#D9D9D9;}
	.st2{fill:#BE1E2D;}
	.st3{fill:#BE202E;}
	.st4{fill:none;}
	.st5{fill:#AD1A27;}
	.st6{fill:#B6E4FA;}
	.st7{fill:#9C1421;}
	.st8{fill:#7A0511;}
	.st9{fill:#8B0E1A;}
	.st10{fill:#480000;}
	.st11{fill:#AB6A4C;}
	.st12{fill:#C38866;}
	.st13{fill:#F1F2F2;}
</style>
<defs>
</defs>

<g>
	<path class="st1" d="M510.3,465c10.5-25.6,16.2-53.6,16.2-82.9c0-69.3-32.2-131.2-82.4-171.4l-73,90.2L562.3,64.8L422.2,195.2
		c-13.3-8.2-27.5-15-42.4-20.2L522.9,8.5L232.7,262.6l37.3-32.6l-145.3,30.2c-0.1,0.1-0.1,0.2-0.2,0.2
		c-23.3,34.8-36.9,76.7-36.9,121.7c0,85.7,49.1,159.8,120.7,196c5.3,2.7,10.7,5.2,16.3,7.4l7.2-7.6l-6.6,7.8
		c25.3,10.2,53,15.8,81.9,15.8c38.8,0,75.3-10.1,107-27.8l0,0l109.4,8.1l5.5-16.1l7.6-22.3l19.2-56.7l-45-21.3L510.3,465z
		 M313.5,252.1l-42.2,49.1l44.5-51.8L313.5,252.1z M367.4,381.7c0,0,0.1-0.1,0.1-0.1L355,370.3l-0.4-0.4l-0.4-0.3l0,0l23.6,20.9
		L367.4,381.7z"/>
	<path class="st1" d="M307.1,162.7c-76,0-143,38.7-182.4,97.4c56.8-11.8,145.3-30.1,145.3-30.1l73.4-64.3
		C331.6,163.7,319.5,162.7,307.1,162.7z"/>
</g>
<g>
	<g>
		<path class="st2" d="M207.8,574.4c-34.4-17.8-63.5-44.5-84.1-77.4c-21.6-34.4-33-74.1-33-115c0-42.7,12.4-83.9,35.8-119.3
			l132.9-27.6l-30.1,26.4l9.5,31.9l33.5,11.2l41.6-48.4l79.1,67.1l15.2,39.8l-15.7,11.4l-75.1-68.3l-0.5,33.5l10.1,24.6l-56.7,21.7
			l89.2,6.1l-19,20.2l-48.6,35.3l98.1-41l93,82.8L480,531l16.8,13.3l-211.5-7.1l-71.6-66.4l-4.5,4l32.1,43.8l-36.7-27.7l29,42
			l-29.4-19.3l27,38.6L207.8,574.4z M204,390l18.7-54.8l-86.4,28l64.7,25.1L204,390z M215,264.2l6.9,47l74.9,7.9L233.4,299
			l-12.6-36.2L215,264.2z"/>
		<path class="st3" d="M248.9,240.5l-20.1,17.6l-2.9,2.5l1.1,3.7l8.5,28.5l0.9,3l2.9,1l30.1,10.1l3.8,1.3l2.6-3.1l38.3-44.6
			l76.2,64.7l14.1,37l-11.8,8.6l-68.4-62.1l-9.8-8.9l-0.2,13.3l-0.1,8.5l-44.6-14.2l-33.8-10.7l-12.1-34.7l-11.6,2.8l6.5,44.7
			l0.7,4.6l4.6,0.5l43.3,4.6l47,4.9l-0.2,15.2l0,1.2l0.5,1.1l8.7,21.2L282,378.5l-25.5,9.7l27.2,1.8l69.2,4.7l-14.4,15.4l-27.6,20
			l-41.7,30.3l47.5-19.9l72.6-30.4l90.5,80.5l-2.7,38.5l-0.2,3.2l2.5,2l8.4,6.6l-34.4-1.2l-166.8-5.6l-70.8-65.6l-8.9,7.9l20,27.4
			l-5.7-4.3l-29.6-22.3l21.1,30.5l9.8,14.1l-3.6-2.3l-26.1-17.1l17.9,25.6l16.6,23.7l-20.1,19c-33.1-17.5-61.1-43.5-81.1-75.3
			c-21.3-33.9-32.6-73.1-32.6-113.4c0-41.7,12-81.9,34.7-116.6L248.9,240.5 M206,393.4l2-5.9l13.1-38.3l2.4-7l0.1-0.3l3.9-11.3
			l-11.4,3.7l-72.7,23.5l-16.1,5.2l15.7,6.1l57.1,22.1L206,393.4 M270,229.9l-145.3,30.2c-0.1,0.1-0.1,0.2-0.2,0.2
			c-23.3,34.8-36.9,76.7-36.9,121.7c0,85.7,49.1,159.8,120.7,196l26.9-25.5l-19.6-28l29.2,19.2l-27.2-39.4l38.2,28.8l-44.1-60.2
			l72.5,67.2l169,5.7l52.7,1.8l-22.8-18l2.9-41.4l-95.5-85L314.5,435l28-20.4l23.5-25l-81.9-5.6l46.9-17.9l-11.1-26.9l0.4-26.2
			l72,65.4l19.5-14.2l-16.3-42.7l-82-69.5l-42.2,49.1l-30.1-10.1l-8.5-28.5L270,229.9L270,229.9z M267.8,313l-43.3-4.6l-6.5-44.7
			l13.1,37.6L267.8,313L267.8,313z M202.4,385.6l-57.1-22.1l72.7-23.5l-1.4,4.2l-58,20.2L202.4,385.6l-34.8-20.1l47.9-18.2
			L202.4,385.6L202.4,385.6z"/>
	</g>
	<polygon class="st4" points="202.4,385.6 215.5,347.2 216.6,344.1 218,339.9 145.3,363.4 	"/>
	<polygon class="st4" points="218,263.8 224.5,308.5 267.8,313 231.1,301.4 	"/>
	<polygon class="st4" points="218,263.8 224.5,308.5 267.8,313 231.1,301.4 	"/>
	<polygon class="st2" points="231.8,577.9 267.9,540.2 267.9,540.2 	"/>
	<polygon class="st4" points="267.9,540.2 231.8,577.9 224.6,585.5 267.9,540.2 	"/>
	<polygon class="st5" points="453.2,545.8 453.2,545.8 284.2,540.1 	"/>
	<polygon class="st2" points="510.3,465 411.8,364.3 510.7,465.4 	"/>
	<path class="st4" d="M314.5,435"/>
	<path class="st4" d="M411.8,364.3"/>
	<path class="st6" d="M124.5,260.4c0.1-0.1,0.1-0.2,0.2-0.2l0,0C124.6,260.2,124.6,260.3,124.5,260.4z"/>
	<polygon class="st4" points="366,389.6 366,389.6 366,389.6 	"/>
	<polygon class="st4" points="218,263.8 224.5,308.5 267.8,313 231.1,301.4 	"/>
	<path class="st4" d="M344,360.3c-3.4,2.9-5.5,7.2-5.5,11.9c0,8,6,14.6,13.7,15.5c0.6,0.1,1.3,0.1,1.9,0.1h0c5.3,0,10-2.6,12.8-6.7
		L354.6,370L344,360.3z"/>
	<g>
		<g>
			<path class="st6" d="M343.4,165.7c-11.8-2-23.9-3-36.3-3c-76,0-143,38.7-182.4,97.4c56.8-11.8,145.3-30.1,145.3-30.1L343.4,165.7
				z"/>
		</g>
		<g>
			<path class="st6" d="M338.4,273.2l83.7-77.9c-13.3-8.2-27.5-15-42.4-20.2l-66.2,77.1L338.4,273.2z"/>
		</g>
		<g>
			<path class="st6" d="M395.5,321.6l16.3,42.7L510.3,465c10.5-25.6,16.2-53.6,16.2-82.9c0-69.3-32.2-131.2-82.4-171.4l-73,90.2
				L395.5,321.6z"/>
		</g>
		<g>
			<path class="st6" d="M294.2,564.8l-26.2-24.6h0l-36.1,37.8l-6.6,7.8c25.3,10.2,53,15.8,81.9,15.8c38.8,0,75.3-10.1,107-27.8l0,0
				L294.2,564.8z"/>
		</g>
	</g>
	<path class="st6" d="M124.5,260.4c0.1-0.1,0.1-0.2,0.2-0.2l0,0C124.6,260.2,124.6,260.3,124.5,260.4z"/>
	<polygon class="st4" points="366,389.6 366,389.6 366,389.6 	"/>
	<path class="st4" d="M344,360.3c-0.1,0-0.1,0.1-0.1,0.1l10.4,9.2L344,360.3z"/>
	<g>
		<polygon class="st7" points="267.8,313 231.1,301.4 218,263.8 224.5,308.5 		"/>
		<g>
			<polygon class="st7" points="202.4,385.6 158.5,364.3 216.6,344.1 218,339.9 145.3,363.4 			"/>
			<path class="st7" d="M505.9,547.6l-52.7-1.8l-169-5.7l-72.5-67.2l44.1,60.2l-38.2-28.8l27.2,39.4l-29.2-19.2l19.6,28l-26.9,25.5
				c5.3,2.7,10.7,5.2,16.3,7.4l7.2-7.6l36.1-37.8h0l26.2,24.6l119.9,8.9l109.4,8.1l5.5-16.1L505.9,547.6z"/>
			<path class="st7" d="M510.7,465.4l-98.9-101.1l-19.5,14.2l-72-65.4l-0.4,26.2l23.9,21.2c0.1,0,0.1-0.1,0.1-0.1l10.2,9.3
				l23.6,20.9l-35.3,24.1l-28,20.4l76.1-31.8l95.5,85l-2.9,41.4L510.7,465.4z"/>
		</g>
	</g>
	<polygon class="st7" points="366,389.6 284.1,384.1 366,389.6 366,389.6 	"/>
	<polygon class="st8" points="366,389.6 342.5,414.6 366,389.6 	"/>
	<polygon class="st8" points="366,389.6 366,389.6 366,389.6 	"/>
	<polygon class="st8" points="366,389.6 366,389.6 366,389.6 	"/>
	<polygon class="st8" points="366,389.6 366,389.6 366,389.6 	"/>
	<g>
		<polygon class="st9" points="167.6,365.5 202.4,385.6 215.5,347.2 		"/>
		<path class="st9" d="M366.9,381.2c-2.8,4-7.5,6.7-12.8,6.7h0c-0.7,0-1.3-0.1-1.9-0.1c-7.7-1-13.7-7.5-13.7-15.5
			c0-4.7,2.1-8.9,5.4-11.8l-23.9-21.2l11.1,26.9l-46.9,17.9l81.8,5.6l0,0l0,0l0,0l-23.5,25l35.3-24.1L366.9,381.2z"/>
	</g>
	<polygon class="st8" points="354.1,388.8 354.1,388.8 366,389.6 366,389.6 	"/>
	<polygon class="st10" points="366.9,382.1 354.6,370.9 366.9,382.1 	"/>
	<path class="st10" d="M352.2,388.7c0.6,0.1,1.3,0.1,1.9,0.1h0l0,0L352.2,388.7z"/>
	<path class="st10" d="M367.5,381.5l-12.8-11.4l-10.9-9.8c-3.4,3-5.6,7.4-5.6,12.3c0.1,8.2,6.3,14.9,14.2,15.8l2,0.1l0,0
		C359.9,388.5,364.7,385.7,367.5,381.5z"/>
	<g>
		<polygon class="st11" points="517.8,547.6 486,522.9 483.1,529.6 528.9,565.7 536.5,543.4 		"/>
		<path class="st12" d="M555.7,486.7l-45-21.3L486,522.9l31.8,24.7l18.7-4.2L555.7,486.7z M509.3,519.3l3.9-25.2l10.3,4.8
			L509.3,519.3z"/>
		<polygon class="st10" points="513.2,494.1 509.3,519.3 523.5,498.9 		"/>
	</g>
	<path class="st4" d="M411.8,364.3"/>
	<path class="st6" d="M124.5,260.4c0.1-0.1,0.1-0.2,0.2-0.2l0,0C124.6,260.2,124.6,260.3,124.5,260.4z"/>
	<g>
		<polygon class="st1" points="241.3,291.1 271.3,301.2 522.9,8.5 		"/>
		<polygon class="st13" points="232.7,262.6 241.3,291.1 522.9,8.5 		"/>
	</g>
	<g>
		<polygon class="st13" points="338.4,273.2 354.4,286.7 562.3,64.8 		"/>
		<polygon class="st1" points="562.3,64.8 354.4,286.7 371.1,300.9 		"/>
	</g>
</g>
</svg>
