<!-- Generator: Adobe Illustrator 20.1.0, SVG Export Plug-In  -->
<svg version="1.1"
	 xmlns="http://www.w3.org/2000/svg" xmlns:xlink="http://www.w3.org/1999/xlink" xmlns:a="http://ns.adobe.com/AdobeSVGViewerExtensions/3.0/"
	 x="0px" y="0px" width="650px" height="650px" viewBox="0 0 650 650" style="enable-background:new 0 0 650 650;"
	 xml:space="preserve">
<style type="text/css">
	.st0{fill:#FFFFFF;}
	.st1{fill:none;stroke:#FFFFFF;stroke-width:7.2374;stroke-miterlimit:10;}
	.st2{fill:none;}
	.st3{fill:#010101;}
	.st4{fill:#FFFFFF;stroke:#010101;stroke-width:3.2547;stroke-miterlimit:10;}
</style>
<g>
	<path class="st1" d="M259.4,540.4"/>
	<line class="st2" x1="121.9" y1="235.4" x2="119" y2="235.4"/>
	<line class="st2" x1="127" y1="425.4" x2="123.9" y2="425.4"/>
	<g>
		<path class="st3" d="M127,425.4c10.6,20.9,24.4,39.9,41.1,56.6c20.4,20.4,44.1,36.4,70.5,47.6c8.5,3.6,17.3,6.7,26.1,9.2l-0.7,2.6
			c-9-2.5-17.8-5.6-26.4-9.3c-26.7-11.3-50.8-27.5-71.4-48.1c-17.3-17.3-31.4-36.9-42.2-58.5H127z"/>
		<path class="st3" d="M121.9,235.4c11.1-25.1,26.6-47.7,46.1-67.2c20.4-20.4,44.1-36.4,70.5-47.6c0,0,0.1,0,0.1,0l-1-2.5
			c0,0-0.1,0-0.1,0c-26.7,11.3-50.8,27.5-71.4,48.1c-20,20-35.9,43.3-47.2,69.1H121.9z"/>
		<path class="st3" d="M523,425.4h3c-10.8,21.6-24.9,41.2-42.2,58.5c-20.6,20.6-44.6,36.8-71.4,48.1c-8.7,3.7-17.5,6.8-26.5,9.3
			l-0.7-2.6c8.9-2.5,17.6-5.6,26.2-9.2c26.4-11.2,50.2-27.2,70.5-47.6C498.6,465.3,512.4,446.3,523,425.4z"/>
		<path class="st3" d="M531,235.4h-3c-11.1-25.1-26.6-47.7-46.1-67.2c-20.4-20.4-44.1-36.4-70.5-47.6c0,0,0,0-0.1,0l1-2.5
			c0,0,0.1,0,0.1,0c26.7,11.3,50.8,27.5,71.4,48.1C503.8,186.3,519.7,209.5,531,235.4z"/>
	</g>
	<g>
		<path class="st3" d="M429.8,220.3c-28-28-65.2-43.4-104.8-43.4c-39.6,0-76.8,15.4-104.8,43.4s-43.4,65.2-43.4,104.8
			s15.4,76.8,43.4,104.8c28,28,65.2,43.4,104.8,43.4c39.6,0,76.8-15.4,104.8-43.4c28-28,43.4-65.2,43.4-104.8
			S457.8,248.3,429.8,220.3z M330.4,443.6l1.2,26.6c-1.1,0-2.1,0.1-3.2,0.1l-0.6-26.7C328.7,443.6,329.6,443.6,330.4,443.6z
			 M333.1,443.4c0.9-0.1,1.7-0.1,2.6-0.2l2.4,26.6c-1.1,0.1-2.1,0.2-3.2,0.3L333.1,443.4z M338.3,443c0.9-0.1,1.7-0.2,2.6-0.3
			l3.5,26.4c-1.1,0.1-2.1,0.3-3.2,0.4L338.3,443z M343.5,442.3c0.9-0.1,1.7-0.3,2.6-0.4l4.7,26.3c-1.1,0.2-2.1,0.4-3.2,0.5
			L343.5,442.3z M348.6,441.4c0.9-0.2,1.7-0.4,2.6-0.5l5.9,26c-1,0.2-2.1,0.5-3.1,0.7L348.6,441.4z M353.8,440.2
			c0.8-0.2,1.7-0.4,2.5-0.7l7,25.7c-1,0.3-2.1,0.6-3.1,0.8L353.8,440.2z M358.8,438.8c0.8-0.2,1.7-0.5,2.5-0.8l8.2,25.4
			c-1,0.3-2.1,0.6-3.1,1L358.8,438.8z M363.8,437.2c0.8-0.3,1.6-0.6,2.5-0.9l9.3,25c-1,0.4-2,0.7-3,1.1L363.8,437.2z M368.7,435.4
			c0.8-0.3,1.6-0.7,2.4-1l10.4,24.6c-1,0.4-2,0.8-3,1.2L368.7,435.4z M373.5,433.4c0.8-0.4,1.6-0.7,2.4-1.1l11.5,24.1
			c-1,0.5-1.9,0.9-2.9,1.3L373.5,433.4z M378.3,431.1c0.8-0.4,1.5-0.8,2.3-1.2l12.5,23.6c-0.9,0.5-1.9,1-2.8,1.5L378.3,431.1z
			 M382.9,428.7c0.8-0.4,1.5-0.9,2.3-1.3l13.6,23c-0.9,0.5-1.8,1.1-2.8,1.6L382.9,428.7z M387.4,426c0.7-0.5,1.5-0.9,2.2-1.4
			l14.5,22.4c-0.9,0.6-1.8,1.2-2.7,1.7L387.4,426z M391.8,423.1c0.7-0.5,1.4-1,2.1-1.5l15.5,21.7c-0.9,0.6-1.7,1.2-2.6,1.8
			L391.8,423.1z M396,420.1c0.7-0.5,1.4-1.1,2.1-1.6l16.5,21c-0.8,0.7-1.7,1.3-2.5,1.9L396,420.1z M400.1,416.9
			c0.7-0.6,1.3-1.1,2-1.7l17.4,20.2c-0.8,0.7-1.6,1.4-2.5,2.1L400.1,416.9z M404.1,413.4c0.6-0.6,1.3-1.2,1.9-1.8l18.2,19.5
			c-0.8,0.7-1.6,1.5-2.4,2.2L404.1,413.4z M406.8,406.9c-21.9,21.9-50.9,33.9-81.8,33.9s-60-12-81.8-33.9s-33.9-50.9-33.9-81.8
			s12-60,33.9-81.8s50.9-33.9,81.8-33.9s60,12,81.8,33.9s33.9,50.9,33.9,81.8S428.6,385,406.8,406.9z M242.2,410.1
			c0.6,0.6,1.3,1.2,1.9,1.8l-18.2,19.5c-0.8-0.7-1.6-1.5-2.3-2.2L242.2,410.1z M246,413.6c0.7,0.6,1.3,1.2,2,1.7l-17.3,20.3
			c-0.8-0.7-1.6-1.4-2.4-2.1L246,413.6z M250,417c0.7,0.6,1.4,1.1,2,1.6l-16.4,21c-0.8-0.7-1.7-1.3-2.5-2L250,417z M254.2,420.3
			c0.7,0.5,1.4,1,2.1,1.5l-15.5,21.7c-0.9-0.6-1.7-1.3-2.6-1.9L254.2,420.3z M258.4,423.3c0.7,0.5,1.5,1,2.2,1.5l-14.5,22.4
			c-0.9-0.6-1.8-1.2-2.7-1.8L258.4,423.3z M262.8,426.2c0.7,0.5,1.5,0.9,2.3,1.4l-13.5,23c-0.9-0.5-1.8-1.1-2.8-1.7L262.8,426.2z
			 M267.4,428.8c0.8,0.4,1.5,0.8,2.3,1.3l-12.5,23.6c-0.9-0.5-1.9-1-2.8-1.5L267.4,428.8z M272,431.3c0.8,0.4,1.6,0.8,2.4,1.1
			L263,456.6c-1-0.5-1.9-0.9-2.9-1.4L272,431.3z M276.8,433.5c0.8,0.4,1.6,0.7,2.4,1l-10.3,24.6c-1-0.4-2-0.8-3-1.3L276.8,433.5z
			 M281.6,435.6c0.8,0.3,1.6,0.6,2.5,0.9l-9.2,25.1c-1-0.4-2-0.7-3-1.1L281.6,435.6z M286.6,437.4c0.8,0.3,1.7,0.6,2.5,0.8
			l-8.1,25.4c-1-0.3-2-0.7-3.1-1L286.6,437.4z M291.6,439c0.8,0.2,1.7,0.5,2.5,0.7l-6.9,25.8c-1-0.3-2.1-0.6-3.1-0.9L291.6,439z
			 M296.6,440.3c0.8,0.2,1.7,0.4,2.5,0.6l-5.8,26.1c-1-0.2-2.1-0.5-3.1-0.7L296.6,440.3z M301.7,441.4c0.9,0.2,1.7,0.3,2.6,0.5
			l-4.6,26.3c-1.1-0.2-2.1-0.4-3.2-0.6L301.7,441.4z M306.9,442.3c0.9,0.1,1.7,0.3,2.6,0.4l-3.4,26.5c-1.1-0.1-2.1-0.3-3.2-0.4
			L306.9,442.3z M312.1,443c0.9,0.1,1.7,0.2,2.6,0.3l-2.3,26.6c-1.1-0.1-2.1-0.2-3.2-0.3L312.1,443z M317.3,443.5
			c0.9,0.1,1.7,0.1,2.6,0.1l-1.1,26.7c-1.1,0-2.1-0.1-3.2-0.2L317.3,443.5z M222.9,221.6l18.7,19c-0.2,0.2-0.4,0.4-0.6,0.6
			c-0.4,0.4-0.8,0.9-1.3,1.3l-19.1-18.6c0.5-0.5,1-1.1,1.5-1.6C222.5,222.1,222.7,221.8,222.9,221.6z M319,206.6l-1.3-26.6
			c1.1-0.1,2.1-0.1,3.2-0.1l0.7,26.7C320.8,206.5,319.9,206.5,319,206.6z M316.4,206.7c-0.9,0.1-1.7,0.1-2.6,0.2l-2.5-26.6
			c1.1-0.1,2.1-0.2,3.2-0.3L316.4,206.7z M311.2,207.2c-0.9,0.1-1.7,0.2-2.6,0.3l-3.7-26.4c1.1-0.1,2.1-0.3,3.2-0.4L311.2,207.2z
			 M306,207.9c-0.9,0.1-1.7,0.3-2.6,0.4l-4.8-26.2c1.1-0.2,2.1-0.4,3.2-0.5L306,207.9z M300.8,208.9c-0.9,0.2-1.7,0.4-2.6,0.6l-6-26
			c1-0.2,2.1-0.5,3.1-0.7L300.8,208.9z M295.7,210c-0.8,0.2-1.7,0.4-2.5,0.7l-7.1-25.7c1-0.3,2.1-0.6,3.1-0.8L295.7,210z
			 M290.7,211.4c-0.8,0.3-1.7,0.5-2.5,0.8l-8.3-25.4c1-0.3,2-0.7,3.1-1L290.7,211.4z M285.7,213.1c-0.8,0.3-1.6,0.6-2.5,0.9l-9.4-25
			c1-0.4,2-0.7,3-1.1L285.7,213.1z M280.8,214.9c-0.8,0.3-1.6,0.7-2.4,1l-10.5-24.5c1-0.4,2-0.8,3-1.2L280.8,214.9z M276,217
			c-0.8,0.4-1.6,0.7-2.4,1.1L262,194c1-0.5,1.9-0.9,2.9-1.4L276,217z M271.3,219.2c-0.8,0.4-1.6,0.8-2.3,1.2l-12.6-23.5
			c0.9-0.5,1.9-1,2.8-1.5L271.3,219.2z M266.7,221.7c-0.8,0.4-1.5,0.9-2.3,1.3l-13.6-22.9c0.9-0.5,1.8-1.1,2.8-1.6L266.7,221.7z
			 M262.2,224.4c-0.7,0.5-1.5,0.9-2.2,1.4l-14.7-22.3c0.9-0.6,1.8-1.2,2.7-1.7L262.2,224.4z M257.8,227.3c-0.7,0.5-1.4,1-2.1,1.5
			L240,207.1c0.9-0.6,1.7-1.2,2.6-1.9L257.8,227.3z M253.5,230.3c-0.7,0.5-1.4,1.1-2.1,1.6L234.9,211c0.8-0.7,1.7-1.3,2.5-2
			L253.5,230.3z M249.4,233.6c-0.7,0.6-1.3,1.1-2,1.7L230,215.1c0.8-0.7,1.6-1.4,2.4-2.1L249.4,233.6z M245.5,237
			c-0.6,0.6-1.3,1.2-1.9,1.8l-18.3-19.4c0.8-0.7,1.6-1.5,2.4-2.2L245.5,237z M238,244.4c-0.6,0.6-1.2,1.3-1.8,1.9l-19.9-17.7
			c0.7-0.8,1.4-1.6,2.2-2.4L238,244.4z M234.5,248.3c-0.6,0.7-1.1,1.3-1.7,2l-20.7-16.8c0.7-0.8,1.4-1.6,2.1-2.5L234.5,248.3z
			 M231.2,252.4c-0.5,0.7-1.1,1.4-1.6,2.1l-21.4-15.9c0.6-0.9,1.3-1.7,1.9-2.6L231.2,252.4z M228.1,256.6c-0.5,0.7-1,1.4-1.5,2.2
			l-22.1-14.9c0.6-0.9,1.2-1.8,1.8-2.6L228.1,256.6z M225.1,260.9c-0.5,0.7-0.9,1.5-1.4,2.2L201,249.2c0.6-0.9,1.1-1.8,1.7-2.7
			L225.1,260.9z M222.4,265.4c-0.4,0.8-0.9,1.5-1.3,2.3l-23.3-12.9c0.5-0.9,1.1-1.9,1.6-2.8L222.4,265.4z M219.8,270
			c-0.4,0.8-0.8,1.6-1.2,2.3l-23.9-11.9c0.5-1,1-1.9,1.5-2.9L219.8,270z M217.5,274.7c-0.4,0.8-0.7,1.6-1.1,2.4L192,266.3
			c0.4-1,0.9-2,1.3-2.9L217.5,274.7z M215.4,279.5c-0.3,0.8-0.7,1.6-1,2.4l-24.9-9.7c0.4-1,0.8-2,1.2-3L215.4,279.5z M213.5,284.4
			c-0.3,0.8-0.6,1.6-0.9,2.5l-25.3-8.6c0.3-1,0.7-2,1.1-3L213.5,284.4z M211.8,289.4c-0.3,0.8-0.5,1.7-0.8,2.5l-25.6-7.4
			c0.3-1,0.6-2.1,0.9-3.1L211.8,289.4z M210.3,294.4c-0.2,0.8-0.4,1.7-0.6,2.5l-25.9-6.3c0.3-1,0.5-2.1,0.8-3.1L210.3,294.4z
			 M209.1,299.5c-0.2,0.9-0.4,1.7-0.5,2.6l-26.2-5.1c0.2-1.1,0.4-2.1,0.7-3.2L209.1,299.5z M208.1,304.6c-0.1,0.9-0.3,1.7-0.4,2.6
			l-26.4-4c0.2-1.1,0.3-2.1,0.5-3.2L208.1,304.6z M207.3,309.8c-0.1,0.9-0.2,1.7-0.3,2.6l-26.5-2.8c0.1-1.1,0.2-2.1,0.4-3.2
			L207.3,309.8z M206.8,315c-0.1,0.9-0.1,1.7-0.2,2.6l-26.6-1.6c0.1-1.1,0.1-2.1,0.2-3.2L206.8,315z M206.4,320.3
			c0,0.9-0.1,1.7-0.1,2.6l-26.7-0.5c0-1.1,0.1-2.1,0.1-3.2L206.4,320.3z M206.3,325.5c0,0.9,0,1.8,0,2.6l-26.7,0.7
			c0-1.1,0-2.1,0-3.2L206.3,325.5z M206.5,330.8c0,0.9,0.1,1.7,0.2,2.6l-26.6,1.8c-0.1-1.1-0.1-2.1-0.2-3.2L206.5,330.8z M206.8,336
			c0.1,0.9,0.2,1.7,0.3,2.6l-26.5,3c-0.1-1.1-0.2-2.1-0.3-3.2L206.8,336z M207.4,341.2c0.1,0.9,0.2,1.7,0.4,2.6l-26.3,4.2
			c-0.2-1.1-0.3-2.1-0.5-3.2L207.4,341.2z M208.2,346.4c0.2,0.9,0.3,1.7,0.5,2.6l-26.1,5.3c-0.2-1-0.4-2.1-0.6-3.2L208.2,346.4z
			 M209.3,351.5c0.2,0.9,0.4,1.7,0.6,2.6l-25.9,6.5c-0.3-1-0.5-2.1-0.7-3.1L209.3,351.5z M210.5,356.6c0.2,0.8,0.5,1.7,0.7,2.5
			l-25.6,7.6c-0.3-1-0.6-2.1-0.9-3.1L210.5,356.6z M212.1,361.6c0.3,0.8,0.5,1.7,0.8,2.5l-25.2,8.8c-0.4-1-0.7-2-1-3L212.1,361.6z
			 M213.8,366.6c0.3,0.8,0.6,1.6,0.9,2.4l-24.8,9.9c-0.4-1-0.8-2-1.2-3L213.8,366.6z M215.7,371.5c0.3,0.8,0.7,1.6,1,2.4l-24.3,11
			c-0.4-1-0.9-2-1.3-2.9L215.7,371.5z M217.9,376.2c0.4,0.8,0.8,1.6,1.2,2.3l-23.8,12.1c-0.5-1-1-1.9-1.4-2.9L217.9,376.2z
			 M220.2,380.9c0.4,0.8,0.8,1.5,1.3,2.3l-23.3,13.1c-0.5-0.9-1-1.9-1.5-2.8L220.2,380.9z M222.8,385.4c0.4,0.8,0.9,1.5,1.4,2.2
			l-22.7,14.1c-0.6-0.9-1.1-1.8-1.7-2.7L222.8,385.4z M225.6,389.9c0.5,0.7,1,1.5,1.5,2.2l-22,15.1c-0.6-0.9-1.2-1.8-1.8-2.7
			L225.6,389.9z M228.5,394.2c0.5,0.7,1,1.4,1.6,2.1l-21.3,16c-0.6-0.9-1.3-1.7-1.9-2.6L228.5,394.2z M231.7,398.4
			c0.5,0.7,1.1,1.4,1.6,2l-20.6,16.9c-0.7-0.8-1.3-1.7-2-2.5L231.7,398.4z M235,402.4c0.6,0.7,1.2,1.3,1.7,2l-19.8,17.8
			c-0.7-0.8-1.4-1.6-2.1-2.4L235,402.4z M407.4,239.8c-0.6-0.6-1.3-1.2-1.9-1.8l18.1-19.6c0.8,0.7,1.6,1.5,2.3,2.2L407.4,239.8z
			 M403.6,236.2c-0.7-0.6-1.3-1.2-2-1.7l17.2-20.3c0.8,0.7,1.6,1.4,2.4,2.1L403.6,236.2z M399.6,232.8c-0.7-0.6-1.4-1.1-2.1-1.6
			l16.3-21.1c0.8,0.7,1.7,1.3,2.5,2L399.6,232.8z M395.4,229.6c-0.7-0.5-1.4-1-2.1-1.5l15.4-21.8c0.9,0.6,1.7,1.2,2.6,1.9
			L395.4,229.6z M391.1,226.5c-0.7-0.5-1.5-1-2.2-1.4l14.4-22.5c0.9,0.6,1.8,1.2,2.7,1.8L391.1,226.5z M386.7,223.7
			c-0.7-0.5-1.5-0.9-2.3-1.3l13.4-23.1c0.9,0.5,1.8,1.1,2.8,1.6L386.7,223.7z M382.2,221.1c-0.8-0.4-1.5-0.8-2.3-1.2l12.4-23.6
			c0.9,0.5,1.9,1,2.8,1.5L382.2,221.1z M377.5,218.6c-0.8-0.4-1.6-0.8-2.4-1.1l11.3-24.2c1,0.5,1.9,0.9,2.9,1.4L377.5,218.6z
			 M372.7,216.4c-0.8-0.4-1.6-0.7-2.4-1l10.2-24.7c1,0.4,2,0.8,3,1.3L372.7,216.4z M367.9,214.4c-0.8-0.3-1.6-0.6-2.5-0.9l9.1-25.1
			c1,0.4,2,0.7,3,1.1L367.9,214.4z M362.9,212.6c-0.8-0.3-1.7-0.5-2.5-0.8l8-25.5c1,0.3,2,0.7,3.1,1L362.9,212.6z M357.9,211.1
			c-0.8-0.2-1.7-0.5-2.5-0.7l6.8-25.8c1,0.3,2.1,0.6,3.1,0.9L357.9,211.1z M352.9,209.7c-0.9-0.2-1.7-0.4-2.6-0.6l5.7-26.1
			c1,0.2,2.1,0.5,3.1,0.7L352.9,209.7z M347.7,208.6c-0.9-0.2-1.7-0.3-2.6-0.5l4.5-26.3c1.1,0.2,2.1,0.4,3.2,0.6L347.7,208.6z
			 M342.6,207.7c-0.9-0.1-1.7-0.2-2.6-0.4l3.3-26.5c1.1,0.1,2.1,0.3,3.2,0.4L342.6,207.7z M337.4,207.1c-0.9-0.1-1.7-0.2-2.6-0.2
			l2.2-26.6c1.1,0.1,2.1,0.2,3.2,0.3L337.4,207.1z M332.1,206.7c-0.9-0.1-1.7-0.1-2.6-0.1l1-26.7c1.1,0,2.1,0.1,3.2,0.2L332.1,206.7
			z M443.3,316.3l26.6-1.9c0.1,1.1,0.1,2.1,0.2,3.2l-26.6,1.4C443.4,318,443.3,317.1,443.3,316.3z M443.1,313.7
			c-0.1-0.9-0.2-1.7-0.3-2.6l26.5-3.1c0.1,1.1,0.2,2.1,0.3,3.2L443.1,313.7z M442.4,308.5c-0.1-0.9-0.3-1.7-0.4-2.6l26.3-4.3
			c0.2,1.1,0.3,2.1,0.5,3.2L442.4,308.5z M441.6,303.3c-0.2-0.9-0.3-1.7-0.5-2.6l26.1-5.5c0.2,1,0.4,2.1,0.6,3.2L441.6,303.3z
			 M440.5,298.2c-0.2-0.9-0.4-1.7-0.6-2.5l25.9-6.6c0.3,1,0.5,2.1,0.8,3.1L440.5,298.2z M439.3,293.1c-0.2-0.8-0.5-1.7-0.7-2.5
			l25.5-7.8c0.3,1,0.6,2.1,0.9,3.1L439.3,293.1z M437.7,288.1c-0.3-0.8-0.6-1.7-0.8-2.5l25.2-8.9c0.4,1,0.7,2,1,3L437.7,288.1z
			 M436,283.1c-0.3-0.8-0.6-1.6-1-2.4l24.8-10c0.4,1,0.8,2,1.2,3L436,283.1z M434,278.3c-0.3-0.8-0.7-1.6-1.1-2.4l24.3-11.1
			c0.4,1,0.9,1.9,1.3,2.9L434,278.3z M431.9,273.5c-0.4-0.8-0.8-1.6-1.2-2.3l23.8-12.1c0.5,1,1,1.9,1.4,2.9L431.9,273.5z
			 M429.5,268.9c-0.4-0.8-0.8-1.5-1.3-2.3l23.2-13.2c0.5,0.9,1,1.9,1.6,2.8L429.5,268.9z M426.9,264.3c-0.4-0.7-0.9-1.5-1.4-2.2
			l22.6-14.2c0.6,0.9,1.1,1.8,1.7,2.7L426.9,264.3z M424.1,259.9c-0.5-0.7-1-1.4-1.5-2.2l22-15.2c0.6,0.9,1.2,1.8,1.8,2.7
			L424.1,259.9z M421.1,255.6c-0.5-0.7-1-1.4-1.6-2.1l21.3-16.1c0.6,0.9,1.3,1.7,1.9,2.6L421.1,255.6z M418,251.4
			c-0.5-0.7-1.1-1.4-1.7-2l20.5-17c0.7,0.8,1.4,1.7,2,2.5L418,251.4z M414.6,247.4c-0.6-0.7-1.2-1.3-1.7-2l19.8-17.9
			c0.7,0.8,1.4,1.6,2.1,2.4L414.6,247.4z M413.4,404.2l19.9,17.8c-0.7,0.8-1.4,1.6-2.2,2.4l-19.5-18.2
			C412.2,405.5,412.8,404.8,413.4,404.2z M415.1,402.2c0.6-0.7,1.1-1.3,1.7-2l20.6,16.9c-0.7,0.8-1.4,1.6-2.1,2.5L415.1,402.2z
			 M418.4,398.1c0.5-0.7,1.1-1.4,1.6-2.1l21.4,16c-0.6,0.9-1.3,1.7-2,2.5L418.4,398.1z M421.6,393.9c0.5-0.7,1-1.4,1.5-2.2l22,15
			c-0.6,0.9-1.2,1.8-1.8,2.6L421.6,393.9z M424.5,389.6c0.5-0.7,0.9-1.5,1.4-2.2l22.7,14c-0.6,0.9-1.1,1.8-1.7,2.7L424.5,389.6z
			 M427.3,385.1c0.4-0.8,0.9-1.5,1.3-2.3l23.3,13c-0.5,0.9-1.1,1.9-1.6,2.8L427.3,385.1z M429.9,380.6c0.4-0.8,0.8-1.6,1.2-2.3
			l23.8,12c-0.5,1-1,1.9-1.5,2.9L429.9,380.6z M432.2,375.9c0.4-0.8,0.7-1.6,1.1-2.4l24.4,10.9c-0.4,1-0.9,2-1.3,2.9L432.2,375.9z
			 M434.4,371.1c0.3-0.8,0.7-1.6,1-2.4l24.8,9.8c-0.4,1-0.8,2-1.2,3L434.4,371.1z M436.3,366.2c0.3-0.8,0.6-1.6,0.9-2.5l25.2,8.7
			c-0.3,1-0.7,2-1.1,3L436.3,366.2z M438,361.2c0.3-0.8,0.5-1.7,0.8-2.5l25.6,7.5c-0.3,1-0.6,2.1-0.9,3.1L438,361.2z M439.5,356.2
			c0.2-0.8,0.4-1.7,0.7-2.5l25.9,6.4c-0.3,1-0.5,2.1-0.8,3.1L439.5,356.2z M440.8,351.1c0.2-0.9,0.4-1.7,0.5-2.6l26.2,5.2
			c-0.2,1.1-0.4,2.1-0.7,3.1L440.8,351.1z M441.8,346c0.2-0.9,0.3-1.7,0.4-2.6l26.4,4.1c-0.2,1.1-0.3,2.1-0.5,3.2L441.8,346z
			 M442.6,340.8c0.1-0.9,0.2-1.7,0.3-2.6l26.5,2.9c-0.1,1.1-0.2,2.1-0.4,3.2L442.6,340.8z M443.1,335.6c0.1-0.9,0.1-1.7,0.2-2.6
			l26.6,1.7c-0.1,1.1-0.2,2.1-0.2,3.2L443.1,335.6z M443.5,330.3c0-0.9,0.1-1.8,0.1-2.6l26.7,0.6c0,1.1-0.1,2.1-0.1,3.2L443.5,330.3
			z M443.6,324.1c0-0.9,0-1.7,0-2.6l26.7-0.8c0,1.1,0,2.1,0.1,3.2L443.6,324.1z M430.5,225.1l-19.4,18.3c-0.6-0.6-1.2-1.3-1.8-1.9
			l19-18.8C429,223.6,429.7,224.4,430.5,225.1z M327.3,179.8l-0.4,26.7c-0.6,0-1.3,0-1.9,0c-0.2,0-0.5,0-0.7,0l-0.2-26.7
			c0.3,0,0.6,0,0.8,0C325.8,179.8,326.5,179.8,327.3,179.8z M219.1,424.6l19.4-18.3c0.6,0.6,1.2,1.3,1.8,1.9l-19,18.7
			C220.6,426.1,219.8,425.4,219.1,424.6z M322,470.3l0.5-26.7c0.8,0,1.6,0,2.4,0c0.1,0,0.2,0,0.2,0l0.1,26.7c-0.1,0-0.2,0-0.3,0
			C324,470.4,323,470.4,322,470.3z M426.6,428.9l-18.7-19.1c0.3-0.3,0.6-0.6,0.9-0.9c0.3-0.3,0.6-0.6,0.9-1l19.1,18.6
			c-0.4,0.4-0.8,0.8-1.1,1.2C427.3,428.2,427,428.6,426.6,428.9z"/>
		<g>
			<path class="st0" d="M428.2,266.6c0.4,0.8,0.8,1.5,1.3,2.3l23.5-12.7c-0.5-0.9-1-1.9-1.6-2.8L428.2,266.6z"/>
			<path class="st0" d="M425.5,262.1c0.5,0.7,0.9,1.5,1.4,2.2l22.9-13.7c-0.5-0.9-1.1-1.8-1.7-2.7L425.5,262.1z"/>
			<path class="st0" d="M430.7,271.2c0.4,0.8,0.8,1.6,1.2,2.3l24-11.6c-0.5-1-0.9-1.9-1.4-2.9L430.7,271.2z"/>
			<path class="st0" d="M433,275.9c0.4,0.8,0.7,1.6,1.1,2.4l24.5-10.5c-0.4-1-0.9-2-1.3-2.9L433,275.9z"/>
			<path class="st0" d="M416.3,249.4c0.6,0.7,1.1,1.4,1.7,2l20.9-16.6c-0.7-0.8-1.3-1.7-2-2.5L416.3,249.4z"/>
			<path class="st0" d="M412.9,245.4c0.6,0.6,1.2,1.3,1.7,2l20.1-17.5c-0.7-0.8-1.4-1.6-2.1-2.4L412.9,245.4z"/>
			<path class="st0" d="M340,207.4c0.9,0.1,1.7,0.2,2.6,0.4l3.9-26.4c-1.1-0.2-2.1-0.3-3.2-0.4L340,207.4z"/>
			<path class="st0" d="M422.7,257.7c0.5,0.7,1,1.4,1.5,2.2l22.3-14.7c-0.6-0.9-1.2-1.8-1.8-2.7L422.7,257.7z"/>
			<path class="st0" d="M470.1,317.5c-0.1-1.1-0.1-2.1-0.2-3.2l-26.6,1.9c0.1,0.9,0.1,1.7,0.2,2.6L470.1,317.5z"/>
			<path class="st0" d="M212.1,233.5l20.7,16.8c0.6-0.7,1.1-1.3,1.7-2L214.2,231C213.5,231.8,212.8,232.6,212.1,233.5z"/>
			<path class="st0" d="M435,280.7c0.3,0.8,0.6,1.6,1,2.4l25-9.4c-0.4-1-0.8-2-1.2-3L435,280.7z"/>
			<path class="st0" d="M334.8,206.8c0.9,0.1,1.7,0.1,2.6,0.2l2.8-26.5c-1.1-0.1-2.1-0.2-3.2-0.3L334.8,206.8z"/>
			<path class="st0" d="M442.1,305.9c0.1,0.9,0.3,1.7,0.4,2.6l26.4-3.7c-0.1-1.1-0.3-2.1-0.5-3.2L442.1,305.9z"/>
			<path class="st0" d="M436.9,285.6c0.3,0.8,0.6,1.6,0.8,2.5l25.4-8.3c-0.3-1-0.7-2-1-3L436.9,285.6z"/>
			<path class="st0" d="M438.5,290.6c0.3,0.8,0.5,1.7,0.7,2.5l25.7-7.2c-0.3-1-0.6-2.1-0.9-3.1L438.5,290.6z"/>
			<path class="st0" d="M441.1,300.7c0.2,0.9,0.3,1.7,0.5,2.6l26.2-4.9c-0.2-1.1-0.4-2.1-0.6-3.2L441.1,300.7z"/>
			<path class="st0" d="M439.9,295.6c0.2,0.8,0.4,1.7,0.6,2.5l26-6c-0.2-1-0.5-2.1-0.8-3.1L439.9,295.6z"/>
			<path class="st0" d="M419.6,253.5c0.5,0.7,1.1,1.4,1.6,2.1l21.6-15.6c-0.6-0.9-1.3-1.7-1.9-2.6L419.6,253.5z"/>
			<path class="st0" d="M234.9,211l16.5,20.9c0.7-0.5,1.4-1.1,2.1-1.6L237.5,209C236.6,209.7,235.8,210.3,234.9,211z"/>
			<path class="st0" d="M245.3,203.5l14.7,22.3c0.7-0.5,1.5-0.9,2.2-1.4L248,201.7C247.1,202.3,246.2,202.9,245.3,203.5z"/>
			<path class="st0" d="M240,207.1l15.6,21.6c0.7-0.5,1.4-1,2.1-1.5l-15.1-22C241.8,205.9,240.9,206.5,240,207.1z"/>
			<path class="st0" d="M304.9,181.1l3.7,26.4c0.9-0.1,1.7-0.2,2.6-0.3l-3.1-26.5C307,180.8,306,181,304.9,181.1z"/>
			<path class="st0" d="M230,215.1l17.4,20.2c0.7-0.6,1.3-1.1,2-1.7l-17-20.6C231.6,213.7,230.8,214.4,230,215.1z"/>
			<path class="st0" d="M216.3,228.6l19.9,17.7c0.6-0.7,1.2-1.3,1.8-1.9l-19.5-18.1C217.7,227,217,227.8,216.3,228.6z"/>
			<path class="st0" d="M225.2,219.4l18.3,19.4c0.6-0.6,1.3-1.2,1.9-1.8l-17.9-19.8C226.8,217.9,226,218.6,225.2,219.4z"/>
			<path class="st0" d="M256.3,196.9l12.6,23.5c0.8-0.4,1.5-0.8,2.3-1.2l-12.1-23.8C258.2,195.9,257.3,196.4,256.3,196.9z"/>
			<path class="st0" d="M250.8,200.1l13.6,22.9c0.8-0.4,1.5-0.9,2.3-1.3l-13.1-23.2C252.6,199,251.7,199.5,250.8,200.1z"/>
			<path class="st0" d="M292.3,183.4l6,26c0.8-0.2,1.7-0.4,2.6-0.6l-5.4-26.1C294.4,183,293.3,183.2,292.3,183.4z"/>
			<path class="st0" d="M286.1,185l7.1,25.7c0.8-0.2,1.7-0.5,2.5-0.7l-6.6-25.9C288.1,184.4,287.1,184.7,286.1,185z"/>
			<path class="st0" d="M298.6,182.1l4.8,26.2c0.9-0.2,1.7-0.3,2.6-0.4l-4.2-26.3C300.7,181.8,299.6,181.9,298.6,182.1z"/>
			<path class="st0" d="M262,194l11.6,24c0.8-0.4,1.6-0.7,2.4-1.1l-11-24.3C264,193.1,263,193.5,262,194z"/>
			<path class="st0" d="M279.9,186.9l8.3,25.4c0.8-0.3,1.7-0.5,2.5-0.8l-7.7-25.6C281.9,186.2,280.9,186.5,279.9,186.9z"/>
			<path class="st0" d="M267.9,191.4l10.5,24.5c0.8-0.3,1.6-0.7,2.4-1l-9.9-24.8C269.8,190.5,268.9,190.9,267.9,191.4z"/>
			<path class="st0" d="M273.8,189l9.4,25c0.8-0.3,1.6-0.6,2.5-0.9l-8.8-25.2C275.8,188.2,274.8,188.6,273.8,189z"/>
			<path class="st0" d="M442.8,311.1c0.1,0.9,0.2,1.7,0.3,2.6l26.6-2.5c-0.1-1.1-0.2-2.1-0.3-3.2L442.8,311.1z"/>
			<path class="st0" d="M309.5,442.7c-0.9-0.1-1.7-0.2-2.6-0.4l-4,26.4c1.1,0.2,2.1,0.3,3.2,0.4L309.5,442.7z"/>
			<path class="st0" d="M279.2,434.6c-0.8-0.3-1.6-0.7-2.4-1l-10.8,24.4c1,0.4,2,0.9,3,1.3L279.2,434.6z"/>
			<path class="st0" d="M274.4,432.4c-0.8-0.4-1.6-0.8-2.4-1.1l-11.9,23.9c1,0.5,1.9,1,2.9,1.4L274.4,432.4z"/>
			<path class="st0" d="M269.7,430.1c-0.8-0.4-1.5-0.8-2.3-1.3l-13,23.3c0.9,0.5,1.9,1,2.8,1.5L269.7,430.1z"/>
			<path class="st0" d="M284.1,436.5c-0.8-0.3-1.6-0.6-2.5-0.9l-9.8,24.8c1,0.4,2,0.8,3,1.1L284.1,436.5z"/>
			<path class="st0" d="M304.3,441.9c-0.9-0.2-1.7-0.3-2.6-0.5l-5.2,26.2c1,0.2,2.1,0.4,3.2,0.6L304.3,441.9z"/>
			<path class="st0" d="M299.2,440.9c-0.9-0.2-1.7-0.4-2.5-0.6l-6.4,25.9c1,0.3,2.1,0.5,3.1,0.7L299.2,440.9z"/>
			<path class="st0" d="M294.1,439.7c-0.8-0.2-1.7-0.5-2.5-0.7l-7.5,25.6c1,0.3,2.1,0.6,3.1,0.9L294.1,439.7z"/>
			<path class="st0" d="M265.1,427.5c-0.8-0.4-1.5-0.9-2.3-1.4l-14,22.7c0.9,0.6,1.8,1.1,2.8,1.7L265.1,427.5z"/>
			<path class="st0" d="M318.8,470.2l1.1-26.7c-0.9,0-1.7-0.1-2.6-0.1l-1.7,26.6C316.7,470.1,317.8,470.2,318.8,470.2z"/>
			<path class="st0" d="M328.5,470.3c1.1,0,2.1-0.1,3.2-0.1l-1.2-26.6c-0.9,0-1.7,0.1-2.6,0.1L328.5,470.3z"/>
			<path class="st0" d="M334.9,470c1.1-0.1,2.1-0.2,3.2-0.3l-2.4-26.6c-0.9,0.1-1.7,0.1-2.6,0.2L334.9,470z"/>
			<path class="st0" d="M248,415.4c-0.7-0.6-1.3-1.1-2-1.7l-17.8,19.9c0.8,0.7,1.6,1.4,2.4,2.1L248,415.4z"/>
			<path class="st0" d="M260.6,424.8c-0.7-0.5-1.5-1-2.2-1.5l-15,22.1c0.9,0.6,1.8,1.2,2.7,1.8L260.6,424.8z"/>
			<path class="st0" d="M256.3,421.8c-0.7-0.5-1.4-1-2.1-1.5l-15.9,21.4c0.9,0.6,1.7,1.3,2.6,1.9L256.3,421.8z"/>
			<path class="st0" d="M223.6,429.2c0.8,0.7,1.5,1.5,2.3,2.2l18.2-19.5c-0.6-0.6-1.3-1.2-1.9-1.8L223.6,429.2z"/>
			<path class="st0" d="M252.1,418.7c-0.7-0.5-1.4-1.1-2-1.6l-16.9,20.7c0.8,0.7,1.7,1.3,2.5,2L252.1,418.7z"/>
			<path class="st0" d="M388.9,225.1c0.7,0.5,1.5,0.9,2.2,1.4l14.9-22.1c-0.9-0.6-1.8-1.2-2.7-1.8L388.9,225.1z"/>
			<path class="st0" d="M384.4,222.4c0.8,0.4,1.5,0.9,2.3,1.3l13.9-22.8c-0.9-0.6-1.8-1.1-2.8-1.6L384.4,222.4z"/>
			<path class="st0" d="M365.4,213.5c0.8,0.3,1.6,0.6,2.5,0.9l9.7-24.9c-1-0.4-2-0.8-3-1.1L365.4,213.5z"/>
			<path class="st0" d="M375.1,217.5c0.8,0.4,1.6,0.8,2.4,1.1l11.8-23.9c-1-0.5-1.9-0.9-2.9-1.4L375.1,217.5z"/>
			<path class="st0" d="M379.8,219.8c0.8,0.4,1.5,0.8,2.3,1.2l12.9-23.4c-0.9-0.5-1.9-1-2.8-1.5L379.8,219.8z"/>
			<path class="st0" d="M370.3,215.4c0.8,0.3,1.6,0.7,2.4,1l10.8-24.4c-1-0.4-2-0.9-3-1.3L370.3,215.4z"/>
			<path class="st0" d="M350.3,209.1c0.9,0.2,1.7,0.4,2.6,0.6l6.2-25.9c-1-0.2-2.1-0.5-3.1-0.7L350.3,209.1z"/>
			<path class="st0" d="M314.7,443.3c-0.9-0.1-1.7-0.2-2.6-0.3l-2.9,26.5c1.1,0.1,2.1,0.2,3.2,0.3L314.7,443.3z"/>
			<path class="st0" d="M355.4,210.4c0.8,0.2,1.7,0.5,2.5,0.7l7.4-25.6c-1-0.3-2.1-0.6-3.1-0.9L355.4,210.4z"/>
			<path class="st0" d="M360.4,211.8c0.8,0.3,1.7,0.5,2.5,0.8l8.5-25.3c-1-0.3-2-0.7-3.1-1L360.4,211.8z"/>
			<path class="st0" d="M330.5,179.9l-1,26.7c0.9,0,1.7,0.1,2.6,0.1l1.6-26.6C332.7,180,331.6,179.9,330.5,179.9z"/>
			<path class="st0" d="M320.9,179.8c-1.1,0-2.1,0.1-3.2,0.1l1.3,26.6c0.9,0,1.7-0.1,2.6-0.1L320.9,179.8z"/>
			<path class="st0" d="M314.5,180.1c-1.1,0.1-2.1,0.2-3.2,0.3l2.5,26.6c0.9-0.1,1.7-0.2,2.6-0.2L314.5,180.1z"/>
			<path class="st0" d="M401.6,234.5c0.7,0.6,1.3,1.1,2,1.7l17.7-20c-0.8-0.7-1.6-1.4-2.4-2.1L401.6,234.5z"/>
			<path class="st0" d="M397.5,231.2c0.7,0.5,1.4,1.1,2.1,1.6l16.8-20.7c-0.8-0.7-1.7-1.3-2.5-2L397.5,231.2z"/>
			<path class="st0" d="M425.9,220.6c-0.8-0.7-1.5-1.5-2.3-2.2L405.5,238c0.6,0.6,1.3,1.2,1.9,1.8L425.9,220.6z"/>
			<path class="st0" d="M393.3,228c0.7,0.5,1.4,1,2.1,1.5l15.9-21.5c-0.9-0.6-1.7-1.3-2.6-1.9L393.3,228z"/>
			<path class="st0" d="M345.2,208.1c0.9,0.1,1.7,0.3,2.6,0.5l5.1-26.2c-1.1-0.2-2.1-0.4-3.2-0.6L345.2,208.1z"/>
			<path class="st0" d="M289.1,438.2c-0.8-0.3-1.7-0.5-2.5-0.8l-8.6,25.3c1,0.3,2,0.7,3.1,1L289.1,438.2z"/>
			<path class="st0" d="M441.4,412l-21.4-16c-0.5,0.7-1.1,1.4-1.6,2.1l21,16.4C440.1,413.7,440.8,412.9,441.4,412z"/>
			<path class="st0" d="M424.3,431.1L406,411.7c-0.6,0.6-1.3,1.2-1.9,1.8l17.8,19.9C422.7,432.6,423.5,431.9,424.3,431.1z"/>
			<path class="st0" d="M433.2,422l-19.9-17.8c-0.6,0.7-1.2,1.3-1.8,1.9l19.5,18.2C431.8,423.6,432.5,422.8,433.2,422z"/>
			<path class="st0" d="M445.1,406.8l-22-15c-0.5,0.7-1,1.4-1.5,2.2l21.7,15.5C443.9,408.6,444.5,407.7,445.1,406.8z"/>
			<path class="st0" d="M460.2,378.4l-24.8-9.8c-0.3,0.8-0.7,1.6-1,2.4l24.6,10.4C459.4,380.4,459.8,379.4,460.2,378.4z"/>
			<path class="st0" d="M448.7,401.4l-22.7-14c-0.5,0.7-0.9,1.5-1.4,2.2l22.4,14.5C447.5,403.2,448.1,402.3,448.7,401.4z"/>
			<path class="st0" d="M457.7,384.4l-24.4-10.9c-0.4,0.8-0.7,1.6-1.1,2.4l24.1,11.4C456.8,386.3,457.3,385.4,457.7,384.4z"/>
			<path class="st0" d="M454.9,390.2l-23.8-12c-0.4,0.8-0.8,1.6-1.2,2.3l23.6,12.5C454,392.1,454.5,391.2,454.9,390.2z"/>
			<path class="st0" d="M451.9,395.9l-23.3-13c-0.4,0.8-0.9,1.5-1.3,2.3l23,13.5C450.9,397.8,451.4,396.8,451.9,395.9z"/>
			<path class="st0" d="M437.4,417.1l-20.6-16.9c-0.6,0.7-1.1,1.3-1.7,2l20.3,17.4C436.1,418.7,436.8,417.9,437.4,417.1z"/>
			<path class="st0" d="M387.4,456.4l-11.5-24.1c-0.8,0.4-1.6,0.7-2.4,1.1l10.9,24.3C385.4,457.3,386.4,456.8,387.4,456.4z"/>
			<path class="st0" d="M419.5,435.4l-17.4-20.2c-0.7,0.6-1.3,1.1-2,1.7l16.9,20.6C417.9,436.8,418.7,436.1,419.5,435.4z"/>
			<path class="st0" d="M398.7,450.4l-13.6-23c-0.8,0.4-1.5,0.9-2.3,1.3l13,23.3C396.8,451.4,397.8,450.9,398.7,450.4z"/>
			<path class="st0" d="M381.5,459l-10.4-24.6c-0.8,0.3-1.6,0.7-2.4,1l9.9,24.8C379.6,459.8,380.5,459.4,381.5,459z"/>
			<path class="st0" d="M393.1,453.5l-12.5-23.6c-0.8,0.4-1.5,0.8-2.3,1.2l12,23.8C391.2,454.5,392.2,454,393.1,453.5z"/>
			<path class="st0" d="M404.1,447l-14.5-22.4c-0.7,0.5-1.5,0.9-2.2,1.4l14.1,22.7C402.3,448.1,403.2,447.6,404.1,447z"/>
			<path class="st0" d="M414.5,439.5l-16.5-21c-0.7,0.5-1.4,1.1-2.1,1.6l16,21.3C412.9,440.8,413.7,440.2,414.5,439.5z"/>
			<path class="st0" d="M409.4,443.4l-15.5-21.7c-0.7,0.5-1.4,1-2.1,1.5l15,22C407.7,444.6,408.5,444,409.4,443.4z"/>
			<path class="st0" d="M324.1,179.8l0.2,26.7c0.2,0,0.5,0,0.7,0c0.6,0,1.3,0,1.9,0l0.4-26.7c-0.8,0-1.6,0-2.4,0
				C324.7,179.8,324.4,179.8,324.1,179.8z"/>
			<path class="st0" d="M206.4,328.2c0-0.9,0-1.7,0-2.6l-26.7,0.1c0,1.1,0,2.1,0,3.2L206.4,328.2z"/>
			<path class="st0" d="M409.3,241.6c0.6,0.6,1.2,1.2,1.8,1.9l19.4-18.3c-0.7-0.8-1.5-1.5-2.2-2.3L409.3,241.6z"/>
			<path class="st0" d="M375.6,461.4l-9.3-25c-0.8,0.3-1.6,0.6-2.5,0.9l8.7,25.2C373.6,462.1,374.6,461.7,375.6,461.4z"/>
			<path class="st0" d="M240.3,408.2c-0.6-0.6-1.2-1.3-1.8-1.9l-19.4,18.3c0.7,0.8,1.5,1.5,2.2,2.3L240.3,408.2z"/>
			<path class="st0" d="M239.8,242.5c0.4-0.4,0.8-0.9,1.3-1.3c0.2-0.2,0.4-0.4,0.6-0.6l-18.7-19c-0.2,0.2-0.5,0.5-0.7,0.7
				c-0.5,0.5-1,1.1-1.5,1.6L239.8,242.5z"/>
			<path class="st0" d="M208.2,238.5l21.4,15.9c0.5-0.7,1.1-1.4,1.6-2.1L210.1,236C209.5,236.8,208.8,237.7,208.2,238.5z"/>
			<path class="st0" d="M409.8,408c-0.3,0.3-0.6,0.6-0.9,1c-0.3,0.3-0.6,0.6-0.9,0.9l18.7,19.1c0.4-0.4,0.8-0.7,1.1-1.1
				c0.4-0.4,0.8-0.8,1.1-1.2L409.8,408z"/>
			<path class="st0" d="M325.3,470.4l-0.1-26.7c-0.1,0-0.2,0-0.2,0c-0.8,0-1.6,0-2.4,0l-0.5,26.7c1,0,1.9,0,2.9,0
				C325.1,470.4,325.2,470.4,325.3,470.4z"/>
			<path class="st0" d="M462.4,372.4l-25.2-8.7c-0.3,0.8-0.6,1.7-0.9,2.5l25,9.2C461.7,374.4,462.1,373.4,462.4,372.4z"/>
			<path class="st0" d="M467.5,353.8l-26.2-5.2c-0.2,0.9-0.4,1.7-0.5,2.6l26,5.8C467,355.9,467.2,354.8,467.5,353.8z"/>
			<path class="st0" d="M468.6,347.4l-26.4-4.1c-0.1,0.9-0.3,1.7-0.4,2.6l26.3,4.7C468.2,349.6,468.4,348.5,468.6,347.4z"/>
			<path class="st0" d="M466.1,360l-25.9-6.4c-0.2,0.8-0.4,1.7-0.7,2.5l25.8,7C465.5,362.1,465.8,361.1,466.1,360z"/>
			<path class="st0" d="M464.4,366.2l-25.6-7.5c-0.2,0.8-0.5,1.7-0.8,2.5l25.4,8.1C463.8,368.3,464.1,367.3,464.4,366.2z"/>
			<path class="st0" d="M470.2,320.7l-26.7,0.8c0,0.9,0,1.7,0,2.6l26.7-0.2C470.3,322.9,470.2,321.8,470.2,320.7z"/>
			<path class="st0" d="M470.2,328.3l-26.7-0.6c0,0.9,0,1.8-0.1,2.6l26.6,1.2C470.2,330.4,470.2,329.3,470.2,328.3z"/>
			<path class="st0" d="M470,334.7l-26.6-1.7c-0.1,0.9-0.1,1.7-0.2,2.6l26.6,2.3C469.8,336.8,469.9,335.8,470,334.7z"/>
			<path class="st0" d="M469.4,341.1l-26.5-2.9c-0.1,0.9-0.2,1.7-0.3,2.6l26.4,3.5C469.2,343.2,469.3,342.1,469.4,341.1z"/>
			<path class="st0" d="M227,392.1c-0.5-0.7-1-1.4-1.5-2.2l-22.3,14.6c0.6,0.9,1.2,1.8,1.8,2.7L227,392.1z"/>
			<path class="st0" d="M182.4,296.9l26.2,5.1c0.2-0.9,0.3-1.7,0.5-2.6l-26.1-5.7C182.8,294.8,182.6,295.9,182.4,296.9z"/>
			<path class="st0" d="M181.3,303.3l26.4,4c0.1-0.9,0.3-1.7,0.4-2.6l-26.3-4.6C181.6,301.1,181.4,302.2,181.3,303.3z"/>
			<path class="st0" d="M183.7,290.6l25.9,6.3c0.2-0.8,0.4-1.7,0.6-2.5l-25.8-6.9C184.3,288.6,184,289.6,183.7,290.6z"/>
			<path class="st0" d="M180.5,309.6l26.5,2.8c0.1-0.9,0.2-1.7,0.3-2.6l-26.5-3.4C180.7,307.5,180.6,308.6,180.5,309.6z"/>
			<path class="st0" d="M185.4,284.4l25.6,7.4c0.2-0.8,0.5-1.7,0.8-2.5l-25.5-8C186,282.4,185.7,283.4,185.4,284.4z"/>
			<path class="st0" d="M207.1,338.6c-0.1-0.9-0.2-1.7-0.3-2.6l-26.6,2.4c0.1,1.1,0.2,2.1,0.3,3.2L207.1,338.6z"/>
			<path class="st0" d="M180,335.2l26.6-1.8c-0.1-0.9-0.1-1.7-0.2-2.6l-26.6,1.3C179.9,333.1,179.9,334.2,180,335.2z"/>
			<path class="st0" d="M179.7,322.4l26.7,0.5c0-0.9,0-1.8,0.1-2.6l-26.7-1.1C179.7,320.3,179.7,321.4,179.7,322.4z"/>
			<path class="st0" d="M179.9,316l26.6,1.6c0.1-0.9,0.1-1.7,0.2-2.6l-26.6-2.2C180.1,313.9,180,315,179.9,316z"/>
			<path class="st0" d="M204.5,243.8l22.1,14.9c0.5-0.7,1-1.4,1.5-2.2l-21.8-15.4C205.7,242,205.1,242.9,204.5,243.8z"/>
			<path class="st0" d="M207.8,343.8c-0.1-0.9-0.3-1.7-0.4-2.6l-26.4,3.6c0.1,1.1,0.3,2.1,0.5,3.2L207.8,343.8z"/>
			<path class="st0" d="M201,249.2l22.7,13.9c0.5-0.7,0.9-1.5,1.4-2.2l-22.4-14.4C202.1,247.4,201.5,248.3,201,249.2z"/>
			<path class="st0" d="M369.5,463.5l-8.2-25.4c-0.8,0.3-1.7,0.5-2.5,0.8l7.6,25.6C367.4,464.1,368.5,463.8,369.5,463.5z"/>
			<path class="st0" d="M197.7,254.7l23.3,12.9c0.4-0.8,0.9-1.5,1.3-2.3L199.3,252C198.8,252.9,198.3,253.8,197.7,254.7z"/>
			<path class="st0" d="M189.5,272.2l24.9,9.7c0.3-0.8,0.6-1.6,1-2.4l-24.6-10.3C190.3,270.2,189.9,271.2,189.5,272.2z"/>
			<path class="st0" d="M187.3,278.3l25.3,8.6c0.3-0.8,0.6-1.7,0.9-2.5l-25.1-9.1C188,276.3,187.7,277.3,187.3,278.3z"/>
			<path class="st0" d="M192,266.3l24.4,10.8c0.4-0.8,0.7-1.6,1.1-2.4l-24.2-11.3C192.9,264.3,192.4,265.3,192,266.3z"/>
			<path class="st0" d="M194.7,260.4l23.9,11.9c0.4-0.8,0.8-1.6,1.2-2.3l-23.6-12.4C195.7,258.5,195.2,259.5,194.7,260.4z"/>
			<path class="st0" d="M211.3,359.1c-0.2-0.8-0.5-1.7-0.7-2.5l-25.7,7.1c0.3,1,0.6,2.1,0.9,3.1L211.3,359.1z"/>
			<path class="st0" d="M236.7,404.4c-0.6-0.7-1.2-1.3-1.7-2l-20.2,17.4c0.7,0.8,1.4,1.6,2.1,2.4L236.7,404.4z"/>
			<path class="st0" d="M233.3,400.4c-0.6-0.7-1.1-1.4-1.6-2l-21,16.5c0.7,0.8,1.3,1.7,2,2.5L233.3,400.4z"/>
			<path class="st0" d="M208.7,349c-0.2-0.9-0.3-1.7-0.5-2.6l-26.3,4.8c0.2,1.1,0.4,2.1,0.6,3.2L208.7,349z"/>
			<path class="st0" d="M230.1,396.3c-0.5-0.7-1-1.4-1.6-2.1l-21.7,15.6c0.6,0.9,1.3,1.7,1.9,2.6L230.1,396.3z"/>
			<path class="st0" d="M350.8,468.1l-4.7-26.3c-0.9,0.2-1.7,0.3-2.6,0.4l4.1,26.4C348.7,468.5,349.7,468.3,350.8,468.1z"/>
			<path class="st0" d="M363.3,465.3l-7-25.7c-0.8,0.2-1.7,0.5-2.5,0.7l6.4,25.9C361.3,465.8,362.3,465.6,363.3,465.3z"/>
			<path class="st0" d="M224.1,387.7c-0.5-0.7-0.9-1.5-1.4-2.2l-23,13.6c0.5,0.9,1.1,1.8,1.7,2.7L224.1,387.7z"/>
			<path class="st0" d="M357.1,466.8l-5.9-26c-0.9,0.2-1.7,0.4-2.6,0.5l5.3,26.2C355,467.3,356,467.1,357.1,466.8z"/>
			<path class="st0" d="M344.4,469.1l-3.5-26.4c-0.9,0.1-1.7,0.2-2.6,0.3l3,26.5C342.3,469.4,343.4,469.2,344.4,469.1z"/>
			<path class="st0" d="M212.9,364.1c-0.3-0.8-0.6-1.7-0.8-2.5l-25.4,8.2c0.3,1,0.7,2,1,3L212.9,364.1z"/>
			<path class="st0" d="M209.9,354.1c-0.2-0.8-0.4-1.7-0.6-2.6l-26,5.9c0.2,1,0.5,2.1,0.7,3.1L209.9,354.1z"/>
			<path class="st0" d="M214.7,369c-0.3-0.8-0.6-1.6-0.9-2.4l-25,9.3c0.4,1,0.8,2,1.2,3L214.7,369z"/>
			<path class="st0" d="M219,378.6c-0.4-0.8-0.8-1.6-1.2-2.3l-24.1,11.5c0.5,1,0.9,1.9,1.4,2.9L219,378.6z"/>
			<path class="st0" d="M216.8,373.8c-0.4-0.8-0.7-1.6-1-2.4l-24.6,10.4c0.4,1,0.8,2,1.3,2.9L216.8,373.8z"/>
			<path class="st0" d="M221.5,383.2c-0.4-0.8-0.9-1.5-1.3-2.3l-23.5,12.6c0.5,0.9,1,1.9,1.5,2.8L221.5,383.2z"/>
		</g>
	</g>
	<g>
		<path class="st3" d="M177.3,136.1H136v41.4C148,162,161.9,148.2,177.3,136.1z"/>
		<path class="st3" d="M514.3,178v-41.9h-41.7C488.2,148.3,502.2,162.4,514.3,178z"/>
		<path class="st3" d="M473.3,513.4h41v-41.3C502.4,487.5,488.6,501.4,473.3,513.4z"/>
		<path class="st3" d="M135.6,472.2v41.3h41C161.3,501.4,147.5,487.5,135.6,472.2z"/>
		<path class="st3" d="M354.2,87.1L325,57.8l-29.2,29.2c9.6-1.2,19.3-1.8,29.2-1.8C334.9,85.3,344.6,85.9,354.2,87.1z"/>
		<path class="st3" d="M296.7,563.2l29,29l29.2-29.2c-9.8,1.2-19.8,1.8-29.9,1.8C315.4,564.9,306,564.3,296.7,563.2z"/>
	</g>
	<g>
		<path class="st3" d="M254.6,233.2c-4,3.1-7.8,6.4-11.5,10.1c-3.6,3.6-7,7.5-10.1,11.5h21.5V233.2z"/>
		<path class="st3" d="M416.9,254.7c-3.1-4-6.4-7.8-10.1-11.5c-3.5-3.5-7.2-6.8-11.1-9.8v21.2H416.9z"/>
		<path class="st3" d="M417.3,394.8h-21.6v21.8c3.9-3,7.6-6.3,11.1-9.8C410.6,403.1,414.1,399.1,417.3,394.8z"/>
		<path class="st3" d="M232.6,394.8c3.2,4.2,6.7,8.3,10.5,12.1c3.5,3.5,7.2,6.8,11.1,9.8v-21.8H232.6z"/>
		<path class="st3" d="M340.2,210.3c-5-0.7-10.1-1-15.2-1c-5.1,0-10.2,0.3-15.2,1l15.2,15.2L340.2,210.3z"/>
		<path class="st3" d="M310.2,439.9c4.8,0.6,9.8,0.9,14.7,0.9c5.4,0,10.7-0.4,16-1.1l-15.3-15.3L310.2,439.9z"/>
	</g>
	<g>
		<g>
			<path d="M253.8,115.9l-3.3,1.1l-0.8-2.4l9.3-3.1l0.8,2.4l-3.3,1.1l3,9l-2.7,0.9L253.8,115.9z"/>
			<path d="M262.7,110.4l2.7-0.7l1.2,4.6l4-1.1l-1.2-4.6l2.7-0.7l3.1,11.5l-2.7,0.7l-1.2-4.5l-4,1.1l1.2,4.5l-2.7,0.7L262.7,110.4z"
				/>
			<path d="M277.3,106.8l7.1-1.4l0.5,2.5l-4.3,0.9l0.4,2.1l3.4-0.7l0.5,2.5l-3.4,0.7l0.4,2.2l4.5-0.9l0.5,2.5l-7.3,1.5L277.3,106.8z
				"/>
			<path d="M294.7,103.7l2.8-0.3l1.1,9.4l4.7-0.6l0.3,2.5l-7.4,0.9L294.7,103.7z"/>
			<path d="M306.1,102.5l7.2-0.5l0.2,2.5l-4.4,0.3l0.1,2.2l3.5-0.2l0.2,2.5l-3.5,0.2l0.2,2.2l4.6-0.3l0.2,2.5l-7.4,0.5L306.1,102.5z
				"/>
			<path d="M323.8,111.1l-3.6,0.1l-0.6,2.5l-2.9,0l3.7-12l3,0l4.1,11.9l-2.9,0L323.8,111.1z M321.9,104.4c0,0-0.2,1.3-0.4,2.1
				l-0.6,2.3l2.3,0l-0.7-2.3C322.2,105.7,321.9,104.4,321.9,104.4L321.9,104.4z"/>
			<path d="M336.3,101.8c2.9,0.1,4.3,1.8,4.3,1.8l-1.5,2.1c0,0-1.1-1.2-2.7-1.2c-2.4-0.1-3.5,1.4-3.5,3.2c-0.1,2.3,1.3,3.7,3.1,3.8
				c1.3,0.1,2.4-0.8,2.4-0.8l0-0.9l-1.6-0.1l0.1-2.5l4.1,0.2l-0.3,6.7l-2.3-0.1l0-0.3c0-0.3,0-0.5,0-0.5l0,0c0,0-1.2,1-3.1,0.9
				c-2.9-0.1-5.5-2.6-5.3-6.5C330.1,104.2,332.8,101.6,336.3,101.8z"/>
			<path d="M345.7,102.6l2.8,0.3l-0.9,7.5c-0.1,1.2,0.6,2,1.8,2.1c1.2,0.1,2.1-0.4,2.2-1.7l0.9-7.5l2.8,0.3l-0.9,7.5
				c-0.3,2.7-2.4,4.3-5.3,4c-2.9-0.3-4.6-2.4-4.3-5.1L345.7,102.6z"/>
			<path d="M360.2,104.4l7.1,1.2l-0.4,2.5l-4.3-0.8l-0.4,2.1l3.5,0.6l-0.4,2.5l-3.5-0.6l-0.4,2.2l4.5,0.8l-0.4,2.5l-7.3-1.3
				L360.2,104.4z"/>
			<path d="M382.8,109c3.4,0.9,5.1,4.1,4.2,7.4c-0.9,3.4-4.1,5.4-7.4,4.5c-3.4-0.9-5.1-4.2-4.2-7.6
				C376.3,110.1,379.4,108.1,382.8,109z M380.3,118.4c1.7,0.4,3.4-0.7,3.9-2.7c0.5-1.9-0.5-3.7-2.1-4.1c-1.7-0.4-3.4,0.6-3.9,2.5
				C377.7,116.1,378.6,117.9,380.3,118.4z"/>
			<path d="M392.7,112.1l6.7,2.2l-0.8,2.4l-4-1.3l-0.8,2.4l3.3,1.1l-0.8,2.4l-3.3-1.1l-1.4,4.2l-2.7-0.9L392.7,112.1z"/>
		</g>
	</g>
	<g>
		<g>
			<g>
				<path d="M285.9,535.6l5.8,1l-0.3,2l-3.5-0.6l-0.3,1.7l2.8,0.5l-0.3,2l-2.8-0.5l-0.3,1.8l3.7,0.6l-0.3,2l-5.9-1L285.9,535.6z"/>
				<path d="M295.6,543.8c0,0,0.9,1.1,2.1,1.3c0.5,0.1,1-0.1,1.1-0.6c0.1-1.1-4-1.6-3.7-4.6c0.2-1.8,1.8-2.8,3.6-2.5
					c2,0.2,2.8,1.5,2.8,1.5l-1.2,1.8c0,0-0.8-1-1.9-1.1c-0.5-0.1-1,0.1-1.1,0.6c-0.1,1.2,4,1.5,3.7,4.5c-0.2,1.6-1.5,2.8-3.6,2.6
					c-2.2-0.3-3.2-1.8-3.2-1.8L295.6,543.8z"/>
				<path d="M307.4,540.5l-2.8-0.2l0.2-2l7.9,0.6l-0.2,2l-2.8-0.2l-0.6,7.6l-2.3-0.2L307.4,540.5z"/>
				<path d="M315,546.4l2.1,0.1l-0.1,2.2l-2.1-0.1L315,546.4z"/>
				<path d="M326.9,547.8c-0.1-3.6,3.9-4.3,3.9-5.7c0-0.7-0.5-0.9-1-0.9c-0.9,0-1.4,1.1-1.4,1.1l-1.7-1.1c0,0,0.8-2.1,3.2-2.2
					c1.5,0,3.2,0.8,3.2,2.9c0.1,3-3.7,3.7-3.7,4.9l4-0.1l0,2l-6.4,0.2C327,548.4,327,548.1,326.9,547.8z"/>
				<path d="M337.4,543.6c-0.2-2.8,0.5-5,3.1-5.2c2.6-0.2,3.7,1.9,3.9,4.7c0.2,2.8-0.5,5.1-3.1,5.3
					C338.6,548.6,337.6,546.4,337.4,543.6z M342,543.3c-0.1-1.6-0.5-2.8-1.4-2.7s-1.1,1.3-1,2.9c0.1,1.6,0.5,2.8,1.4,2.8
					C342,546.1,342.1,544.9,342,543.3z"/>
				<path d="M348.7,545.5l2-0.2l-0.5-4c0-0.4-0.1-0.7-0.1-0.7l0,0c0,0-0.1,0.3-0.3,0.6l-0.5,0.6l-1.5-1.3l2.2-2.7l2-0.2l0.9,7.6
					l2-0.2l0.2,2l-6.2,0.7L348.7,545.5z"/>
				<path d="M358.1,541.9c-0.4-2.6,0.6-5.6,3.5-6c1.3-0.2,2.1,0.1,2.1,0.1l-0.3,2.1c0,0-0.7-0.2-1.3-0.1c-1.1,0.2-1.6,1-1.7,1.9l0,0
					c0.2-0.2,0.8-0.5,1.2-0.5c1.9-0.3,3.3,1.1,3.6,2.8c0.3,1.6-0.6,3.4-2.6,3.7C360.8,546.1,358.6,545,358.1,541.9z M363,542.4
					c-0.1-0.7-0.6-1.3-1.6-1.2c-0.5,0.1-0.9,0.3-0.9,0.7c0.2,1.1,1.1,1.8,1.7,1.7C362.8,543.6,363.1,543,363,542.4z"/>
			</g>
		</g>
	</g>
	<g>
		<g>
			<path d="M180.9,454c-1.1,0.2-2.1,0.2-3.2,0c-1-0.2-2-0.7-3-1.4c-0.9-0.7-1.8-1.5-2.6-2.5l-8.3-10.3l0.7-0.6l1.9,2.4l20.7-16.6
				l-1.9-2.4l0.7-0.6l7.9,9.9c0.7,0.9,1.3,1.9,1.8,2.8c0.5,1,0.7,1.9,0.8,2.9c0.1,1-0.1,1.9-0.6,2.8c-0.4,0.9-1.2,1.8-2.2,2.6
				c-1,0.8-2.1,1.3-3.4,1.5c-1.2,0.2-2.5,0-3.6-0.6c0.5,1.6,0.5,3.2,0,4.6c-0.5,1.5-1.3,2.7-2.7,3.8
				C183.1,453.2,182,453.8,180.9,454z M182.5,446.2c0.2-0.5,0.3-1.1,0.3-1.7c0-0.6-0.2-1.1-0.5-1.7c-0.3-0.6-0.6-1.1-1-1.6l-2.2-2.7
				l-6.2,4.9l2.2,2.7c0.4,0.5,0.8,1,1.3,1.4c0.5,0.4,1,0.7,1.5,0.9c0.5,0.2,1.1,0.2,1.6,0.2c0.6-0.1,1.1-0.4,1.7-0.9
				C181.9,447.2,182.3,446.7,182.5,446.2z M191.1,438.3c0.2-0.4,0.3-0.9,0.2-1.4c0-0.5-0.2-0.9-0.4-1.4c-0.2-0.5-0.5-0.9-0.9-1.3
				l-2.2-2.7l-5.3,4.2l2.3,2.9c0.7,0.9,1.5,1.4,2.4,1.7c0.9,0.3,1.8,0,2.7-0.7C190.6,439.2,190.9,438.8,191.1,438.3z"/>
			<path d="M222.4,460.9l-11.5,13.4c-1,1.2-2.1,2.2-3.3,2.8c-1.2,0.7-2.4,1.1-3.6,1.2c-1.2,0.1-2.5,0-3.8-0.5
				c-1.3-0.5-2.5-1.2-3.7-2.3c-1.3-1.1-2.2-2.2-2.9-3.4c-0.6-1.2-1-2.4-1-3.6c-0.1-1.2,0.2-2.5,0.7-3.8c0.5-1.3,1.3-2.5,2.3-3.8
				l11.4-13.3l-2.3-2l0.6-0.7l8.4,7.2l-0.6,0.7l-2-1.7l-11,12.9c-0.5,0.6-1,1.2-1.3,1.9c-0.4,0.6-0.6,1.3-0.7,1.9
				c-0.1,0.6,0,1.3,0.3,1.9c0.2,0.6,0.7,1.3,1.4,1.9c0.7,0.6,1.4,1,2,1.1c0.7,0.1,1.3,0.1,2-0.1c0.6-0.2,1.2-0.5,1.8-0.9
				c0.6-0.4,1.1-1,1.6-1.6l11-12.9l-2-1.7l0.6-0.7l8.4,7.2l-0.6,0.7L222.4,460.9z"/>
			<path d="M245.8,497.2c-1.4,1.2-3,2.1-4.7,2.6c-1.7,0.5-3.4,0.7-5.3,0.4c-1.8-0.2-3.7-0.8-5.5-1.8l-11.8-6.4l0.5-0.8l2.7,1.5
				l12.7-23.3l-2.7-1.5l0.5-0.8l11.9,6.5c1.9,1,3.4,2.2,4.6,3.7c1.2,1.4,2,3,2.5,4.7c0.5,1.7,0.6,3.5,0.3,5.3
				c-0.3,1.9-0.9,3.7-1.9,5.6C248.5,494.5,247.3,496,245.8,497.2z M246.1,482.8c-0.5-2.2-2.2-4-4.9-5.4l-3.8-2.1l-8.9,16.4l3.7,2
				c2.6,1.4,5,1.8,7.1,1.2c2.2-0.6,4-2.2,5.4-4.9C246.2,487.4,246.6,485,246.1,482.8z"/>
			<path d="M282.3,498.2l1.2-4l-7-2.2l-6.7,21.7l3,0.9l-0.3,0.9l-11.1-3.4l0.3-0.9l3,0.9l6.7-21.7l-7-2.2l-1.2,4l-1.1-0.3l2.6-8.6
				l21.4,6.6l-2.6,8.6L282.3,498.2z"/>
			<path d="M293.3,520.2l0.1-1l3.1,0.3l2.8-26.4l-3.1-0.3l0.1-1l21,2.2l-0.9,8.5l-1-0.1l0.4-3.7l-11.4-1.2l-0.7,7.1l8.2,0.9
				l-0.4,4.2l-8.2-0.9l-0.8,7.5l11.4,1.2l0.4-3.8l1,0.1l-0.9,8.6L293.3,520.2z"/>
			<path d="M354.4,492.9l2.8,27.3l-5,0.5L337,503.5l1.8,17.7l3.1-0.3l0.1,1l-11.5,1.2l-0.1-1l3.1-0.3l-2.7-26.4l-3.1,0.3l-0.1-1
				l7.9-0.8l15.4,17.6l-1.9-18l-3.1,0.3l-0.1-1l11.5-1.2l0.1,1L354.4,492.9z"/>
			<path d="M398.7,499.6c-0.1,1.9-0.5,3.6-1.2,5.2c-0.8,1.6-1.8,3-3.2,4.2c-1.4,1.2-3.1,2.2-5,2.8l-12.7,4.4l-0.3-0.9l2.9-1
				l-8.7-25.1l-2.9,1l-0.3-0.9l12.8-4.4c2-0.7,3.9-1,5.8-0.9c1.9,0.1,3.6,0.5,5.1,1.3c1.6,0.8,2.9,1.9,4.1,3.4
				c1.2,1.4,2.1,3.2,2.8,5.2C398.5,495.8,398.8,497.7,398.7,499.6z M388.3,489.7c-2-1-4.4-1.1-7.3-0.1l-4.1,1.4l6.1,17.7l4-1.4
				c2.8-1,4.7-2.5,5.7-4.5c1-2,1-4.4,0-7.3C391.7,492.7,390.2,490.8,388.3,489.7z"/>
			<path d="M414.1,501.6l-0.5-0.8l2.7-1.6l-13.2-23l-2.7,1.6l-0.5-0.8l18.3-10.5l4.3,7.4l-0.9,0.5l-1.8-3.2l-10,5.7l3.5,6.1l7.2-4.1
				l2.1,3.7l-7.2,4.1l3.8,6.5l10-5.7l-1.9-3.3l0.9-0.5l4.3,7.5L414.1,501.6z"/>
			<path d="M458.3,470.7l-14.9-4l7.8,8.9l1.8-1.6l0.6,0.7l-8.2,7.2l-0.6-0.7l2.3-2l-17.4-20l-2.3,2l-0.6-0.7l9.6-8.3
				c1.1-1,2.3-1.8,3.6-2.3c1.3-0.6,2.5-0.9,3.8-0.9c1.3,0,2.5,0.2,3.7,0.8c1.2,0.6,2.4,1.4,3.4,2.7c0.7,0.8,1.2,1.6,1.6,2.6
				c0.4,1,0.6,1.9,0.7,2.9c0.1,1-0.1,2-0.4,3c-0.3,1-0.8,1.8-1.6,2.6l10.6,3l1.2-1.1l0.6,0.7L458.3,470.7z M445.1,454.6
				c-0.6-0.3-1.3-0.4-1.9-0.4c-0.6,0-1.3,0.2-1.9,0.5c-0.6,0.3-1.3,0.7-1.9,1.2l-3.1,2.7l6.7,7.8l2.2-1.9c0.7-0.6,1.2-1.2,1.7-1.8
				c0.5-0.7,0.8-1.3,1-2c0.2-0.7,0.2-1.4,0.1-2.2c-0.2-0.8-0.6-1.5-1.2-2.3C446.4,455.4,445.8,454.9,445.1,454.6z"/>
			<path d="M481.4,437.9c0.5,1.1,0.7,2.3,0.7,3.6c0,1.2-0.2,2.5-0.6,3.7c-0.4,1.2-1,2.3-1.8,3.3c-0.3,0.4-0.7,0.8-1.2,1.3
				c-0.5,0.4-1,0.8-1.5,1.2c-0.5,0.4-1.1,0.6-1.7,0.9c-0.6,0.2-1.1,0.3-1.7,0.4l1.5,1.2l-0.7,0.9l-6.6-5.2l1.1-1.4
				c0.5,0.4,1.1,0.6,1.7,0.7c0.6,0.1,1.3,0,1.9-0.2c0.6-0.2,1.2-0.5,1.8-0.8c0.6-0.4,1-0.8,1.4-1.2c0.3-0.4,0.6-0.9,0.9-1.5
				c0.3-0.6,0.4-1.2,0.5-1.8c0.1-0.6,0.1-1.2-0.1-1.8c-0.2-0.6-0.5-1.1-1-1.5c-0.8-0.6-1.6-0.8-2.4-0.7c-0.8,0.2-1.7,0.6-2.7,1.1
				c-0.9,0.6-1.9,1.2-2.9,1.9c-1,0.7-2.1,1.2-3.2,1.7c-1.1,0.4-2.3,0.6-3.5,0.4c-1.2-0.1-2.5-0.7-3.8-1.8c-0.9-0.7-1.6-1.7-2-2.8
				c-0.4-1.1-0.6-2.3-0.6-3.4c0-1.2,0.2-2.4,0.6-3.5c0.4-1.2,1-2.2,1.6-3c0.3-0.4,0.7-0.8,1.1-1.2c0.4-0.4,0.9-0.8,1.4-1.2
				c0.5-0.4,1-0.6,1.5-0.9c0.5-0.2,1.1-0.3,1.6-0.3l-1.2-1l0.6-0.7l6,4.7l-1,1.3c-0.4-0.3-0.9-0.5-1.5-0.5c-0.6,0-1.1,0.1-1.7,0.2
				c-0.6,0.2-1.1,0.4-1.6,0.8c-0.5,0.3-0.9,0.7-1.2,1.1s-0.6,0.8-0.8,1.4c-0.3,0.6-0.4,1.1-0.5,1.7c-0.1,0.6,0,1.1,0.1,1.7
				c0.1,0.5,0.4,1,0.9,1.4c0.8,0.6,1.6,0.8,2.5,0.6c0.8-0.2,1.7-0.6,2.6-1.1c0.9-0.6,1.8-1.2,2.8-1.9c1-0.7,2-1.3,3.1-1.7
				c1.1-0.4,2.2-0.6,3.4-0.5c1.2,0.1,2.5,0.7,3.8,1.7C480.2,435.7,480.9,436.7,481.4,437.9z"/>
		</g>
	</g>
	<g>
		<path d="M179.4,242.1l-0.7-0.5l1.5-2.4l-20.1-13.1l-1.5,2.4l-0.7-0.5l10.4-15.9l6.5,4.2l-0.5,0.8l-2.8-1.8l-5.7,8.7l5.4,3.5
			l4.1-6.3l3.2,2.1l-4.1,6.3l5.7,3.7l5.7-8.7l-2.9-1.9l0.5-0.8l6.5,4.2L179.4,242.1z"/>
		<path d="M203.4,210.1l-0.7-0.6l1.7-1.8l-9.5-2.5l3.3,9.3l1.7-1.9l0.7,0.6l-7.1,7.7l-0.6-0.6l1.7-1.8l-4.1-13.5l-13.2-3l-1.8,1.9
			l-0.6-0.6l7.2-7.8l0.7,0.6l-1.6,1.7l8.9,2.6l-3.3-8.7l-1.6,1.7l-0.7-0.6l7.2-7.8l0.6,0.6l-1.8,1.9l4,13.1l13.8,3l1.8-1.9l0.6,0.6
			L203.4,210.1z"/>
		<path d="M218.5,173.6l-2.3-2.9l-5.2,4.1l12.6,16.1l2.2-1.7l0.5,0.7l-8.3,6.5l-0.5-0.7l2.2-1.7l-12.6-16.1l-5.2,4.1l2.3,2.9
			l-0.8,0.6l-5-6.4l15.9-12.4l5,6.4L218.5,173.6z"/>
		<path d="M247.6,176.6l-12.4-6.3l5.2,9.3l1.9-1.1l0.4,0.8l-8.6,4.8l-0.4-0.8l2.4-1.4l-11.7-20.9l-2.4,1.4l-0.4-0.8l10-5.6
			c1.2-0.7,2.4-1.1,3.6-1.4c1.2-0.3,2.4-0.3,3.5-0.1c1.1,0.2,2.2,0.7,3.2,1.4c1,0.7,1.8,1.7,2.5,3c0.4,0.8,0.8,1.7,0.9,2.6
			c0.2,0.9,0.2,1.8,0.1,2.7c-0.1,0.9-0.4,1.7-0.9,2.6c-0.5,0.8-1.1,1.5-1.9,2l8.8,4.6l1.3-0.7l0.4,0.8L247.6,176.6z M238.9,160
			c-0.5-0.4-1.1-0.6-1.6-0.7c-0.6-0.1-1.2-0.1-1.8,0c-0.6,0.1-1.2,0.4-1.9,0.7l-3.2,1.8l4.5,8.1l2.3-1.3c0.7-0.4,1.3-0.8,1.9-1.3
			c0.6-0.5,1-1,1.3-1.6c0.3-0.6,0.5-1.2,0.5-1.9c0-0.7-0.2-1.4-0.7-2.2C239.9,160.9,239.4,160.3,238.9,160z"/>
		<path d="M274.8,165.4l-0.2-0.7l2.7-0.9l-3.6-5.9l-7.9,2.6l0.1,7.1l2.6-0.9l0.2,0.7l-9.9,3.3l-0.3-0.8l2.6-0.9l0.5-25.4l-3.7,1.2
			l-0.3-0.8l8.1-2.7l16.4,20.7l2.6-0.9l0.3,0.8L274.8,165.4z M265.5,147.4L265.5,147.4l0.3,9.2l5.5-1.8L265.5,147.4z"/>
		<path d="M309.9,150.2c-0.4,1.7-1.2,3.3-2.2,4.7c-1,1.4-2.3,2.6-3.8,3.5c-1.5,1-3.2,1.6-5,1.9c-1.8,0.3-3.6,0.2-5.3-0.2
			c-1.7-0.4-3.3-1.2-4.7-2.2c-1.4-1-2.6-2.3-3.5-3.8c-1-1.5-1.6-3.2-1.9-5c-0.3-1.8-0.2-3.6,0.2-5.4c0.4-1.7,1.2-3.3,2.2-4.7
			c1-1.4,2.3-2.6,3.8-3.5c1.5-0.9,3.2-1.6,5-1.9c1.8-0.3,3.6-0.2,5.3,0.2c1.7,0.4,3.3,1.2,4.7,2.2c1.4,1,2.6,2.2,3.5,3.7
			c0.9,1.5,1.6,3.1,1.8,4.9C310.4,146.7,310.3,148.4,309.9,150.2z M304,142.5c-0.6-0.9-1.3-1.7-2.2-2.4c-0.9-0.6-1.8-1.1-2.9-1.4
			c-1.1-0.3-2.2-0.3-3.3-0.1c-1.2,0.2-2.2,0.6-3.2,1.2c-0.9,0.6-1.7,1.3-2.4,2.2c-0.6,0.9-1.1,1.9-1.4,2.9c-0.3,1.1-0.3,2.2-0.1,3.4
			c0.2,1.2,0.6,2.2,1.2,3.2c0.6,1,1.3,1.8,2.2,2.4c0.9,0.7,1.8,1.1,2.9,1.4c1.1,0.3,2.2,0.3,3.4,0.2c1.2-0.2,2.2-0.6,3.2-1.2
			c0.9-0.6,1.7-1.4,2.4-2.3c0.6-0.9,1.1-1.9,1.3-3c0.3-1.1,0.3-2.2,0.1-3.4C304.9,144.5,304.5,143.5,304,142.5z"/>
		<path d="M331.2,157.8l-7.6-11.7l-0.2,10.7l2.2,0l0,0.9l-9.8-0.2l0-0.9l2.8,0l0.4-23.9l-2.8,0l0-0.9l11.5,0.2
			c1.4,0,2.6,0.2,3.8,0.6c1.2,0.4,2.2,0.9,3.1,1.7c0.9,0.7,1.6,1.7,2,2.8c0.5,1.1,0.7,2.4,0.7,3.9c0,0.9-0.2,1.8-0.5,2.7
			c-0.3,0.9-0.8,1.7-1.3,2.4c-0.6,0.7-1.2,1.3-2,1.8c-0.8,0.5-1.7,0.7-2.6,0.8l5.3,8.4l1.5,0l0,0.9L331.2,157.8z M332.1,139.1
			c-0.3-0.6-0.6-1.1-1-1.4c-0.4-0.4-1-0.7-1.6-0.9c-0.6-0.2-1.3-0.3-2-0.3l-3.7-0.1l-0.2,9.3l2.7,0c0.8,0,1.5-0.1,2.3-0.2
			c0.7-0.1,1.4-0.4,1.9-0.7c0.6-0.4,1-0.8,1.4-1.4c0.3-0.6,0.5-1.4,0.5-2.3C332.5,140.3,332.3,139.7,332.1,139.1z"/>
		<path d="M368.9,155.3c-0.9,1.4-2,2.6-3.3,3.5c-1.3,0.9-2.8,1.5-4.4,1.8c-1.6,0.3-3.4,0.3-5.2,0l-11.9-2.3l0.2-0.8l2.8,0.5
			l4.5-23.5l-2.8-0.5l0.2-0.8l12,2.3c1.9,0.4,3.5,1,4.9,1.9c1.4,0.9,2.6,2,3.4,3.3c0.9,1.3,1.4,2.8,1.7,4.5c0.3,1.7,0.2,3.4-0.1,5.3
			C370.4,152.3,369.8,153.9,368.9,155.3z M365.1,142.9c-1.1-1.7-3-2.8-5.7-3.3l-3.8-0.7l-3.1,16.6l3.8,0.7c2.6,0.5,4.8,0.2,6.5-1
			c1.7-1.1,2.8-3,3.3-5.7C366.4,146.8,366.2,144.6,365.1,142.9z"/>
		<path d="M372,164.4l0.3-0.8l2.7,0.9l7.5-22.8l-2.7-0.9l0.3-0.8l9.9,3.3l-0.3,0.8l-2.6-0.9l-7.5,22.8l2.6,0.9l-0.3,0.8L372,164.4z"
			/>
		<path d="M421.1,158.4l-11.2,22.1l-4.1-2.1l-3.2-20.5l-7.2,14.3l2.5,1.3l-0.4,0.8l-9.3-4.7l0.4-0.8l2.5,1.2l10.8-21.4l-2.5-1.2
			l0.4-0.8l6.4,3.2l3.2,20.8l7.4-14.6l-2.5-1.3l0.4-0.8l9.3,4.7l-0.4,0.8L421.1,158.4z"/>
		<path d="M428.9,193.9l0.4-0.6l2.3,1.7l2.9-6.3l-6.6-5l-5.8,4l2.2,1.7l-0.4,0.6l-8.3-6.3l0.5-0.7l2.2,1.7l21.3-13.8l-3.1-2.4
			l0.5-0.7l6.8,5.2l-7.9,25.2l2.2,1.7l-0.5,0.7L428.9,193.9z M438.5,176.1L438.5,176.1l-7.4,5.4l4.6,3.5L438.5,176.1z"/>
		<path d="M452.2,216.4l3.3-13.5l-7.9,7.2l1.5,1.6l-0.6,0.6l-6.6-7.3l0.6-0.6l1.9,2.1l17.8-16.1l-1.9-2.1l0.6-0.6l7.7,8.5
			c0.9,1,1.6,2.1,2.2,3.2c0.5,1.1,0.8,2.3,0.9,3.4c0.1,1.1-0.1,2.3-0.6,3.4c-0.5,1.1-1.3,2.2-2.3,3.1c-0.7,0.6-1.4,1.1-2.3,1.5
			c-0.9,0.4-1.7,0.6-2.6,0.7c-0.9,0.1-1.8,0-2.7-0.3c-0.9-0.3-1.7-0.7-2.4-1.4l-2.5,9.6l1,1.1l-0.6,0.6L452.2,216.4z M466.5,204.2
			c0.2-0.6,0.4-1.2,0.3-1.7c0-0.6-0.2-1.2-0.4-1.7c-0.3-0.6-0.7-1.1-1.1-1.7l-2.5-2.7l-6.9,6.2l1.8,2c0.5,0.6,1.1,1.1,1.7,1.5
			c0.6,0.4,1.2,0.7,1.9,0.9c0.6,0.2,1.3,0.2,2,0c0.7-0.2,1.4-0.5,2-1.2C465.9,205.3,466.3,204.8,466.5,204.2z"/>
		<path d="M489.8,225.9l-16.9,3.2l-6.7,4.5l1.6,2.3l-0.7,0.5l-5.8-8.7l0.7-0.5l1.5,2.3l6.7-4.5l9.4-14.5l-1.4-2.2l0.7-0.5l5.5,8.2
			l-0.7,0.5l-1.3-2l-7.3,10.1l12.1-3l-1.4-2l0.7-0.5l5.5,8.2l-0.7,0.5L489.8,225.9z"/>
	</g>
	<path d="M371.1,290.8c0-25.5-20.7-46.1-46.1-46.1c-25.5,0-46.1,20.7-46.1,46.1c0,20.2,13,37.4,31.1,43.6l-25.4,68.1h80.9L340,334.4
		C358.1,328.2,371.1,311,371.1,290.8z"/>
	<circle class="st0" cx="325" cy="290.8" r="36.5"/>
	<path class="st0" d="M359.5,290.8c0-19.1-15.5-34.6-34.6-34.6c-19.1,0-34.6,15.5-34.6,34.6s15.5,34.6,34.6,34.6
		C344,325.4,359.5,309.9,359.5,290.8z"/>
	<line class="st0" x1="288.5" y1="290.8" x2="361.5" y2="290.8"/>
	<path d="M373,290.8c0-26.5-21.6-48.1-48.1-48.1c-26.5,0-48.1,21.6-48.1,48.1c0,19.9,12.2,37.6,30.6,44.8l-25.7,68.9h86.4
		l-25.7-68.9C360.8,328.4,373,310.7,373,290.8z M325,256.2c18.4,0,33.5,14.5,34.5,32.6h-69C291.5,270.7,306.6,256.2,325,256.2z
		 M344.9,297.2c0,1.5-1.3,2.8-2.8,2.8s-2.8-1.3-2.8-2.8s1.3-2.8,2.8-2.8S344.9,295.6,344.9,297.2z M338.3,304c0,0.8-0.6,1.4-1.4,1.4
		c-0.8,0-1.4-0.6-1.4-1.4c0-0.8,0.6-1.4,1.4-1.4C337.6,302.6,338.3,303.2,338.3,304z M290.5,292.7h6.9c1,14.4,13,25.8,27.7,25.8
		c14.6,0,26.7-11.4,27.7-25.8h6.9c-1,18.2-16.1,32.6-34.5,32.6C306.6,325.4,291.5,310.9,290.5,292.7z"/>
	<g>
		<path class="st4" d="M565.1,307.7L342,337.2l256-7.3c21.5,0,39-17.4,39-39s-17.4-39-39-39s-39,17.4-39,39c0,14.3,11.6,26,26,26
			c14.3,0,26-11.6,26-26c0-7.2-5.8-13-13-13s-13,5.8-13,13c0,3.6,2.9,6.5,6.5,6.5c3.6,0,6.5-2.9,6.5-6.5"/>
		<path class="st4" d="M491.4,293.7L342,337.2L526.6,312c21.4-2.5,36.7-21.8,34.3-43.2s-21.8-36.7-43.2-34.3
			c-21.4,2.5-36.7,21.8-34.3,43.2c1.6,14.3,14.5,24.5,28.8,22.8c14.3-1.6,24.5-14.5,22.8-28.8c-0.8-7.1-7.3-12.2-14.4-11.4
			c-7.1,0.8-12.2,7.3-11.4,14.4c0.4,3.6,3.7,6.2,7.3,5.8s6.2-3.7,5.8-7.3"/>
		<path class="st4" d="M565.1,352.1L342,337.2l256-7.3c21.5,0,39,17.4,39,39c0,21.5-17.4,39-39,39s-39-17.4-39-39
			c0-14.3,11.6-26,26-26c14.3,0,26,11.6,26,26c0,7.2-5.8,13-13,13s-13-5.8-13-13c0-3.6,2.9-6.5,6.5-6.5c3.6,0,6.5,2.9,6.5,6.5"/>
		<path class="st4" d="M491.4,366.2l-149.5-29l184.6,10.7c21.4,2.5,36.7,21.8,34.3,43.2s-21.8,36.7-43.2,34.3
			c-21.4-2.5-36.7-21.8-34.3-43.2c1.6-14.3,14.5-24.5,28.8-22.8c14.3,1.6,24.5,14.5,22.8,28.8c-0.8,7.1-7.3,12.2-14.4,11.4
			c-7.1-0.8-12.2-7.3-11.4-14.4c0.4-3.6,3.7-6.2,7.3-5.8s6.2,3.7,5.8,7.3"/>
	</g>
	<g>
		<path class="st4" d="M84.9,307.7L308,337.2l-256-7.3c-21.5,0-39-17.4-39-39s17.4-39,39-39s39,17.4,39,39c0,14.3-11.6,26-26,26
			s-26-11.6-26-26c0-7.2,5.8-13,13-13s13,5.8,13,13c0,3.6-2.9,6.5-6.5,6.5s-6.5-2.9-6.5-6.5"/>
		<path class="st4" d="M158.6,293.7L308,337.2L123.4,312c-21.4-2.5-36.7-21.8-34.3-43.2c2.5-21.4,21.8-36.7,43.2-34.3
			c21.4,2.5,36.7,21.8,34.3,43.2c-1.6,14.3-14.5,24.5-28.8,22.8S113.3,286,115,271.8c0.8-7.1,7.3-12.2,14.4-11.4s12.2,7.3,11.4,14.4
			c-0.4,3.6-3.7,6.2-7.3,5.8s-6.2-3.7-5.8-7.3"/>
		<path class="st4" d="M84.9,352.1L308,337.2l-256-7.3c-21.5,0-39,17.4-39,39c0,21.5,17.4,39,39,39s39-17.4,39-39
			c0-14.3-11.6-26-26-26s-26,11.6-26,26c0,7.2,5.8,13,13,13s13-5.8,13-13c0-3.6-2.9-6.5-6.5-6.5s-6.5,2.9-6.5,6.5"/>
		<path class="st4" d="M158.6,366.2l149.5-29l-184.6,10.7c-21.4,2.5-36.7,21.8-34.3,43.2c2.5,21.4,21.8,36.7,43.2,34.3
			c21.4-2.5,36.7-21.8,34.3-43.2c-1.6-14.3-14.5-24.5-28.8-22.8c-14.3,1.6-24.5,14.5-22.8,28.8c0.8,7.1,7.3,12.2,14.4,11.4
			c7.1-0.8,12.2-7.3,11.4-14.4c-0.4-3.6-3.7-6.2-7.3-5.8s-6.2,3.7-5.8,7.3"/>
	</g>
</g>
</svg>
