<!-- Generator: Adobe Illustrator 20.1.0, SVG Export Plug-In  -->
<svg version="1.1"
	 xmlns="http://www.w3.org/2000/svg" xmlns:xlink="http://www.w3.org/1999/xlink" xmlns:a="http://ns.adobe.com/AdobeSVGViewerExtensions/3.0/"
	 x="0px" y="0px" width="650px" height="650px" viewBox="0 0 650 650" style="enable-background:new 0 0 650 650;"
	 xml:space="preserve">
<style type="text/css">
	.st0{fill:#FFFFFF;}
	.st1{fill:#58595B;}
</style>
<defs>
</defs>

<g>
	<g>
		<g>
			<path class="st1" d="M217.6,631.5V490.1L325,330l107.4,160.2v141.4L376.2,554L325,624.6L273.8,554L217.6,631.5z M273.8,536.8
				l51.2,70.5l51.2-70.5l46.1,63.6V493.2L325,348.1l-97.3,145.1v107.2L273.8,536.8z"/>
		</g>
		<g>
			<g>
				<path class="st1" d="M325,502.6c-32.6,0-64.1-9.6-91.2-27.7l-4.2-2.8l66-98.4l4.2,2.8c7.4,5,16.1,7.7,25.1,7.7
					c9,0,17.7-2.6,25.1-7.7l4.2-2.8l66,98.4l-4.2,2.8C389.1,493,357.6,502.6,325,502.6z M243.7,469.2c24.4,15.2,52.3,23.3,81.3,23.3
					s56.9-8,81.3-23.3l-54.8-81.7c-8.1,4.4-17.1,6.7-26.5,6.7c-9.3,0-18.4-2.3-26.5-6.7L243.7,469.2z"/>
			</g>
		</g>
	</g>
	<g>
		<g>
			<path class="st1" d="M325,311.1L217.6,151V9.5l56.3,77.5L325,16.5l51.2,70.5l56.3-77.5V151L325,311.1z M227.7,147.9L325,293
				l97.3-145.1V40.7l-46.1,63.6L325,33.7l-51.2,70.5l-46.1-63.6V147.9z"/>
		</g>
		<g>
			<g>
				<path class="st1" d="M295.6,267.4l-66-98.4l4.2-2.8c27-18.2,58.5-27.7,91.2-27.7s64.1,9.6,91.2,27.7l4.2,2.8l-66,98.4l-4.2-2.8
					c-7.4-5-16.1-7.7-25.1-7.7c-9,0-17.7,2.6-25.1,7.7L295.6,267.4z M325,246.8c9.3,0,18.4,2.3,26.5,6.7l54.8-81.7
					c-24.4-15.2-52.3-23.3-81.3-23.3s-56.9,8-81.3,23.3l54.8,81.7C306.6,249.1,315.7,246.8,325,246.8z"/>
			</g>
		</g>
	</g>
	<g>
		<g>
			<path class="st1" d="M155.4,428H14l77.5-56.3L21,320.5l70.5-51.2L14,213.1h141.4l160.2,107.4L155.4,428z M45.2,417.9h107.2
				l145.1-97.3l-145.1-97.3H45.2l63.6,46.1l-70.5,51.2l70.5,51.2L45.2,417.9z"/>
		</g>
		<g>
			<g>
				<path class="st1" d="M173.5,415.9l-2.8-4.2c-18.2-27-27.7-58.5-27.7-91.2c0-32.6,9.6-64.1,27.7-91.2l2.8-4.2l98.4,66l-2.8,4.2
					c-5,7.4-7.7,16.1-7.7,25.1c0,9,2.6,17.7,7.7,25.1l2.8,4.2L173.5,415.9z M176.3,239.3C161,263.6,153,291.6,153,320.5
					c0,28.9,8,56.9,23.3,81.3L258,347c-4.4-8.1-6.7-17.1-6.7-26.5c0-9.3,2.3-18.4,6.7-26.5L176.3,239.3z"/>
			</g>
		</g>
	</g>
	<g>
		<g>
			<path class="st1" d="M636,428H494.6L334.4,320.5l160.2-107.4H636l-77.5,56.3l70.5,51.2l-70.5,51.2L636,428z M497.7,417.9h107.2
				l-63.6-46.1l70.5-51.2l-70.5-51.2l63.6-46.1H497.7l-145.1,97.3L497.7,417.9z"/>
		</g>
		<g>
			<g>
				<path class="st1" d="M476.5,415.9l-98.4-66l2.8-4.2c5-7.4,7.7-16.1,7.7-25.1c0-9-2.6-17.7-7.7-25.1l-2.8-4.2l98.4-66l2.8,4.2
					c18.2,27,27.7,58.5,27.7,91.2s-9.6,64.1-27.7,91.2L476.5,415.9z M392,347l81.7,54.8c15.2-24.4,23.3-52.3,23.3-81.3
					s-8-56.9-23.3-81.3L392,294.1c4.4,8.1,6.7,17.1,6.7,26.5C398.8,329.9,396.4,338.9,392,347z"/>
			</g>
		</g>
	</g>
</g>
</svg>
