<!-- Generator: Adobe Illustrator 20.1.0, SVG Export Plug-In  -->
<svg version="1.1"
	 xmlns="http://www.w3.org/2000/svg" xmlns:xlink="http://www.w3.org/1999/xlink" xmlns:a="http://ns.adobe.com/AdobeSVGViewerExtensions/3.0/"
	 x="0px" y="0px" width="650px" height="650px" viewBox="0 0 650 650" style="enable-background:new 0 0 650 650;"
	 xml:space="preserve">
<style type="text/css">
	.st0{fill:#FFFFFF;}
	.st1{fill:#1D2250;}
</style>
<defs>
</defs>

<g>
	<g>
		<path class="st1" d="M168,462.7c0,8-6.6,12.4-16.7,12.4c-7.4,0-10.5-0.6-17.9-4.3l1.5-3.1c6.7,3.3,9.9,3.9,16.5,3.9
			c7.7,0,12.7-3.1,12.7-8.8c0-5.6-5.8-7.5-13.3-9.4c-9.2-2.2-17-4.7-17-12.8c0-7.2,6.1-12.2,15.9-12.2c5.6,0,12.3,1.4,16.4,3.6
			c-0.3,0.7-1.3,2.5-1.6,3.1c-3.8-2-10.1-3.3-14.8-3.3c-7.5,0-11.9,3.5-11.9,8.6c0,5.6,6.1,7.5,14.1,9.5
			C160.8,452.2,168,454.8,168,462.7z"/>
		<path class="st1" d="M223,456.3c0,10.5-6.6,18.8-18.9,18.8c-12.3,0-18.9-8.3-18.9-18.8v-27.6h3.7v26.9c0,9.4,5.3,15.9,15.1,15.9
			c9.9,0,15.2-6.6,15.2-15.9v-26.9h3.7V456.3z"/>
		<path class="st1" d="M272.9,471.5v3.3h-30.3v-46.2h3.8v42.8H272.9z"/>
		<path class="st1" d="M319.7,471.5v3.3h-30.3v-46.2h3.8v42.8H319.7z"/>
		<path class="st1" d="M340.1,474.9h-3.9v-46.2h3.9V474.9z"/>
		<path class="st1" d="M397.3,428.7h4.2L380,474.9h-2l-21.5-46.2h4.2l18.3,39.7L397.3,428.7z"/>
		<path class="st1" d="M441.3,462.3H416l-5.5,12.6h-4.1l21-46.2h2.4l21,46.2h-4.1L441.3,462.3z M417.4,459.1h22.5l-11.3-25.3
			L417.4,459.1z"/>
		<path class="st1" d="M504.7,428.7v46.2h-2.2L469.9,436v38.9h-3.8v-46.2h2.2l32.6,39v-39H504.7z"/>
		<path class="st1" d="M181.8,550.2h-1.9l-14.8-39.5l-14.8,39.5h-1.9L130.8,504h4.1l14.5,39l14.6-39h2.1l14.5,39l14.6-39h4.1
			L181.8,550.2z"/>
		<path class="st1" d="M301,527.1c0,12.9-10.8,23.3-24.3,23.3c-13.4,0-24.4-10.4-24.4-23.3s10.9-23.4,24.4-23.4
			C290.2,503.8,301,514.2,301,527.1z M297.1,527.1c0-10.9-9.2-19.7-20.4-19.7c-11.3,0-20.4,8.8-20.4,19.7s9.2,19.7,20.4,19.7
			C287.9,546.9,297.1,538,297.1,527.1z"/>
		<path class="st1" d="M405.2,546.9v3.3H375V504h3.8v42.8H405.2z"/>
		<path class="st1" d="M480.6,507.4v22.2H505v3.4h-24.4v17.2h-3.7V504h31.7v3.4H480.6z"/>
		<path class="st1" d="M175.8,625.5h-5.2l-18.5-20.9l-9.1,9.8v11.1h-3.7v-46.2h3.7V609l27.4-29.6h4.8l-20.6,22.4L175.8,625.5z"/>
		<path class="st1" d="M241.6,612.9h-25.3l-5.5,12.6h-4.1l21-46.2h2.4l21,46.2h-4.1L241.6,612.9z M217.8,609.7h22.5L229,584.5
			L217.8,609.7z"/>
		<path class="st1" d="M290,625.5h-3.9v-46.2h3.9V625.5z"/>
		<path class="st1" d="M359.7,622.2v3.3h-30.3v-46.2h3.8v42.8H359.7z"/>
		<path class="st1" d="M432.2,607c0,10.5-6.6,18.8-18.9,18.8s-18.9-8.2-18.9-18.8v-27.6h3.7v26.9c0,9.4,5.3,15.9,15.1,15.9
			c9.9,0,15.2-6.6,15.2-15.9v-26.9h3.7V607z"/>
		<path class="st1" d="M503.6,613.3c0,8-6.6,12.4-16.7,12.4c-7.4,0-10.5-0.6-17.9-4.3l1.5-3.1c6.7,3.3,9.9,3.9,16.5,3.9
			c7.7,0,12.7-3.1,12.7-8.8c0-5.6-5.8-7.5-13.3-9.4c-9.2-2.2-17-4.7-17-12.8c0-7.2,6.1-12.2,15.9-12.2c5.6,0,12.3,1.4,16.4,3.6
			c-0.3,0.7-1.3,2.5-1.6,3.1c-3.8-2-10.1-3.3-14.8-3.3c-7.5,0-11.9,3.5-11.9,8.6c0,5.6,6.1,7.5,14.1,9.5
			C496.4,602.8,503.6,605.4,503.6,613.3z"/>
	</g>
	<polygon class="st1" points="348.7,68.8 348.7,12.5 133.9,12.5 133.9,225 171.5,225 171.5,212.1 146.8,212.1 146.8,25.5 
		335.8,25.5 335.8,203.1 247.3,115.8 238.2,115.8 238.2,125 326.5,212.1 218.6,212.1 218.6,225 348.7,225 348.7,81.7 491.2,81.7 
		491.2,368.4 201,368.4 201,81.7 319.2,81.7 319.2,68.8 188.1,68.8 188.1,381.3 504.1,381.3 504.1,68.8 	"/>
</g>
</svg>
