<!-- Generator: Adobe Illustrator 20.1.0, SVG Export Plug-In  -->
<svg version="1.1"
	 xmlns="http://www.w3.org/2000/svg" xmlns:xlink="http://www.w3.org/1999/xlink" xmlns:a="http://ns.adobe.com/AdobeSVGViewerExtensions/3.0/"
	 x="0px" y="0px" width="650px" height="650px" viewBox="0 0 650 650" style="enable-background:new 0 0 650 650;"
	 xml:space="preserve">
<style type="text/css">
	.st0{fill:#FFFFFF;}
	.st1{fill:#0492C8;}
	.st2{fill:#BFDBED;}
</style>

<path class="st1" d="M172.7,321.7h42c6.2,0,11.3,5.1,11.3,11.3c0,6.2-5.1,11.3-11.3,11.3h-42v40.9h58.9c6.4,0,11.6,5.1,11.6,11.6
	c0,6.4-5.1,11.6-11.6,11.6h-71.8c-7.1,0-12.9-5.8-12.9-12.9V271.8c0-7.1,5.8-12.9,12.9-12.9h69.3c6.4,0,11.6,5.1,11.6,11.6
	c0,6.4-5.1,11.6-11.6,11.6h-56.4V321.7z"/>
<path class="st1" d="M292.2,369.5l-13.5,32.2c-2,4.7-6.2,8.4-12,8.4c-6.9,0-12.7-5.8-12.7-12.7c0-1.3,0.2-3.1,0.9-4.7l52.4-127.7
	c1.3-3.1,4.9-8,11.8-8c6.9,0,10.4,4.9,11.8,8l52.4,127.7c0.7,1.6,0.9,3.3,0.9,4.7c0,6.9-5.8,12.7-12.7,12.7c-5.8,0-10-3.8-12-8.4
	L346,369.5H292.2z M319.1,299.3l-18.2,46.7h36.4L319.1,299.3z"/>
<path class="st1" d="M427.5,351.1v46.2c0,7.1-5.8,12.9-12.9,12.9c-7.1,0-12.9-5.8-12.9-12.9V271.8c0-7.1,5.8-12.9,12.9-12.9h42.4
	c30,0,46.9,21.3,46.9,46.4c0,21.1-12.9,41.5-34.2,44.2l32.9,40c2,2.7,2.7,5.3,2.7,7.8c0,7.1-5.8,12.9-12.9,12.9
	c-3.8,0-7.8-1.8-10-4.7l-40.4-54.4H427.5z M427.5,282v46.4h30c13.8,0,19.8-11.3,19.8-23.1c0-12-6-23.3-20.4-23.3H427.5z"/>
<path class="st1" d="M639,269.8v127.7c0,6.9-5.8,12.7-12.7,12.7c-4.2,0-8.2-2.2-10.4-5.6L550.4,310v87.5c0,6.9-5.8,12.7-12.7,12.7
	c-6.9,0-12.7-5.8-12.7-12.7V269.8c0-6.9,5.8-12.7,12.7-12.7c4.4,0,8,2,10.2,5.3l65.8,95.3v-88c0-6.9,5.8-12.7,12.7-12.7
	C633.2,257.1,639,262.9,639,269.8z"/>
<path class="st1" d="M99.7,314.2c-1.1,1.5-8.1,3.4-13.8-0.1c-5.5-3.4-8-10-5.6-13.5L19,389.9c-1.3,1.8-2.2,4.4-2.2,6.9
	c0,6.4,5.1,11.6,11.6,11.6h90.9c6.4,0,11.6-5.1,11.6-11.6c0-6.4-5.1-11.6-11.6-11.6H51.4L99.7,314.2z"/>
<path class="st2" d="M86.4,292.8c-3.5,5.1-2.2,12,2.8,15.5c1.9,1.3,4.2,2,6.3,2c3.5,0,7-1.7,9.2-4.8l18.2-26.3
	c0-0.1,0.1-0.1,0.1-0.2c0.1-0.2,0.2-0.4,0.3-0.5c0.1-0.1,0.2-0.3,0.3-0.4c0.1-0.2,0.2-0.3,0.2-0.5c0.1-0.2,0.2-0.4,0.2-0.5
	c0.1-0.1,0.1-0.3,0.2-0.4c0.1-0.2,0.2-0.4,0.2-0.6c0-0.1,0.1-0.2,0.1-0.4c0.1-0.2,0.1-0.5,0.2-0.7c0-0.1,0-0.3,0.1-0.4
	c0-0.2,0.1-0.4,0.1-0.7c0-0.2,0-0.3,0-0.5c0-0.2,0-0.4,0-0.6c0-0.2,0-0.4,0-0.6c0-0.2,0-0.3,0-0.5c0-0.2-0.1-0.4-0.1-0.7
	c0-0.1,0-0.3-0.1-0.4c0-0.2-0.1-0.5-0.2-0.7c0-0.1-0.1-0.2-0.1-0.4c-0.1-0.2-0.1-0.4-0.2-0.6c-0.1-0.1-0.1-0.3-0.2-0.4
	c-0.1-0.2-0.2-0.4-0.2-0.5c-0.1-0.2-0.2-0.3-0.2-0.5c-0.1-0.1-0.2-0.3-0.2-0.4c-0.1-0.2-0.2-0.4-0.3-0.5c0,0,0,0,0,0c0,0,0,0,0,0
	c0,0,0-0.1-0.1-0.1l-0.6-0.9l-17.6-25.5c-3.5-5.1-10.5-6.4-15.5-2.8c-5.1,3.5-6.4,10.5-2.8,15.5l6.1,8.8h-68c-3.9,0-7.3,2-9.3,5
	c-1.2,1.8-1.9,3.9-1.9,6.2c0,2.3,0.7,4.4,1.9,6.2c2,3,5.4,5,9.3,5h68h0.1L86.4,292.8z"/>
</svg>
